<svg width="24" height="22" viewBox="0 0 24 22" fill="none" xmlns="http://www.w3.org/2000/svg">
<g clip-path="url(#clip0_601_1970)">
<path d="M14.9092 1.52565C14.0254 0.178869 13.815 0 12.0158 0H11.9947H11.9737C10.1745 0 9.97457 0.178869 9.08023 1.52565C8.24901 2.78825 0 17.8974 0 18.3183C0 18.9285 0.157826 19.5072 0.725997 20.3279C1.30469 21.1591 2.30425 21.6221 3.03025 20.8856C3.52477 20.3911 8.81719 11.2687 11.374 7.81762C11.6791 7.38623 12.3104 7.38623 12.626 7.81762C15.1828 11.2687 20.4752 20.3911 20.9698 20.8856C21.6957 21.6221 22.6953 21.1591 23.274 20.3279C23.8422 19.5072 24 18.9285 24 18.3183C23.9895 17.8974 15.7405 2.77773 14.9092 1.52565Z" fill="#37435C"/>
</g>
<defs>
<clipPath id="clip0_601_1970">
<rect width="24" height="21.2812" fill="white"/>
</clipPath>
</defs>
</svg>
