<svg width="24" height="24" viewBox="0 0 24 24" fill="none" xmlns="http://www.w3.org/2000/svg">
<path d="M23.9873 12.2245C23.9873 11.2412 23.9057 10.5237 23.729 9.7796H12.239V14.2176H18.9833C18.8474 15.3205 18.1132 16.9814 16.4814 18.0975L16.4585 18.2461L20.0915 20.9963L20.3431 21.0209C22.6547 18.9347 23.9873 15.8653 23.9873 12.2245Z" fill="white"/>
<path d="M12.2391 23.9176C15.5433 23.9176 18.3172 22.8546 20.3433 21.0209L16.4816 18.0976C15.4482 18.8018 14.0612 19.2935 12.2391 19.2935C9.00293 19.2935 6.25624 17.2074 5.27712 14.324L5.1336 14.3359L1.35604 17.1927L1.30664 17.3269C3.31906 21.2335 7.45274 23.9176 12.2391 23.9176Z" fill="white"/>
<path d="M5.27702 14.324C5.01867 13.5799 4.86916 12.7826 4.86916 11.9588C4.86916 11.1349 5.01867 10.3377 5.26343 9.5936L5.25659 9.43513L1.4317 6.53241L1.30655 6.59058C0.47714 8.21168 0.0012207 10.0321 0.0012207 11.9588C0.0012207 13.8855 0.47714 15.7058 1.30655 17.3269L5.27702 14.324Z" fill="white"/>
<path d="M12.2391 4.62403C14.5371 4.62403 16.0871 5.59402 16.971 6.40461L20.4248 3.10928C18.3036 1.1826 15.5433 0 12.2391 0C7.45273 0 3.31906 2.68406 1.30664 6.59057L5.26351 9.59359C6.25622 6.7102 9.00291 4.62403 12.2391 4.62403Z" fill="white"/>
</svg>
