<svg width="500" height="414" viewBox="0 0 500 414" fill="none" xmlns="http://www.w3.org/2000/svg">
<path d="M436.5 265.47C436.5 265.47 444.75 235.86 451.34 225.8C457.93 215.74 470.21 204.69 470.21 204.69C470.21 204.69 469.92 250.35 436.5 265.47Z" fill="#4A26AB"/>
<path d="M437.09 265C439.868 260.364 442.379 255.573 444.61 250.65C445.558 245.355 446.929 240.145 448.71 235.07C448.71 235.051 448.717 235.034 448.73 235.02C448.744 235.007 448.761 235 448.78 235C448.799 235 448.816 235.007 448.829 235.02C448.843 235.034 448.85 235.051 448.85 235.07C447.76 239.75 446.49 244.39 445.33 249.07C448.66 241.86 451.83 234.56 455.79 227.74C456.708 224.45 457.993 221.273 459.62 218.27C459.62 218.18 459.81 218.27 459.76 218.32C458.759 220.635 457.9 223.01 457.19 225.43C459.057 222.388 461.153 219.493 463.46 216.77C463.6 216.6 463.89 216.77 463.75 216.97C458.45 223.74 454.75 231.44 451.3 239.24C455.046 235.172 458.505 230.849 461.65 226.3C461.65 226.25 461.75 226.3 461.72 226.35C458.442 231.446 454.735 236.254 450.64 240.72C448.1 246.43 445.64 252.17 442.57 257.6C448.62 252.49 453.28 245.87 457.88 239.49C457.99 239.34 458.21 239.49 458.11 239.64C453.5 246.64 448.73 253.25 442.11 258.44C440.762 260.826 439.283 263.137 437.68 265.36C437.626 265.423 437.551 265.465 437.469 265.478C437.387 265.491 437.303 265.475 437.232 265.431C437.16 265.388 437.107 265.321 437.081 265.242C437.055 265.163 437.058 265.077 437.09 265Z" fill="#263238"/>
<path d="M433.94 268.14C433.94 268.14 448.77 240.83 444.46 214.35C440.15 187.87 435.54 178.45 435.54 178.45C435.54 178.45 412.23 219.63 433.94 268.14Z" fill="#4A26AB"/>
<path d="M427.85 225.21C429.109 232.714 431.027 240.092 433.58 247.26C433.58 237.54 433.8 227.82 434.06 218.11C432.399 212.212 431.459 206.134 431.26 200.01C431.26 199.83 431.53 199.84 431.54 200.01C432.009 205.259 432.878 210.464 434.14 215.58C434.36 207.58 434.62 199.58 434.92 191.58C434.927 191.558 434.941 191.538 434.96 191.524C434.979 191.51 435.002 191.503 435.025 191.503C435.048 191.503 435.071 191.51 435.09 191.524C435.109 191.538 435.123 191.558 435.13 191.58C435.13 204.1 435.13 216.58 435.05 229.15C436.852 224.307 438.28 219.332 439.32 214.27H439.41C438.796 220.096 437.309 225.796 435 231.18C434.94 239.18 434.86 247.18 434.68 255.18C437.19 246.67 439.87 238.43 440.59 229.44C440.597 229.42 440.609 229.403 440.626 229.39C440.643 229.378 440.664 229.371 440.685 229.371C440.706 229.371 440.727 229.378 440.744 229.39C440.761 229.403 440.773 229.42 440.78 229.44C440.58 239.36 438.03 249.44 434.78 258.75C434.744 258.843 434.685 258.925 434.61 258.99C434.54 261.91 434.46 264.84 434.36 267.76C434.346 267.836 434.307 267.906 434.247 267.955C434.188 268.005 434.113 268.033 434.035 268.033C433.957 268.033 433.882 268.005 433.823 267.955C433.763 267.906 433.723 267.836 433.71 267.76C433.59 261.76 433.54 255.76 433.56 249.76C430.327 241.926 428.352 233.63 427.71 225.18C427.72 225.15 427.84 225.13 427.85 225.21Z" fill="#263238"/>
<path d="M428.87 221C429.377 223.379 429.711 225.792 429.87 228.22C429.87 228.3 429.75 228.31 429.73 228.22C429.154 225.852 428.746 223.446 428.51 221.02C428.52 220.84 428.83 220.8 428.87 221Z" fill="#263238"/>
<path d="M437.54 201C437.54 200.92 437.68 200.94 437.68 201C437.661 202.692 437.412 204.374 436.94 206C436.932 206.026 436.914 206.049 436.89 206.062C436.865 206.075 436.837 206.078 436.81 206.07C436.783 206.062 436.761 206.044 436.748 206.019C436.735 205.995 436.732 205.966 436.74 205.94C437.06 204.32 437.26 202.67 437.54 201Z" fill="#263238"/>
<path d="M428.53 270.23C428.53 270.23 429.14 241.72 420.96 227.55C412.78 213.38 399.22 206.16 399.22 206.16C399.22 206.16 404.69 256.42 428.53 270.23Z" fill="#4A26AB"/>
<path d="M413.63 245.85C416.918 250.818 420.618 255.501 424.69 259.85C423.063 254.017 421.177 248.287 419.03 242.66C414.45 238.66 409.9 234.47 407.09 228.97C407.086 228.953 407.087 228.936 407.093 228.92C407.1 228.905 407.111 228.891 407.126 228.882C407.14 228.873 407.157 228.869 407.174 228.871C407.191 228.872 407.207 228.879 407.22 228.89C410.22 233.76 414.29 237.66 418.55 241.41C415.268 232.92 411.464 224.64 407.16 216.62C407.136 216.578 407.13 216.527 407.143 216.48C407.156 216.434 407.188 216.394 407.23 216.37C407.272 216.346 407.323 216.34 407.369 216.353C407.416 216.366 407.456 216.398 407.48 216.44C410.09 220.641 412.47 224.981 414.61 229.44C413.85 226.39 413.23 223.28 412.45 220.25C412.45 220.17 412.55 220.14 412.58 220.25C414.184 224.13 415.312 228.189 415.94 232.34C418.803 238.663 421.209 245.183 423.14 251.85C422.93 247.57 422.66 243.32 422.22 239.06C422.22 238.97 422.34 238.96 422.36 239.06C423.272 243.787 423.688 248.597 423.6 253.41C424.78 257.663 425.78 261.957 426.6 266.29C426.6 266.41 426.44 266.46 426.42 266.34C425.97 264.53 425.49 262.73 425 260.93C424.967 260.938 424.933 260.938 424.9 260.93C420.347 256.576 416.534 251.51 413.61 245.93C413.61 245.93 413.61 245.82 413.63 245.85Z" fill="#263238"/>
<path d="M452.83 266.75L451.83 280.25L448.72 321.07H421.6L418.49 280.25L417.49 266.75H452.86H452.83Z" fill="#455A64"/>
<path d="M452.83 266.75L451.83 280.25H418.49L417.49 266.75H452.86H452.83Z" fill="#37474F"/>
<path d="M415.06 270.47H455.24V260.12H415.06V270.47Z" fill="#455A64"/>
<path d="M29.7 321.07L84.78 320.83L139.85 320.74L250 320.58L360.15 320.74L415.22 320.83L470.3 321.07L415.22 321.32L360.15 321.41L250 321.57L139.85 321.41L84.78 321.32L29.7 321.07Z" fill="#263238"/>
<path d="M250 402.31C356.315 402.31 442.5 395.254 442.5 386.55C442.5 377.846 356.315 370.79 250 370.79C143.685 370.79 57.5 377.846 57.5 386.55C57.5 395.254 143.685 402.31 250 402.31Z" fill="#EBEBEB"/>
<path d="M144.15 306.29L400.5 306.29V255.71L144.15 255.71V306.29Z" fill="#4A26AB"/>
<path opacity="0.2" d="M144.15 306.29L400.5 306.29V255.71L144.15 255.71V306.29Z" fill="black"/>
<path d="M352.64 306.29H377.69V255.71H352.64V306.29Z" fill="#4A26AB"/>
<path d="M332.9 306.29H343.35V255.71H332.9V306.29Z" fill="#4A26AB"/>
<path d="M167.45 306.29H192.5V255.71H167.45V306.29Z" fill="#4A26AB"/>
<path d="M125.019 126L59.1896 373.753L95.5287 383.409L161.358 135.655L125.019 126Z" fill="#4A26AB"/>
<path d="M71.4775 327.491L65.0447 351.701L101.384 361.357L107.817 337.147L71.4775 327.491Z" fill="#37474F"/>
<path d="M120.235 148.672L113.722 172.971L150.194 182.747L156.707 158.448L120.235 148.672Z" fill="#37474F"/>
<path d="M116.15 383.45L413.04 383.45V358.16L116.15 358.16V383.45Z" fill="#4A26AB"/>
<g opacity="0.2">
<path opacity="0.2" d="M145.77 383.45H157.88V358.16H145.77V383.45Z" fill="black"/>
<path opacity="0.2" d="M165.99 383.45H167.58V358.16H165.99V383.45Z" fill="black"/>
<path opacity="0.2" d="M136.08 383.45H137.67V358.16H136.08V383.45Z" fill="black"/>
<path opacity="0.2" d="M352.33 383.45H364.44V358.16H352.33V383.45Z" fill="black"/>
<path opacity="0.2" d="M372.55 383.45H374.14V358.16H372.55V383.45Z" fill="black"/>
<path opacity="0.2" d="M379.51 383.45H381.1V358.16H379.51V383.45Z" fill="black"/>
<path opacity="0.2" d="M386.47 383.45H388.06V358.16H386.47V383.45Z" fill="black"/>
<path opacity="0.2" d="M342.64 383.45H344.23V358.16H342.64V383.45Z" fill="black"/>
</g>
<path d="M317.67 217.97H139.85V255.71H317.67V217.97Z" fill="#A6A6A6"/>
<path d="M419.05 217.97H317.67V255.71H419.05V217.97Z" fill="#A6A6A6"/>
<path d="M317.67 221.89H139.85V251.8H317.67V221.89Z" fill="white"/>
<path d="M151.36 228C165.22 227.787 179.08 227.64 192.94 227.56L234.52 227.43L276.09 227.56C289.95 227.64 303.81 227.787 317.67 228C303.81 228.207 289.95 228.357 276.09 228.45L234.52 228.58L192.94 228.44C179.08 228.4 165.22 228.253 151.36 228Z" fill="#DBDBDB"/>
<path d="M151.36 233.91C165.22 233.697 179.08 233.55 192.94 233.47L234.52 233.33L276.09 233.47C289.95 233.543 303.81 233.69 317.67 233.91C303.81 234.117 289.95 234.263 276.09 234.35L234.52 234.48L192.94 234.35C179.08 234.27 165.22 234.123 151.36 233.91Z" fill="#DBDBDB"/>
<path d="M151.36 239.78C165.22 239.56 179.08 239.41 192.94 239.33L234.52 239.2L276.09 239.33C289.95 239.41 303.81 239.56 317.67 239.78C303.81 239.993 289.95 240.14 276.09 240.22L234.52 240.35L192.94 240.22C179.08 240.14 165.22 239.993 151.36 239.78Z" fill="#DBDBDB"/>
<path d="M151.36 245.64C165.22 245.433 179.08 245.287 192.94 245.2L234.52 245.07L276.09 245.2C289.95 245.28 303.81 245.427 317.67 245.64C303.81 245.86 289.95 246.01 276.09 246.09L234.52 246.22L192.94 246.08C179.08 246.027 165.22 245.88 151.36 245.64Z" fill="#DBDBDB"/>
<path d="M241.39 358.15H440.36V306.28H241.39V358.15Z" fill="#455A64"/>
<path d="M136.75 358.15H241.39V306.28H136.75V358.15Z" fill="#455A64"/>
<path d="M241.39 352.77H440.36V311.67H241.39V352.77Z" fill="white"/>
<path d="M430.73 344.32C419.11 344.526 407.497 344.673 395.89 344.76L311.06 344.89L276.23 344.76C264.617 344.68 253.007 344.533 241.4 344.32C253.007 344.1 264.617 343.95 276.23 343.87L311.06 343.74L395.89 343.87C407.503 343.956 419.117 344.106 430.73 344.32Z" fill="#DBDBDB"/>
<path d="M430.73 336.25C419.11 336.457 407.497 336.603 395.89 336.69L311.06 336.83L276.23 336.7C264.617 336.62 253.007 336.47 241.4 336.25C253.007 336.043 264.617 335.897 276.23 335.81L311.06 335.68L395.89 335.81C407.503 335.89 419.117 336.037 430.73 336.25Z" fill="#DBDBDB"/>
<path d="M430.73 328.19C419.11 328.397 407.497 328.543 395.89 328.63L311.06 328.76L276.23 328.63C264.617 328.55 253.007 328.403 241.4 328.19C253.007 327.983 264.617 327.837 276.23 327.75L311.06 327.61L395.89 327.75C407.503 327.823 419.117 327.97 430.73 328.19Z" fill="#DBDBDB"/>
<path d="M430.73 320.13C419.11 320.337 407.497 320.483 395.89 320.57L311.06 320.7L276.23 320.57C264.617 320.49 253.007 320.343 241.4 320.13C253.007 319.91 264.617 319.76 276.23 319.68L311.06 319.55L395.89 319.68C407.503 319.76 419.117 319.91 430.73 320.13Z" fill="#DBDBDB"/>
<path d="M437.34 19.7099C437.34 19.7099 432.53 28.3999 428 27.8199L427 27.6599C420.22 25.6599 413.85 22.4499 407.23 20.0399C402.23 18.0728 396.96 16.8791 391.6 16.4999C386.519 16.3025 381.456 17.21 376.76 19.1599C370.549 21.7838 365.006 25.7684 360.54 30.8199C357.83 33.4185 355.342 36.2383 353.1 39.2499C347.2 36.1499 339.53 35.7499 334.41 39.7999C328.653 34.5036 321.048 31.6777 313.23 31.9299C308.575 32.1509 304.04 33.4776 300 35.7999L299.48 36.1099L299.81 35.8599C304.29 32.7099 309.32 30.1699 314.9 30.0499C320.48 29.9299 325.84 31.7999 330.54 34.4099C326.01 31.7899 321.21 29.7399 315.9 29.5599C310.83 29.3899 306.1 31.1599 301.84 33.7999C299.059 35.6176 296.388 37.5977 293.84 39.7299C291.45 41.3499 289.06 42.9799 286.54 44.3999C281.9 46.9899 276.4 49.5199 271.17 47.9499C254.88 43.0599 227.6 7.55989 206.85 25.5399C206.858 25.5231 206.861 25.5042 206.858 25.4859C206.854 25.4675 206.846 25.4506 206.832 25.4375C206.819 25.4243 206.802 25.4155 206.784 25.4124C206.766 25.4093 206.747 25.4119 206.73 25.4199C196.6 28.5699 187.05 39.7199 186.43 50.7399C185.08 74.4999 210.83 96.4999 211.05 101.85C211.36 109.35 209.93 116.85 209.9 124.3C209.36 129.78 209.23 135.3 210.64 140.66C211.723 144.768 213.844 148.529 216.798 151.583C219.751 154.637 223.44 156.881 227.51 158.1C227.67 158.1 227.71 157.9 227.56 157.85C222.471 156.172 218.059 152.896 214.98 148.51C211.23 143.11 210.2 136.77 210.26 130.39L210.32 130.92C213.32 154.28 235.24 157.21 239.51 158.07C238.337 161.977 237.596 166.001 237.3 170.07C236.76 179.47 240.49 187.63 248.37 192.92C256.64 198.46 264.6 194.33 265.09 194.43C265.22 196.563 265.896 198.627 267.054 200.424C268.212 202.221 269.811 203.69 271.7 204.69C274.598 206.166 277.883 206.704 281.1 206.23C301.72 212.94 322.79 198.74 330.64 174.08C330.64 174.08 359.21 175.98 363.72 140.68C363.72 140.68 416.29 121.45 418.45 61.6799C418.41 61.6699 446.13 46.1999 437.34 19.7099ZM368.68 24.3499C376.364 18.6595 385.963 16.1879 395.44 17.4599C406.34 19.0799 416.24 24.5999 426.77 27.6199C422.729 26.7592 418.764 25.5788 414.91 24.0899C409.917 22.3997 404.811 21.0631 399.63 20.0899C391.13 18.4899 381.91 17.8499 373.85 21.5399C372.062 22.3528 370.335 23.2918 368.68 24.3499ZM265.35 194.53C266.614 197.353 268.544 199.829 270.973 201.744C273.402 203.66 276.259 204.959 279.3 205.53C276.987 205.679 274.673 205.26 272.56 204.31C270.622 203.433 268.941 202.073 267.679 200.361C266.416 198.649 265.614 196.641 265.35 194.53Z" fill="#263238"/>
<path d="M329 173.73C331.823 174.546 334.768 174.857 337.7 174.65C340.588 174.453 343.408 173.689 346 172.4C348.583 171.085 350.926 169.344 352.93 167.25C354.964 165.117 356.792 162.797 358.39 160.32C357.227 163.088 355.642 165.658 353.69 167.94C352.705 169.093 351.617 170.154 350.44 171.11C349.237 172.053 347.948 172.88 346.59 173.58C343.843 174.936 340.824 175.65 337.76 175.67C334.728 175.721 331.727 175.057 329 173.73Z" fill="#263238"/>
<path d="M203.9 27.1899C201.615 29.4416 199.559 31.9136 197.76 34.5699C195.944 37.2024 194.457 40.0468 193.33 43.0399C192.189 46.0257 191.635 49.204 191.7 52.3999C191.702 55.5945 192.088 58.7774 192.85 61.8799C194.492 68.0516 197.28 73.8593 201.07 78.9999C202.89 81.6299 204.86 84.1599 206.77 86.7499C208.749 89.3006 210.47 92.0406 211.91 94.9299L212.39 96.0499L212.8 97.1999C213.028 97.9979 213.159 98.8205 213.19 99.6499C213.265 101.263 213.235 102.88 213.1 104.49C212.88 107.7 212.5 110.89 212.17 114.08C211.53 120.44 210.95 126.86 211.59 133.21C211.83 136.391 212.74 139.485 214.26 142.29C215.866 145.04 217.89 147.523 220.26 149.65C222.644 151.817 225.237 153.743 228 155.4C230.737 157.073 233.606 158.518 236.58 159.72C233.582 158.565 230.686 157.164 227.92 155.53C225.136 153.921 222.52 152.038 220.11 149.91C217.676 147.785 215.591 145.291 213.93 142.52C212.359 139.677 211.405 136.536 211.13 133.3C210.787 130.095 210.703 126.868 210.88 123.65C211.01 120.44 211.3 117.24 211.62 114.05C211.94 110.86 212.3 107.67 212.52 104.48C212.643 102.896 212.667 101.306 212.59 99.7199C212.555 98.9416 212.431 98.17 212.22 97.4199L211.82 96.3099L211.36 95.2199C209.94 92.3652 208.246 89.6557 206.3 87.1299C204.41 84.5499 202.45 82.0099 200.62 79.3599C196.97 74.0899 193.83 68.3099 192.4 61.9899C191.657 58.8481 191.294 55.6283 191.32 52.3999C191.284 49.1638 191.875 45.9513 193.06 42.9399C194.246 39.9442 195.79 37.1035 197.66 34.4799C199.493 31.8491 201.584 29.4071 203.9 27.1899Z" fill="#37474F"/>
<path d="M207.53 24.6099C208.958 24.3299 210.406 24.1694 211.86 24.1299C213.314 24.0699 214.771 24.11 216.22 24.2499C219.129 24.5186 221.987 25.1917 224.71 26.2499C227.429 27.3329 229.979 28.8013 232.28 30.6099C234.56 32.4099 236.8 34.2599 239.06 36.0899C243.58 39.7399 248.12 43.3599 252.93 46.5899C255.329 48.2137 257.816 49.7027 260.38 51.0499C262.915 52.3992 265.6 53.4464 268.38 54.1699C269.768 54.5135 271.191 54.6947 272.62 54.7099C274.04 54.7377 275.452 54.4933 276.78 53.9899C279.418 52.835 281.892 51.3389 284.14 49.5399C288.77 46.0699 293.24 42.2699 298.4 39.4799C300.958 38.0584 303.686 36.9696 306.52 36.2399C309.361 35.5253 312.299 35.2754 315.22 35.4999C318.132 35.7511 320.992 36.4248 323.71 37.4999C326.415 38.5696 329.016 39.8851 331.48 41.4299C328.992 39.9356 326.375 38.6672 323.66 37.6399C320.942 36.6285 318.093 36.0123 315.2 35.8099C312.314 35.6164 309.417 35.8933 306.62 36.6299C303.822 37.3708 301.133 38.4734 298.62 39.9099C296.106 41.344 293.691 42.9443 291.39 44.6999C289.06 46.4299 286.81 48.2499 284.48 49.9999C282.188 51.8388 279.667 53.3717 276.98 54.5599C275.585 55.0887 274.102 55.3499 272.61 55.3299C271.13 55.3278 269.655 55.143 268.22 54.7799C265.383 54.0403 262.644 52.9661 260.06 51.5799C257.481 50.2146 254.98 48.7056 252.57 47.0599C247.75 43.7899 243.19 40.1699 238.71 36.4699C236.47 34.6199 234.25 32.7399 231.99 30.9199C229.732 29.1119 227.227 27.6369 224.55 26.5399C221.866 25.4452 219.042 24.7316 216.16 24.4199C214.719 24.2583 213.27 24.1914 211.82 24.2199C210.382 24.2369 208.948 24.3673 207.53 24.6099Z" fill="#37474F"/>
<path d="M243.6 157.24C242.859 159.188 242.283 161.195 241.88 163.24C241.459 165.272 241.211 167.336 241.14 169.41C240.92 173.546 241.685 177.676 243.37 181.46C244.231 183.332 245.352 185.072 246.7 186.63C247.373 187.411 248.091 188.152 248.85 188.85C249.23 189.19 249.64 189.5 250.04 189.85L250.63 190.34L251.27 190.79C254.695 193.151 258.462 194.972 262.44 196.19C261.44 195.9 260.44 195.62 259.44 195.31C258.44 195 257.44 194.61 256.5 194.19C255.56 193.77 254.58 193.36 253.68 192.82L252.3 192L250.99 191.13L250.33 190.7L249.71 190.21C249.3 189.88 248.88 189.56 248.48 189.21C247.698 188.503 246.957 187.751 246.26 186.96C244.862 185.369 243.697 183.588 242.8 181.67C241.096 177.794 240.358 173.563 240.65 169.34C240.902 165.163 241.901 161.064 243.6 157.24Z" fill="#37474F"/>
<path d="M288.26 160.2C294.545 163.543 301.223 166.086 308.14 167.77C315.02 169.571 322.194 169.966 329.23 168.93C332.728 168.334 336.106 167.172 339.23 165.49C339.62 165.28 340.02 165.09 340.4 164.86L341.5 164.13C342.254 163.67 342.972 163.155 343.65 162.59C344.32 162.02 345.03 161.49 345.65 160.89L347.51 159C347.821 158.688 348.108 158.354 348.37 158L349.2 157L350.03 156C350.29 155.64 350.52 155.26 350.76 154.9L352.21 152.67L353.45 150.33L354.07 149.16C354.26 148.76 354.42 148.34 354.59 147.94L355.59 145.49C355.768 145.086 355.922 144.672 356.05 144.25L356.47 142.99L357.31 140.47V140.33H357.44C361.29 138.662 365.019 136.727 368.6 134.54C372.196 132.368 375.662 129.987 378.98 127.41C389.027 119.731 397.465 110.149 403.81 99.2099C405.88 95.5492 407.711 91.7579 409.29 87.8599C412.398 80.029 414.456 71.821 415.41 63.4499C414.57 71.8481 412.616 80.0972 409.6 87.9799C408.034 91.8997 406.21 95.7114 404.14 99.3899C402.031 103.05 399.693 106.574 397.14 109.94C391.959 116.62 385.974 122.636 379.32 127.85C376.022 130.414 372.576 132.781 369 134.94C365.406 137.167 361.644 139.113 357.75 140.76L357.92 140.57L357.06 143.11L356.63 144.38C356.499 144.806 356.342 145.223 356.16 145.63L355.1 148.1C354.93 148.51 354.76 148.92 354.57 149.33L353.94 150.51L352.67 152.88L351.2 155.12C350.95 155.49 350.71 155.87 350.45 156.24L349.6 157.24L348.76 158.24C348.491 158.593 348.196 158.928 347.88 159.24L345.98 161.14C345.33 161.75 344.61 162.29 343.92 162.87C343.228 163.438 342.496 163.956 341.73 164.42L340.61 165.16C340.22 165.38 339.82 165.58 339.42 165.79C336.255 167.475 332.837 168.634 329.3 169.22C322.214 170.262 314.99 169.847 308.07 168C301.164 166.228 294.508 163.594 288.26 160.16V160.2Z" fill="#37474F"/>
<path d="M200.74 72.6999C202.731 75.8305 205.113 78.6937 207.83 81.2199C210.44 83.8599 213.12 86.4399 215.49 89.3299C216.705 90.762 217.752 92.329 218.61 93.9999C218.823 94.4248 219.01 94.8623 219.17 95.3099C219.352 95.7492 219.492 96.2045 219.59 96.6699C219.761 97.6032 219.838 98.5513 219.82 99.4999C219.599 103.231 219.016 106.931 218.08 110.55C217.23 114.17 216.3 117.76 215.5 121.38C214.619 124.985 214.109 128.671 213.98 132.38C213.97 133.296 214.03 134.212 214.16 135.12C214.337 136.018 214.564 136.907 214.84 137.78C215.427 139.527 216.205 141.204 217.16 142.78C219.082 145.96 221.706 148.658 224.83 150.67C221.618 148.749 218.902 146.102 216.9 142.94C215.907 141.367 215.088 139.691 214.46 137.94C214.162 137.048 213.915 136.14 213.72 135.22C213.578 134.29 213.502 133.351 213.49 132.41C213.483 130.541 213.627 128.675 213.92 126.83C214.19 124.98 214.55 123.15 214.92 121.34C215.7 117.7 216.62 114.1 217.45 110.49C218.388 106.914 218.984 103.258 219.23 99.5699C219.244 98.6624 219.177 97.7555 219.03 96.8599C218.93 96.4235 218.796 95.9955 218.63 95.5799C218.478 95.1498 218.301 94.7291 218.1 94.3199C217.266 92.6815 216.26 91.1362 215.1 89.7099C212.8 86.8199 210.16 84.1999 207.59 81.5199C206.32 80.1599 205.04 78.8099 203.87 77.3699C202.664 75.9286 201.615 74.3631 200.74 72.6999Z" fill="#37474F"/>
<path d="M344.22 133.53C348.005 132.589 351.718 131.38 355.33 129.91C358.954 128.485 362.493 126.852 365.93 125.02C372.817 121.392 379.258 116.972 385.12 111.85C388.042 109.285 390.807 106.547 393.4 103.65C395.958 100.72 398.346 97.6448 400.55 94.4399C402.726 91.2122 404.693 87.8487 406.44 84.3699C407.36 82.6499 408.12 80.8599 408.92 79.0799C409.34 78.1999 409.66 77.2799 410.02 76.3799L411.09 73.6499C408.657 81.0789 405.265 88.1587 401 94.7099C399.89 96.3199 398.82 97.9599 397.59 99.4799C396.36 101 395.14 102.53 393.88 104.03C391.284 106.959 388.516 109.731 385.59 112.33C379.668 117.455 373.159 121.859 366.2 125.45C362.726 127.241 359.15 128.827 355.49 130.2C351.823 131.594 348.056 132.708 344.22 133.53Z" fill="#37474F"/>
<path d="M343.72 59.6799C344.294 58.692 344.918 57.7341 345.59 56.8099C346.257 55.8766 346.923 54.9566 347.59 54.0499C348.963 52.2299 350.39 50.4532 351.87 48.7199C354.829 45.2413 358.026 41.9733 361.44 38.9399C364.842 35.8776 368.567 33.1951 372.55 30.9399C376.536 28.6319 380.923 27.1014 385.48 26.4299C390.058 26.0492 394.666 26.339 399.16 27.2899C403.65 28.1399 408.06 29.2899 412.49 30.2899C414.698 30.8065 416.936 31.1906 419.19 31.4399C421.435 31.7203 423.711 31.5915 425.91 31.0599C428.111 30.4927 430.065 29.2171 431.47 27.4299C432.837 25.6052 433.838 23.5341 434.42 21.3299C433.886 23.557 432.925 25.6593 431.59 27.5199C430.206 29.3925 428.24 30.7535 426 31.3899C423.768 31.9634 421.45 32.126 419.16 31.8699C416.884 31.6458 414.623 31.2851 412.39 30.7899C407.92 29.8599 403.52 28.6699 399.05 27.8599C394.616 26.941 390.072 26.6715 385.56 27.0599C381.077 27.6963 376.756 29.1829 372.83 31.4399C368.877 33.6719 365.167 36.3095 361.76 39.3099C358.324 42.2889 355.097 45.4997 352.1 48.9199C350.59 50.6199 349.1 52.3599 347.71 54.1499C347 55.0399 346.31 55.9399 345.64 56.8599C344.97 57.7799 344.3 58.6899 343.72 59.6799Z" fill="#37474F"/>
<path d="M318.19 174.18C315.991 175.007 313.717 175.616 311.4 176C309.087 176.405 306.747 176.635 304.4 176.69C299.68 176.787 294.97 176.235 290.4 175.05C281.269 172.558 272.861 167.931 265.87 161.55C262.406 158.354 259.289 154.801 256.57 150.95C255.18 149.05 253.94 147.05 252.72 145.03C251.5 143.01 250.42 140.93 249.42 138.81C245.333 130.319 242.465 121.293 240.9 112C241.771 116.609 242.978 121.147 244.51 125.58C246 130.028 247.787 134.372 249.86 138.58C253.898 147.034 259.477 154.661 266.31 161.07C273.216 167.408 281.516 172.033 290.54 174.57C295.053 175.801 299.712 176.41 304.39 176.38C306.733 176.37 309.073 176.19 311.39 175.84C313.705 175.508 315.982 174.952 318.19 174.18Z" fill="#37474F"/>
<path d="M442.58 325.63C439.38 325.41 358.98 292.27 356.71 289.07C356.47 288.72 358.18 285.29 361.2 275.76C361.35 275.3 360.33 272.76 358.62 269.14C352.19 255.41 336.1 225.28 336.1 225.28L391.3 209.42L412 264.58L417.38 278.93C417.38 278.93 442.41 309.2 444.53 313C446.65 316.8 445.77 325.85 442.58 325.63Z" fill="#D3766A"/>
<path d="M442.57 325.63C439.38 325.41 358.97 292.27 356.71 289.07C356.47 288.72 358.18 285.28 361.21 275.76C374.48 282.69 430.21 311.54 434.5 309.01C437.06 307.5 435.5 302.74 433.35 298.54C438.74 305.23 443.64 311.43 444.52 313.01C446.62 316.76 445.78 325.85 442.57 325.63Z" fill="#263238"/>
<path d="M406.21 240.64L396.92 244.74L367 258L350.64 265.24C350.64 265.24 328.64 209.17 317.07 193.53C316.42 192.633 315.697 191.79 314.91 191.01C313.634 190.277 312.234 189.786 310.78 189.56C293.64 185.87 234.78 186.21 194.68 179.92L200.68 144.37L224.68 143.55C225.68 144.81 229.05 148.15 230.41 147.98C274.05 142.53 330.29 132.64 352.55 146.48C378.49 162.59 406.21 240.64 406.21 240.64Z" fill="#37474F"/>
<path d="M397.87 233.69C388.53 237.52 391.16 236.3 381.87 240.23C377.33 242.15 354.44 251.76 350.5 254.23C350.41 254.29 350.5 254.44 350.57 254.41C355.1 253.24 377.77 243.14 382.28 241.13C391.5 237.03 388.81 238.13 397.99 233.92C398.008 233.899 398.019 233.873 398.022 233.845C398.025 233.817 398.02 233.789 398.007 233.765C397.994 233.74 397.975 233.72 397.95 233.706C397.926 233.693 397.898 233.687 397.87 233.69Z" fill="#263238"/>
<path d="M367 258L350.64 265.24C350.64 265.24 328.64 209.17 317.07 193.53L367 258Z" fill="#263238"/>
<path d="M356.71 258.34C351.09 246.64 325.88 189.11 320.06 186.41C314.77 183.95 205.06 176.21 203.42 176.07C203.31 176.07 203.28 176.24 203.42 176.25C216.42 177.25 316.53 186.07 319.29 187.46C325.01 190.35 355.29 257.18 356.09 258.58C356.28 259 356.9 258.74 356.71 258.34Z" fill="#263238"/>
<path d="M155.07 145.83C155.07 145.83 148.21 185.12 163.14 203.35C184.19 229.06 319.54 222.09 340.14 215.43C360.74 208.77 361.38 175.54 338.87 167.84C317.45 160.52 222.49 156.31 220.25 155.41C218.01 154.51 211.07 143.92 211.07 143.92L155.07 145.83Z" fill="#37474F"/>
<path d="M181.28 156.75C181.28 156.59 181.01 156.64 181.01 156.75C181.009 161.054 179.494 165.22 176.73 168.52C173.57 172.16 168.92 174.2 164.73 176.33C164.32 176.54 164.63 177.17 165.05 177.04C167.639 176.246 170.133 175.173 172.49 173.84C174.651 172.683 176.555 171.101 178.09 169.19C179.452 167.449 180.439 165.445 180.988 163.304C181.537 161.163 181.636 158.931 181.28 156.75Z" fill="#263238"/>
<path d="M219.33 153.35C218.39 152.14 217.33 151 216.33 149.83C214.01 147.07 211.68 144.3 209.25 141.64C209.02 141.38 208.57 141.74 208.78 142.02C210.42 144.16 212.15 146.23 213.86 148.32C214.73 149.39 215.61 150.46 216.49 151.52C217.412 152.475 218.236 153.52 218.95 154.64C219.59 155.83 218.75 156.84 217.52 156.97C216.416 157.012 215.339 156.621 214.52 155.88C212.6 154.41 211.09 152.3 209.52 150.51C208.52 149.41 207.52 148.31 206.58 147.23C205.64 146.15 204.4 144.98 203.35 143.82C203.334 143.801 203.311 143.79 203.287 143.788C203.263 143.786 203.239 143.794 203.22 143.81C203.201 143.826 203.19 143.848 203.188 143.873C203.186 143.897 203.194 143.921 203.21 143.94C204.13 145.19 204.98 146.51 205.9 147.78C206.82 149.05 207.75 150.29 208.7 151.53C209.65 152.77 210.53 153.85 211.49 154.98C212.285 155.976 213.242 156.831 214.32 157.51C216.08 158.51 219.14 158.77 220.08 156.51C220.247 155.964 220.266 155.384 220.134 154.828C220.002 154.273 219.725 153.762 219.33 153.35Z" fill="#263238"/>
<path d="M337.31 215.56C330.22 215.69 323.14 216.1 316.05 216.25C308.96 216.4 301.98 216.44 294.94 216.38C280.813 216.24 266.697 215.69 252.59 214.73C238.34 213.73 222.98 212.33 208.83 210.37C202.06 209.43 195.19 208.65 188.5 207.21C182.495 206.06 176.944 203.218 172.5 199.02C163.34 190.13 159.77 177.02 158.31 164.58C158.11 162.9 157.95 161.22 157.82 159.58C157.82 159.47 157.63 159.47 157.64 159.58C158.47 172.39 160.46 185.74 168.51 196.03C171.911 200.519 176.437 204.03 181.63 206.21C187.97 208.75 195 209.35 201.69 210.26C215.9 212.18 231.32 213.67 245.61 214.78C259.9 215.89 274.41 216.59 288.83 216.78C303.25 216.97 317.68 216.78 332.08 216.08C333.84 216 335.59 215.89 337.35 215.74C337.374 215.735 337.395 215.72 337.408 215.699C337.421 215.679 337.425 215.654 337.42 215.63C337.415 215.606 337.4 215.585 337.38 215.572C337.359 215.559 337.334 215.555 337.31 215.56Z" fill="#263238"/>
<path d="M356.25 184.57C354.893 179.012 351.504 174.163 346.75 170.98C341.65 167.5 335.54 165.91 329.5 165.03C322.66 164.03 315.74 163.53 308.86 162.86C294.747 161.487 280.63 160.223 266.51 159.07C252.39 157.91 221.99 155.54 220.28 155.48C220.13 155.48 220.1 155.73 220.28 155.74C233.91 157.26 246.28 158.56 259.96 159.8C273.64 161.04 287.4 162.35 301.11 163.71C307.943 164.377 314.773 165.063 321.6 165.77C327.93 166.42 334.44 167.07 340.38 169.51C345.47 171.61 350.05 174.98 352.64 179.94C355.044 184.824 355.748 190.37 354.64 195.7C353.699 200.65 351.424 205.249 348.06 209C344.821 212.707 340.508 215.315 335.72 216.46C334.47 216.72 332.96 216.92 331.81 217.15C331.72 217.15 331.63 217.35 331.72 217.35C341.93 217.61 351.37 210.16 355.06 200.83C357.102 195.657 357.517 189.985 356.25 184.57Z" fill="#263238"/>
<path d="M205.93 94.4499C211.24 108.12 232.72 149.45 246.5 151.45C255.55 152.72 296.43 153.73 302 144.76C304.42 140.85 294.7 113.99 290 115.37C285.3 116.75 254.79 116.88 251.17 116.12C247.55 115.36 225.83 89.8699 215.09 80.8699C198.5 66.9999 201.76 83.7099 205.93 94.4499Z" fill="#D3766A"/>
<path d="M218.23 127.48L238.44 100.39C238.44 100.39 223.94 84.4799 212.81 77.3899C204.31 71.9999 200.65 76.3899 202.01 82.8999C206.56 104.71 218.23 127.48 218.23 127.48Z" fill="#4A26AB"/>
<path d="M233.33 98.0499C229.92 102 221 113 216.12 120.88C216.12 120.93 216.26 121.06 216.3 121.02C221.3 115.02 230.53 102.48 233.58 98.2499C233.64 98.1699 233.39 97.9999 233.33 98.0499Z" fill="#263238"/>
<path d="M210.52 86.63C210.52 86.8618 210.451 87.0884 210.322 87.281C210.193 87.4737 210.01 87.6236 209.795 87.7119C209.581 87.8001 209.345 87.8227 209.118 87.7767C208.891 87.7308 208.682 87.6183 208.519 87.4537C208.356 87.2891 208.245 87.0797 208.201 86.8521C208.157 86.6245 208.182 86.3889 208.272 86.1753C208.362 85.9617 208.514 85.7796 208.707 85.6523C208.901 85.5249 209.128 85.458 209.36 85.46C209.513 85.46 209.665 85.4903 209.806 85.5492C209.948 85.6082 210.076 85.6945 210.184 85.8033C210.292 85.9121 210.377 86.0411 210.435 86.183C210.492 86.3249 210.521 86.4768 210.52 86.63ZM221.6 106C221.368 106 221.142 106.069 220.949 106.198C220.756 106.327 220.606 106.51 220.518 106.725C220.43 106.939 220.407 107.175 220.453 107.402C220.499 107.629 220.612 107.838 220.776 108.001C220.941 108.164 221.15 108.275 221.378 108.319C221.606 108.363 221.841 108.338 222.055 108.248C222.268 108.158 222.45 108.006 222.578 107.813C222.705 107.619 222.772 107.392 222.77 107.16C222.77 107.007 222.74 106.855 222.681 106.714C222.622 106.572 222.535 106.444 222.427 106.336C222.318 106.228 222.189 106.143 222.047 106.085C221.905 106.028 221.753 105.999 221.6 106Z" fill="white"/>
<path opacity="0.1" d="M232.16 108.8L218.23 127.48C218.23 127.48 206.57 104.71 202 82.9099C201.2 79.1199 202.11 76.0599 204.67 75.2199L232.16 108.8Z" fill="black"/>
<path d="M222.24 130.5L224.55 143.5L155.07 145.87C155.07 145.87 169.55 92.2199 182.92 78.4799C191.97 69.1799 202.26 70.1799 208.65 77.0299C210.27 78.7599 225.65 101.64 227.46 111.72C229 120.57 222.24 130.5 222.24 130.5Z" fill="#D3766A"/>
<path d="M157.78 131.6L206.05 131.31L224.3 136.82L222.24 130.5C222.24 130.5 229.03 120.58 227.46 111.68C225.64 101.6 210.26 78.6799 208.65 76.9799C202.26 70.1299 191.96 69.1499 182.92 78.4399C173.65 87.9999 162.78 115.53 157.78 131.6Z" fill="#4A26AB"/>
<path d="M186 86.63C186 86.8614 185.931 87.0876 185.803 87.28C185.674 87.4724 185.492 87.6224 185.278 87.7109C185.064 87.7995 184.829 87.8227 184.602 87.7775C184.375 87.7324 184.166 87.6209 184.003 87.4573C183.839 87.2937 183.728 87.0852 183.683 86.8583C183.637 86.6313 183.661 86.3961 183.749 86.1823C183.838 85.9685 183.988 85.7857 184.18 85.6572C184.372 85.5286 184.599 85.46 184.83 85.46C185.14 85.46 185.438 85.5833 185.657 85.8027C185.877 86.0221 186 86.3197 186 86.63ZM209.32 85.46C209.088 85.458 208.861 85.5249 208.667 85.6523C208.474 85.7796 208.322 85.9617 208.232 86.1753C208.142 86.3889 208.117 86.6245 208.161 86.8521C208.205 87.0797 208.316 87.2891 208.479 87.4537C208.642 87.6183 208.851 87.7308 209.078 87.7767C209.305 87.8227 209.541 87.8001 209.755 87.7119C209.97 87.6236 210.153 87.4737 210.282 87.281C210.411 87.0884 210.48 86.8618 210.48 86.63C210.48 86.3282 210.364 86.0379 210.155 85.8199C209.946 85.6018 209.662 85.4729 209.36 85.46H209.32ZM160.32 126.25C160.089 126.25 159.862 126.319 159.67 126.447C159.478 126.576 159.328 126.758 159.239 126.972C159.151 127.186 159.127 127.421 159.173 127.648C159.218 127.875 159.329 128.084 159.493 128.247C159.656 128.411 159.865 128.522 160.092 128.568C160.319 128.613 160.554 128.589 160.768 128.501C160.982 128.412 161.164 128.262 161.293 128.07C161.421 127.878 161.49 127.651 161.49 127.42C161.493 127.119 161.379 126.829 161.172 126.611C160.964 126.392 160.681 126.263 160.38 126.25H160.32ZM184.81 126.25C184.579 126.25 184.352 126.319 184.16 126.447C183.968 126.576 183.818 126.758 183.729 126.972C183.641 127.186 183.617 127.421 183.662 127.648C183.708 127.875 183.819 128.084 183.983 128.247C184.146 128.411 184.355 128.522 184.582 128.568C184.809 128.613 185.044 128.589 185.258 128.501C185.472 128.412 185.654 128.262 185.783 128.07C185.911 127.878 185.98 127.651 185.98 127.42C185.983 127.119 185.869 126.829 185.662 126.611C185.455 126.392 185.171 126.263 184.87 126.25H184.81ZM209.3 126.25C209.068 126.248 208.841 126.315 208.647 126.442C208.454 126.57 208.302 126.752 208.212 126.965C208.122 127.179 208.097 127.414 208.141 127.642C208.185 127.87 208.296 128.079 208.459 128.244C208.622 128.408 208.831 128.521 209.058 128.567C209.285 128.613 209.521 128.59 209.735 128.502C209.95 128.414 210.133 128.264 210.262 128.071C210.391 127.878 210.46 127.652 210.46 127.42C210.461 127.121 210.347 126.834 210.142 126.616C209.938 126.399 209.658 126.268 209.36 126.25H209.3ZM172.63 106C172.398 105.998 172.17 106.065 171.976 106.193C171.782 106.321 171.631 106.503 171.541 106.718C171.451 106.932 171.427 107.168 171.472 107.396C171.517 107.624 171.629 107.833 171.793 107.997C171.957 108.161 172.166 108.273 172.394 108.318C172.622 108.363 172.858 108.339 173.072 108.249C173.287 108.159 173.469 108.008 173.597 107.814C173.725 107.62 173.792 107.392 173.79 107.16C173.79 106.852 173.668 106.557 173.45 106.34C173.233 106.122 172.938 106 172.63 106ZM197.11 106C196.878 106 196.652 106.069 196.459 106.198C196.266 106.327 196.116 106.51 196.028 106.725C195.94 106.939 195.917 107.175 195.963 107.402C196.009 107.629 196.122 107.838 196.286 108.001C196.451 108.164 196.66 108.275 196.888 108.319C197.116 108.363 197.351 108.338 197.565 108.248C197.778 108.158 197.96 108.006 198.088 107.813C198.215 107.619 198.282 107.392 198.28 107.16C198.28 107.007 198.25 106.855 198.191 106.714C198.132 106.572 198.046 106.444 197.937 106.336C197.828 106.228 197.699 106.143 197.557 106.085C197.415 106.028 197.263 105.999 197.11 106ZM221.6 106C221.368 106 221.142 106.069 220.949 106.198C220.756 106.327 220.606 106.51 220.518 106.725C220.43 106.939 220.407 107.175 220.453 107.402C220.499 107.629 220.612 107.838 220.776 108.001C220.941 108.164 221.15 108.275 221.378 108.319C221.606 108.363 221.841 108.338 222.055 108.248C222.268 108.158 222.45 108.006 222.578 107.813C222.705 107.619 222.772 107.392 222.77 107.16C222.77 107.007 222.74 106.855 222.681 106.714C222.622 106.572 222.536 106.444 222.427 106.336C222.318 106.228 222.189 106.143 222.047 106.085C221.905 106.028 221.753 105.999 221.6 106Z" fill="white"/>
<path d="M199.15 124.58C202.172 124.932 205.157 125.551 208.07 126.43C209.53 126.9 210.95 127.43 212.37 128.02C213.08 128.31 213.8 128.57 214.51 128.82C215.246 129.115 216.021 129.3 216.81 129.37C216.88 129.37 216.88 129.5 216.81 129.5C216.069 129.542 215.327 129.518 214.59 129.43C213.876 129.327 213.173 129.16 212.49 128.93C211.01 128.48 209.55 127.93 208.08 127.47C205.08 126.52 202.14 125.57 199.08 124.88C199 124.85 199 124.56 199.15 124.58Z" fill="#263238"/>
<path d="M191.71 127.77C194.185 127.469 196.677 127.342 199.17 127.39C200.414 127.421 201.656 127.518 202.89 127.68C203.48 127.76 204.08 127.84 204.67 127.94C205.26 128.04 205.95 128.26 206.6 128.35C206.67 128.35 206.67 128.49 206.6 128.48C205.99 128.41 205.36 128.48 204.74 128.48L202.88 128.41C201.64 128.41 200.4 128.33 199.16 128.27C196.67 128.15 194.16 128.06 191.71 128.05C191.57 128 191.58 127.78 191.71 127.77Z" fill="#263238"/>
<path d="M207.72 134.13C207.346 134.329 207.024 134.613 206.78 134.96C206.529 135.291 206.33 135.659 206.19 136.05C205.908 136.824 205.793 137.648 205.85 138.47C205.85 138.86 206.06 139.2 206.35 139.26C206.64 139.32 206.91 139.09 207.06 138.72C207.197 138.332 207.258 137.921 207.24 137.51C207.253 137.086 207.157 136.666 206.96 136.29C207.227 136.651 207.407 137.069 207.485 137.512C207.564 137.954 207.538 138.409 207.41 138.84C207.348 139.084 207.224 139.308 207.05 139.49C206.944 139.588 206.816 139.659 206.677 139.698C206.538 139.736 206.391 139.74 206.25 139.71C206.113 139.682 205.984 139.626 205.87 139.545C205.757 139.464 205.661 139.36 205.59 139.24C205.464 139.022 205.386 138.78 205.36 138.53C205.314 138.076 205.335 137.618 205.42 137.17C205.484 136.724 205.612 136.289 205.8 135.88C205.979 135.469 206.242 135.101 206.573 134.8C206.904 134.498 207.295 134.27 207.72 134.13Z" fill="#263238"/>
<path d="M194.86 74.4598C194.68 76.4598 196.76 86.1298 202.52 87.5198C205.52 88.2298 208.37 77.9698 208.37 77.9698L208.72 77.2598L213.66 67.2598L201.66 54.7698C201.66 54.7698 194.91 73.8998 194.86 74.4598Z" fill="#D3766A"/>
<path d="M199.13 61.9C199.575 64.9868 200.658 67.947 202.311 70.5917C203.964 73.2363 206.15 75.5074 208.73 77.26L213.67 67.26L201.67 54.76C201.67 54.76 200.47 58 199.13 61.9Z" fill="#263238"/>
<path d="M233 55.12C229.45 74.39 217.51 74.45 213.36 73.68C209.58 72.98 196.83 70.12 198.36 50.59C199.89 31.06 209.97 26.59 218.68 27.74C227.39 28.89 236.52 35.84 233 55.12Z" fill="#D3766A"/>
<path d="M199.54 50.3499C202.92 51.8299 206.19 44.0599 206.19 44.0599C206.19 44.0599 221.88 45.9199 226.73 34.1199C227.159 39.6295 229.694 44.7618 233.81 48.4499C233.81 48.4499 237.22 34.9399 227.4 29.2399C227.4 29.2399 215.67 20.5999 205.22 28.8499C194.77 37.0999 197.27 49.3599 199.54 50.3499Z" fill="#263238"/>
<path d="M227.05 33.2299C226.672 35.1593 225.888 36.9863 224.75 38.5899C223.623 40.2324 222.169 41.6248 220.48 42.6799C220.059 42.944 219.621 43.1812 219.17 43.3899L218.51 43.7299L217.81 43.9899C217.35 44.1499 216.88 44.3299 216.41 44.4699L214.96 44.7799L214.24 44.9199L213.51 44.9799L212.04 45.0999C211.04 45.0999 210.09 45.0199 209.13 44.9399C210.13 44.8199 211.06 44.7999 212.01 44.6699L213.43 44.4299L214.13 44.3099L214.82 44.1199C215.27 43.9799 215.73 43.8499 216.19 43.7299C216.65 43.6099 217.06 43.3899 217.5 43.2099L218.16 42.9499L218.78 42.6199C219.204 42.4155 219.615 42.1851 220.01 41.9299C221.612 40.9307 223.032 39.666 224.21 38.1899C224.808 37.449 225.343 36.6596 225.81 35.8299C226.297 35.0004 226.712 34.1305 227.05 33.2299Z" fill="#263238"/>
<path d="M201.66 51.7299C201.66 51.7299 199.15 44.7299 196.07 45.4399C192.99 46.1499 193.74 55.5699 196.56 57.6099C196.905 57.8944 197.303 58.1066 197.732 58.2338C198.161 58.3609 198.61 58.4005 199.055 58.3501C199.499 58.2997 199.928 58.1604 200.318 57.9404C200.707 57.7205 201.048 57.4244 201.32 57.0699L201.66 51.7299Z" fill="#D3766A"/>
<path d="M196.36 48.1299C196.31 48.1299 196.28 48.1799 196.36 48.2099C198.36 49.6999 198.91 52.0599 199.14 54.4099C199.073 54.1536 198.951 53.9149 198.782 53.7104C198.614 53.5058 198.403 53.3403 198.164 53.2253C197.926 53.1102 197.665 53.0483 197.4 53.044C197.135 53.0396 196.872 53.0928 196.63 53.1999C196.57 53.1999 196.63 53.3299 196.63 53.3299C197.056 53.3016 197.481 53.4106 197.841 53.641C198.2 53.8713 198.477 54.2109 198.63 54.6099C198.882 55.2558 199.066 55.9261 199.18 56.6099C199.18 56.8299 199.61 56.8299 199.6 56.6099V56.5499C200.4 53.7699 199.29 49.2399 196.36 48.1299Z" fill="#263238"/>
<path d="M197.11 56.9999C197.106 57.1688 197.152 57.335 197.243 57.4774C197.334 57.6198 197.466 57.7319 197.621 57.7993C197.776 57.8667 197.947 57.8864 198.113 57.8559C198.279 57.8254 198.433 57.7461 198.554 57.628C198.674 57.51 198.757 57.3586 198.792 57.1932C198.826 57.0278 198.811 56.8559 198.747 56.6994C198.683 56.5429 198.574 56.4089 198.434 56.3146C198.294 56.2203 198.129 56.1699 197.96 56.1699C197.85 56.1685 197.74 56.189 197.638 56.23C197.535 56.271 197.442 56.3317 197.363 56.4088C197.284 56.4859 197.221 56.5777 197.178 56.6792C197.134 56.7806 197.111 56.8895 197.11 56.9999Z" fill="#455A64"/>
<path d="M197.56 56.9999C197.575 57.0939 197.623 57.1794 197.695 57.2412C197.768 57.3029 197.86 57.3369 197.955 57.3369C198.05 57.3369 198.142 57.3029 198.215 57.2412C198.287 57.1794 198.335 57.0939 198.35 56.9999C198.351 56.9479 198.342 56.8961 198.323 56.8476C198.304 56.7991 198.276 56.7549 198.239 56.7177C198.203 56.6804 198.16 56.6508 198.112 56.6305C198.064 56.6103 198.012 56.5999 197.96 56.5999C197.907 56.5999 197.855 56.6103 197.807 56.6304C197.758 56.6505 197.714 56.6799 197.677 56.7171C197.64 56.7542 197.611 56.7983 197.59 56.8468C197.57 56.8954 197.56 56.9474 197.56 56.9999Z" fill="#263238"/>
<path d="M196 55.6199C196.019 55.7644 196.09 55.8972 196.199 55.9933C196.308 56.0895 196.449 56.1426 196.595 56.1426C196.741 56.1426 196.882 56.0895 196.991 55.9933C197.1 55.8972 197.171 55.7644 197.19 55.6199C197.171 55.4753 197.1 55.3426 196.991 55.2464C196.882 55.1502 196.741 55.0972 196.595 55.0972C196.449 55.0972 196.308 55.1502 196.199 55.2464C196.09 55.3426 196.019 55.4753 196 55.6199Z" fill="#455A64"/>
<path d="M230.07 51.8499C229.643 51.686 229.226 51.4991 228.82 51.2899C228.355 51.1536 227.948 50.8692 227.66 50.4799C227.594 50.3394 227.576 50.1813 227.609 50.0296C227.641 49.8779 227.722 49.741 227.84 49.6399C228.108 49.4825 228.414 49.3996 228.725 49.3996C229.036 49.3996 229.342 49.4825 229.61 49.6399C230.205 49.867 230.696 50.3047 230.99 50.8699C231.039 51.0008 231.05 51.1428 231.023 51.2798C230.995 51.4169 230.93 51.5435 230.834 51.6454C230.738 51.7473 230.616 51.8204 230.481 51.8565C230.346 51.8927 230.204 51.8904 230.07 51.8499Z" fill="#263238"/>
<path d="M216.41 48.5499C216.866 48.5749 217.324 48.5749 217.78 48.5499C218.259 48.6171 218.747 48.5257 219.17 48.2899C219.291 48.1908 219.374 48.0539 219.407 47.9013C219.439 47.7488 219.419 47.5896 219.35 47.4499C219.178 47.1916 218.94 46.9846 218.66 46.8508C218.38 46.717 218.069 46.6614 217.76 46.6899C217.123 46.6429 216.492 46.8355 215.99 47.2299C215.881 47.3277 215.803 47.4547 215.765 47.5958C215.726 47.7369 215.73 47.8861 215.774 48.0255C215.818 48.1648 215.902 48.2884 216.015 48.3814C216.127 48.4744 216.265 48.5329 216.41 48.5499Z" fill="#263238"/>
<path d="M218.41 53.2299C218.41 53.2299 218.29 53.2299 218.29 53.3299C218.07 54.6599 217.61 56.1499 216.29 56.3299C216.29 56.3299 216.24 56.3999 216.29 56.3999C217.82 56.5099 218.42 54.5199 218.41 53.2299Z" fill="#263238"/>
<path d="M217.49 51.6199C215.4 51.0499 214.41 55.2899 216.36 55.8099C218.31 56.3299 219.25 52.0999 217.49 51.6199Z" fill="#263238"/>
<path d="M216.61 51.6499C216.18 51.8099 215.72 52.1499 215.27 52.0899C214.82 52.0299 214.45 51.4799 214.22 50.9799C214.22 50.9799 214.15 50.9799 214.13 50.9799C213.987 51.3483 213.986 51.7564 214.127 52.1256C214.267 52.4949 214.539 52.7992 214.89 52.9799C215.66 53.2699 216.4 52.6899 216.79 51.9199C216.86 51.8399 216.78 51.5899 216.61 51.6499Z" fill="#263238"/>
<path d="M226.32 54.4399C226.32 54.4399 226.42 54.5199 226.4 54.5799C226.13 55.8999 226.03 57.4499 227.15 58.1099C227.15 58.1099 227.15 58.1899 227.15 58.1799C225.7 57.7099 225.85 55.6499 226.32 54.4399Z" fill="#263238"/>
<path d="M227.75 53.2699C229.91 53.4899 229.32 57.7899 227.32 57.5899C225.32 57.3899 225.94 53.0899 227.75 53.2699Z" fill="#263238"/>
<path d="M228.57 53.6099C228.91 53.9099 229.22 54.3899 229.67 54.4999C230.12 54.6099 230.67 54.2299 231.05 53.8399C231.05 53.8399 231.12 53.8399 231.11 53.8999C231.01 54.7299 230.58 55.5299 229.67 55.5299C228.76 55.5299 228.37 54.7199 228.28 53.8599C228.27 53.6999 228.43 53.4899 228.57 53.6099Z" fill="#263238"/>
<path d="M214.42 63.5099C214.64 63.8999 214.82 64.4099 215.28 64.5899C215.761 64.7246 216.266 64.7553 216.76 64.6799V64.7599C216.513 64.9496 216.221 65.0715 215.912 65.1136C215.603 65.1557 215.289 65.1165 215 64.9999C214.758 64.8539 214.564 64.6389 214.445 64.3823C214.325 64.1257 214.285 63.8393 214.33 63.5599C214.28 63.4499 214.39 63.4499 214.42 63.5099Z" fill="#263238"/>
<path d="M222.3 60.1399C222.3 60.1399 222 62.1399 221.73 63.0499C221.73 63.1299 221.48 63.1099 221.16 63.0499C220.34 62.9595 219.561 62.6461 218.907 62.1436C218.252 61.6411 217.749 60.9688 217.45 60.1999C217.448 60.1795 217.453 60.159 217.463 60.1412C217.473 60.1234 217.488 60.1092 217.507 60.1004C217.526 60.0917 217.546 60.0889 217.567 60.0924C217.587 60.0958 217.605 60.1055 217.62 60.1199C218.545 61.2475 219.807 62.0499 221.22 62.4099C221.36 62.1699 221.62 58.9699 221.77 58.9999C222.455 59.2695 223.1 59.6294 223.69 60.0699C224.44 55.9299 224.51 51.6999 225.32 47.5799C225.32 47.5454 225.334 47.5123 225.358 47.488C225.382 47.4636 225.416 47.4499 225.45 47.4499C225.484 47.4499 225.518 47.4636 225.542 47.488C225.566 47.5123 225.58 47.5454 225.58 47.5799C225.81 52.0199 225.05 56.8099 224.39 61.1099C224.28 61.6399 222.62 60.4099 222.3 60.1399Z" fill="#263238"/>
<path d="M220.65 62.4799C220.031 62.9919 219.291 63.3362 218.5 63.4799C218.071 63.5442 217.632 63.467 217.25 63.2599C216.41 62.8099 216.58 61.9899 216.91 61.3299C217.087 60.9702 217.309 60.6342 217.57 60.3299C218.34 61.3577 219.42 62.1113 220.65 62.4799Z" fill="#263238"/>
<path d="M218.5 63.4499C218.071 63.5142 217.632 63.437 217.25 63.2299C216.41 62.7799 216.58 61.9599 216.91 61.2999C217.379 61.4261 217.791 61.7073 218.08 62.0977C218.369 62.4881 218.517 62.9647 218.5 63.4499Z" fill="#FF99BA"/>
<path d="M242.87 132.92C243.64 137.51 230.44 138.56 227.26 139.51C224.08 140.46 223.75 141.38 225.54 142.06C225.909 142.163 226.288 142.227 226.67 142.25C221.44 142.07 203.74 139.08 203.74 139.08C203.74 139.08 213.21 134.08 218.34 132.08C223.47 130.08 242.1 128.31 242.87 132.92Z" fill="#D3766A"/>
<path d="M278.09 109.58C280.709 107.699 283.526 106.11 286.49 104.84C290.42 103.35 299.07 100.84 300.59 99.9899L303.23 99.6999L288.6 155L265.44 162.32L226 153.72L237.55 101.25L240.22 100.92C240.22 100.92 245.22 102.21 249.38 102.86C253.54 103.51 267.66 103.33 278.09 109.58Z" fill="white"/>
<path d="M262.03 163.93L274.95 110.71L235.83 100.82L223.77 155.07L262.03 163.93Z" fill="#4A26AB"/>
<path opacity="0.2" d="M262.03 163.93L274.95 110.71L235.83 100.82L223.77 155.07L262.03 163.93Z" fill="black"/>
<path d="M262.03 163.93H267.66L280.64 110.71H274.95L262.03 163.93Z" fill="#4A26AB"/>
<path opacity="0.1" d="M262.03 163.93H267.66L280.64 110.71H274.95L262.03 163.93Z" fill="black"/>
<path d="M267.66 163.93L280.64 110.71L304.35 99.1599L289.25 155.49L267.66 163.93Z" fill="#4A26AB"/>
<path opacity="0.2" d="M267.66 163.93L280.64 110.71L304.35 99.1599L289.25 155.49L267.66 163.93Z" fill="black"/>
<path d="M255.93 149.45C256.41 153.55 250.34 155.97 249.93 156.12C250.31 156.02 255.82 154.51 256 158.62C256.18 162.73 251 165.97 251 165.97C251 165.97 253 166.62 251.82 169.69C250.07 174.08 240.28 176.99 234.82 177.3C229.36 177.61 208.13 174.24 205.03 173.74L203.72 139.08C203.72 139.08 221.42 142.08 226.65 142.25H226.72C230.35 142.475 233.99 142.475 237.62 142.25C243.35 141.7 250.43 136.25 252.08 140.19C253.55 143.71 248.27 147.02 248.27 147.02C248.27 147.02 255.44 145.22 255.93 149.45Z" fill="#D3766A"/>
<path d="M248 147.06C240.33 151.15 236.26 151.61 227.73 150.97C227.56 150.97 227.5 151.21 227.73 151.24C236.03 152.61 241.21 152.77 248.27 147.42C248.53 147.16 248.33 146.86 248 147.06Z" fill="#263238"/>
<path d="M250.2 155.88C241.86 159.43 237.46 159.97 228.47 159.97C228.441 159.97 228.413 159.981 228.392 160.002C228.372 160.023 228.36 160.051 228.36 160.08C228.36 160.109 228.372 160.137 228.392 160.158C228.413 160.178 228.441 160.19 228.47 160.19C237.28 160.93 242.47 160.97 250.32 156.33C250.67 156.12 250.58 155.72 250.2 155.88Z" fill="#263238"/>
<path d="M250.91 165.94C242.59 168.79 237.78 169.59 229.06 168.47C229.018 168.462 228.974 168.471 228.938 168.496C228.902 168.52 228.878 168.557 228.87 168.6C228.862 168.642 228.871 168.686 228.896 168.722C228.92 168.757 228.958 168.782 229 168.79C237.78 170.79 243.78 169.84 251 166.2C251.46 166 251.43 165.76 250.91 165.94Z" fill="#263238"/>
<path d="M304.78 111.12C306.14 115.74 310.42 121.89 310.28 125.46C310.276 126.342 309.987 127.2 309.458 127.906C308.929 128.612 308.186 129.129 307.34 129.38C307.34 129.38 310.56 131.69 309.9 134.91C309.56 136.57 306.62 137.48 306.62 137.48C306.62 137.48 309.12 139.48 308.35 142.27C307.74 144.53 304.88 145.1 304.88 145.1C304.88 145.1 306.4 148.1 305.05 150.2C302.29 154.45 282.5 151.29 280.6 143.51C279.72 139.89 284.51 140.92 284.51 140.92C284.51 140.92 277.98 137.77 278.51 133.67C279.04 129.57 285.2 131.29 285.2 131.29C285.2 131.29 278.9 128.18 279.89 123.99C280.89 119.63 286.78 122.4 286.78 122.4C286.78 122.4 282.86 118.71 284.36 115.68C286.83 110.68 294.1 118.63 298.62 118.29L302.16 111.5L304.78 111.12Z" fill="#D3766A"/>
<path d="M307.76 118C306.86 113.52 312.93 109.13 312.69 104.71C312.36 98.7099 304.97 103.36 302.18 111.51L301.18 118.22L307.76 118Z" fill="#D3766A"/>
<path d="M304.44 145.26C304.451 145.265 304.46 145.272 304.466 145.282C304.473 145.292 304.476 145.303 304.476 145.315C304.476 145.327 304.473 145.338 304.466 145.348C304.46 145.358 304.451 145.365 304.44 145.37C297.411 145.958 290.37 144.396 284.25 140.89C284.05 140.78 284.16 140.42 284.4 140.51C290.815 143.056 297.565 144.656 304.44 145.26Z" fill="#263238"/>
<path d="M306.7 137.54C306.719 137.54 306.736 137.547 306.749 137.56C306.763 137.573 306.77 137.591 306.77 137.61C306.77 137.628 306.763 137.646 306.749 137.659C306.736 137.672 306.719 137.68 306.7 137.68C299.7 138.21 291.21 136.31 284.97 131.43C284.76 131.27 284.73 130.9 284.97 131.08C289.38 134 300.24 137.07 306.7 137.54Z" fill="#263238"/>
<path d="M286.46 121.9C292.63 126.35 299.6 128.37 307.06 129.42C307.16 129.42 307.13 129.57 307.06 129.58C303.27 130.06 298.59 128.9 295.06 127.69C291.725 126.622 288.726 124.702 286.36 122.12C286.21 122 286.33 121.81 286.46 121.9Z" fill="#263238"/>
<path d="M173 89.8899C159.49 108.2 140.1 149.17 146.5 160.05C151.14 167.92 196.72 174.19 207.26 173.73C211.86 173.52 214.63 139.63 209.78 138.78C205.38 138 180.12 137.23 179.6 136.14C179.08 135.05 188.7 100.41 191.38 85.8699C195.33 64.4299 178.28 82.7399 173 89.8899Z" fill="#D3766A"/>
<path d="M153 111.21L186.39 116.41C186.39 116.41 193.68 96.1499 194.73 83.0099C195.52 73.0099 189.95 71.7799 184.81 76.0099C167.7 90.2499 153 111.21 153 111.21Z" fill="#4A26AB"/>
<path d="M186 86.6299C186 86.8613 185.931 87.0875 185.803 87.2799C185.674 87.4723 185.492 87.6223 185.278 87.7108C185.064 87.7994 184.829 87.8225 184.602 87.7774C184.375 87.7323 184.166 87.6208 184.003 87.4572C183.839 87.2936 183.728 87.0851 183.683 86.8582C183.637 86.6312 183.661 86.3959 183.749 86.1822C183.838 85.9684 183.988 85.7856 184.18 85.6571C184.372 85.5285 184.599 85.4599 184.83 85.4599C185.14 85.4599 185.438 85.5832 185.657 85.8026C185.877 86.022 186 86.3196 186 86.6299ZM172.63 106C172.398 105.998 172.17 106.065 171.976 106.193C171.782 106.321 171.631 106.503 171.541 106.718C171.451 106.932 171.427 107.168 171.472 107.396C171.517 107.624 171.629 107.833 171.793 107.997C171.957 108.161 172.166 108.273 172.394 108.318C172.622 108.363 172.858 108.339 173.072 108.249C173.287 108.159 173.469 108.008 173.597 107.814C173.725 107.62 173.792 107.392 173.79 107.16C173.79 106.852 173.668 106.557 173.45 106.34C173.233 106.122 172.938 106 172.63 106Z" fill="white"/>
<path d="M186.1 110.8C181.01 109.63 167.1 106.87 157.87 106.26C157.82 106.26 157.78 106.46 157.87 106.48C165.5 108.15 180.87 110.39 186.08 111.11C186.14 111.12 186.19 110.82 186.1 110.8Z" fill="#263238"/>
<path d="M186.77 116.51C187.7 113.92 188.41 111.22 189.15 108.57C189.51 107.87 189.87 107.17 190.15 106.45C190.583 105.527 190.918 104.562 191.15 103.57H191.08C190.89 104.02 190.74 104.49 190.55 104.94C190.36 105.39 190.17 105.85 189.98 106.3C189.79 106.75 189.58 107.23 189.36 107.69C190.09 105.08 190.74 102.46 191.28 99.81C191.28 99.74 191.19 99.7 191.17 99.81C190.17 102.52 189.28 105.27 188.49 108.04C187.7 110.81 186.88 113.46 186.28 116.21C185.81 116.21 185.35 116.12 184.87 116.11C184.841 116.11 184.813 116.122 184.792 116.142C184.772 116.163 184.76 116.191 184.76 116.22C184.76 116.249 184.772 116.277 184.792 116.298C184.813 116.318 184.841 116.33 184.87 116.33C185.39 116.49 185.87 116.61 186.44 116.74C186.514 116.752 186.59 116.734 186.651 116.692C186.713 116.649 186.755 116.584 186.77 116.51Z" fill="#263238"/>
<path d="M184.25 116.07L181.63 127.35C181.2 129.23 180.78 131.12 180.42 133C180.228 133.922 180.084 134.853 179.99 135.79C179.99 135.87 179.99 136.02 179.94 135.86C179.89 135.7 179.85 135.79 179.94 135.81H180.08C180.28 135.81 180.52 135.9 180.75 135.93C181.21 136 181.69 136.06 182.17 136.11C185.99 136.52 189.85 136.75 193.69 137.04L205.24 137.86H205.01C206.45 137.06 207.93 136.34 209.41 135.62C210.89 134.9 212.41 134.22 213.91 133.57C215.41 132.92 216.97 132.35 218.54 131.84C220.095 131.297 221.71 130.944 223.35 130.79C221.738 131.071 220.159 131.52 218.64 132.13C217.11 132.71 215.64 133.39 214.13 134.07C211.13 135.45 208.27 137 205.43 138.61L205.32 138.67H205.19C197.47 138.24 189.77 137.84 182.06 136.96L180.61 136.75C180.357 136.713 180.107 136.663 179.86 136.6L179.65 136.54C179.52 136.495 179.401 136.423 179.3 136.33C179.181 136.136 179.131 135.906 179.16 135.68C179.259 134.695 179.429 133.72 179.67 132.76C180.1 130.87 180.59 129 181.08 127.13C182 123.47 183.12 119.76 184.25 116.07Z" fill="#263238"/>
<path d="M126.32 314.8C126.333 323.023 123.727 331.037 118.88 337.68C114.964 343.07 109.73 347.365 103.679 350.154C97.6281 352.943 90.963 354.133 84.3209 353.61C77.6789 353.087 71.2821 350.868 65.7426 347.166C60.203 343.464 55.7059 338.403 52.6814 332.467C49.657 326.53 48.2063 319.917 48.4682 313.259C48.7301 306.602 50.6958 300.123 54.1773 294.442C57.6588 288.762 62.5396 284.069 68.3529 280.814C74.1662 277.559 80.7174 275.85 87.38 275.85C88.45 275.85 89.51 275.85 90.56 275.98C95.9035 276.414 101.099 277.949 105.822 280.487C110.544 283.026 114.69 286.513 118 290.73C118.871 291.836 119.682 292.988 120.43 294.18C124.294 300.363 126.335 307.509 126.32 314.8Z" fill="#455A64"/>
<path d="M95.7901 333.17C95.3 334.48 96.12 334.54 96.17 335.08C96.22 335.62 96.17 336.66 94.59 338.24C93.01 339.82 90.39 339.5 89.85 340.15C89.31 340.8 88.37 343.59 87.07 344.52C85.7701 345.45 85.5401 344.9 83.6801 345.28C81.8201 345.66 80.4101 348.06 79.8701 349.2C79.3301 350.34 79.98 352.26 78.67 352.31C77.3601 352.36 76.76 349.53 75.56 348.01C74.5075 346.641 73.8194 345.027 73.56 343.32C73.17 341.52 73.77 337.75 73.56 336.32C73.35 334.89 69.41 332.23 67.99 330.43C66.57 328.63 64.6101 325.03 64.7201 323.83C64.8853 322.664 65.4681 321.598 66.3601 320.83C67.0101 320.34 66.74 320.07 66.85 319.63C66.96 319.19 67.5001 319.09 67.6101 318.54C67.6362 318.094 67.5727 317.648 67.4232 317.227C67.2738 316.806 67.0415 316.419 66.74 316.09C66.19 315.82 65.81 316.74 65.49 316.58C65.17 316.42 64.18 315.27 63.8 315.16C63.42 315.05 63.5201 315.87 62.9801 314.84C62.4401 313.81 62.1601 311.18 61.7201 310.75C61.2801 310.32 60.96 311.51 59.92 310.75C58.88 309.99 58.45 308.51 58.01 308.29C57.57 308.07 57.01 308.35 56.53 307.47C56.05 306.59 56.92 305.02 56.53 305.18C56.14 305.34 55.2901 306.6 55.0701 305.4C54.8501 304.2 56.16 300.17 55.94 297.99C55.7665 295.689 56.5107 293.413 58.01 291.66C58.01 291.66 58.2301 290.46 58.4501 289.66C58.6701 288.86 63.3601 285.84 63.9001 284.97C64.1285 284.483 64.261 283.957 64.2901 283.42C70.9522 278.507 79.0126 275.858 87.2901 275.86C88.3601 275.86 89.4201 275.86 90.4701 275.99L90.57 276.13C91.2037 276.869 92.0538 277.39 93 277.62C94.3801 278.13 94.71 278.79 94.42 279.33C94.2898 279.557 94.0974 279.743 93.8654 279.865C93.6334 279.988 93.3714 280.041 93.1101 280.02C92.5601 280.02 92.0501 279.77 91.4701 280.13C90.89 280.49 90.3101 282.46 89.5401 282.57C88.7701 282.68 87.44 280.82 87.14 280.28C86.84 279.74 87.8 278.57 87.35 278.02C86.9 277.47 86.1301 277.59 84.8901 277.48C83.6501 277.37 80.7801 277.84 80.8901 278.31C81.0001 278.78 85.1101 278.24 85.2201 279.19C85.3301 280.14 82.2201 281.73 81.6601 281.59C81.1001 281.45 80.3801 280.5 79.5801 280.39C78.7801 280.28 78.1301 280.93 77.5801 281.01C77.0301 281.09 76.4801 280.46 75.7201 280.6C74.9601 280.74 74.7201 281.4 74.3701 281.66C74.0201 281.92 73.0301 281.91 72.92 282.49C72.81 283.07 74.1201 283.4 74.4401 283.77C74.7601 284.14 74.0401 285.37 74.3701 285.62C74.7001 285.87 76.73 284.09 77.24 283.62C77.75 283.15 78.24 281.29 79.24 281.33C80.24 281.37 80.69 283.22 81.06 283.4C81.43 283.58 82.22 282.96 83.42 283.22C84.6201 283.48 85.42 286.09 85.67 286.89C85.92 287.69 86.4001 288.49 85.9601 288.82C85.4919 288.908 85.0099 288.888 84.5506 288.761C84.0914 288.635 83.6671 288.405 83.31 288.09C83.06 287.58 84.6201 286.82 84.5101 286.64C84.2959 286.489 84.0466 286.394 83.7858 286.366C83.5251 286.338 83.2615 286.377 83.02 286.48C82.55 286.77 82.3301 287.36 81.8201 287.48C81.3101 287.6 79.9701 286.1 79.6 286.53C79.23 286.96 79.9701 288.35 80.3301 288.68C80.6901 289.01 82.0401 289.19 82.1501 289.55C82.2601 289.91 81.2401 290.71 80.0001 290.64C78.7601 290.57 77.75 289.64 77.27 290.02C76.79 290.4 77.0601 291.48 76.7301 291.84C76.4001 292.2 74.6201 291.95 73.7301 292.84C72.8401 293.73 72.4601 295.21 71.5801 296.01C70.7001 296.81 70.3101 295.79 69.1501 296.92C67.9901 298.05 67.8 300.55 67.77 301.42C67.74 302.29 67.7701 302.99 67.4801 302.88C67.0647 302.536 66.7818 302.059 66.6801 301.53C66.5701 301.06 66.9301 300.26 66.9301 299.97C66.2784 299.057 65.3487 298.38 64.28 298.04C63.28 297.9 62.4201 298.7 61.7001 299.28C60.9801 299.86 59.7 299.75 59.19 300.28C58.68 300.81 58.35 304.93 58.71 305.91C59.07 306.89 59.5501 306.91 60.7101 306.38C61.87 305.85 61.2201 304.89 61.9101 305.11C62.221 305.227 62.4888 305.437 62.6781 305.71C62.8674 305.983 62.9692 306.307 62.9701 306.64C62.9701 307.22 61.5901 308.64 61.7701 309C61.9501 309.36 63.1501 308.93 63.7701 309.11C64.3901 309.29 64.64 309.65 64.46 311.11C64.28 312.57 64.3901 313.76 65.2601 314.25C66.1301 314.74 66.6301 313.54 67.0101 313.7C67.3901 313.86 67.9301 314.7 68.4801 314.7C69.0301 314.7 68.7501 314.15 69.7901 313.82C70.8301 313.49 70.4401 313.28 70.6601 312.62C70.6968 312.453 70.7687 312.296 70.871 312.16C70.9733 312.023 71.1035 311.909 71.2531 311.827C71.4026 311.745 71.568 311.695 71.7382 311.682C71.9084 311.669 72.0795 311.692 72.24 311.75C72.95 312.08 72.4601 312.57 72.5101 313.11C72.5601 313.65 73.8201 313.71 74.8001 314.04C75.7801 314.37 76.3301 314.04 78.2901 314.7C80.2501 315.36 80.3701 317.31 81.1801 317.64C81.9901 317.97 84.7301 317.42 86.6901 318.84C88.6501 320.26 88.11 322.84 89.09 323.64C90.07 324.44 93.73 325.44 95.09 325.71C96.45 325.98 96.73 325 97.88 325.27C98.441 325.325 98.9653 325.574 99.363 325.974C99.7607 326.373 100.007 326.899 100.06 327.46C100.54 329 96.2801 331.86 95.7901 333.17Z" fill="#37474F"/>
<path d="M66.49 305.29C66.49 305.6 67.43 305.73 68.49 306.29C69.55 306.85 69.99 308.73 70.57 308.69C71.15 308.65 70.97 307.82 71.18 307.6C71.2749 307.536 71.3526 307.449 71.4063 307.348C71.46 307.247 71.4881 307.134 71.4881 307.02C71.4881 306.905 71.46 306.793 71.4063 306.692C71.3526 306.59 71.2749 306.504 71.18 306.44C70.6 305.97 70.04 304.95 68.98 304.8C67.92 304.65 67.73 304.22 67.26 304.26C67.1364 304.263 67.0151 304.295 66.9052 304.352C66.7954 304.409 66.6999 304.49 66.6258 304.589C66.5518 304.688 66.5011 304.802 66.4775 304.924C66.454 305.045 66.4583 305.17 66.49 305.29Z" fill="#37474F"/>
<path d="M72.49 308.34C72.33 308.79 72.49 309.11 73.65 309.4C74.81 309.69 75.9 309.11 75.54 308.87C75.18 308.63 74.63 308.74 74.85 308.34C75.07 307.94 74.99 307.34 74.05 307.47C73.11 307.6 72.63 307.94 72.49 308.34Z" fill="#37474F"/>
<path d="M76.56 308.47C76.16 308.47 75.94 309.22 76.34 309.65C76.74 310.08 76.74 310.02 77.21 309.65C77.68 309.28 78.41 309.11 78.21 308.74C78.01 308.37 77 308.41 76.56 308.47Z" fill="#37474F"/>
<path d="M79.72 310C79.9 309.46 80.81 310 81.21 310.57C81.3571 310.883 81.4334 311.224 81.4334 311.57C81.4334 311.915 81.3571 312.257 81.21 312.57C80.99 313.19 80.85 313.92 80.34 313.62C79.83 313.32 80.34 312.46 80.34 311.95C80.34 311.44 79.58 310.4 79.72 310Z" fill="#37474F"/>
<path d="M95.39 279.62C95.2 280.08 96.08 280.24 96.59 280.53C97.1 280.82 97.5 281 97.79 280.53C97.843 280.424 97.8717 280.308 97.8739 280.19C97.8762 280.072 97.852 279.955 97.8031 279.848C97.7541 279.74 97.6818 279.645 97.5912 279.57C97.5007 279.494 97.3944 279.439 97.28 279.41C96.88 279.3 95.57 279.19 95.39 279.62Z" fill="#37474F"/>
<path d="M102.26 283.88C102.6 284.23 103.17 284.17 103.57 284.68C103.97 285.19 103.82 286.06 104.33 286.31C104.84 286.56 105.21 286.31 105.24 285.95C105.27 285.59 104.52 284.68 104.59 284.49C104.66 284.3 105.59 284.75 105.86 285.29C106.13 285.83 105.64 286.6 106.15 286.75C106.66 286.9 106.55 286.24 106.77 286.09C106.99 285.94 107.46 286.02 107.42 285.59C107.254 284.916 106.871 284.315 106.33 283.88C105.861 283.466 105.303 283.165 104.7 283C104.365 282.903 104.012 282.879 103.667 282.931C103.322 282.983 102.992 283.109 102.7 283.3C102.33 283.62 102.05 283.66 102.26 283.88Z" fill="#37474F"/>
<path d="M118 290.73C117.979 290.878 117.904 291.013 117.79 291.11C117.03 291.66 116.12 289.77 115.07 289.4C114.02 289.03 113.54 287.69 113.32 287.99C113.1 288.29 113.18 288.68 112.85 289.15C112.52 289.62 112.05 289.51 111.85 290.42C111.65 291.33 112.85 293 112.58 293.55C112.31 294.1 111.93 293.91 111.34 293.87C110.75 293.83 110.87 294.35 110.11 294.13C109.35 293.91 110 292.96 108.8 291.84C107.6 290.72 107.2 290.49 107.46 289.98C107.72 289.47 107.34 288.75 107.89 288.68C108.44 288.61 108.89 289.4 109.23 289.62C109.57 289.84 110.07 289.18 110.11 288.62C110.15 288.06 108.83 287.24 108.36 286.79C107.94 286.057 107.825 285.187 108.04 284.37C108.22 284.04 108.76 284.15 108.91 283.37C108.99 282.9 108.25 282.12 107.62 281.55C111.6 283.966 115.116 287.075 118 290.73Z" fill="#37474F"/>
<path d="M123.42 323.32C123.53 322.16 122.95 322.08 123.53 319.94C123.704 319.093 123.7 318.219 123.518 317.373C123.335 316.528 122.978 315.73 122.47 315.03C122.04 314.56 121.09 314.71 120.33 315.18C119.57 315.65 120.11 316.01 119.6 316.18C119.09 316.35 118.6 316.07 118.11 316.1C117.62 316.13 117.2 317.34 116.18 317.3C115.16 317.26 114.51 315.81 113.75 314.78C112.99 313.75 111.42 313.09 110.91 311.78C110.4 310.47 111.39 308.55 111.17 307.06C110.95 305.57 109.97 305.89 109.79 305.06C109.61 304.23 109.93 304.62 110.19 303.82C110.45 303.02 109.9 302.59 110.4 301.2C110.9 299.81 111.82 299.13 111.6 298.51C111.194 297.763 110.878 296.971 110.66 296.15C110.66 295.43 111.35 295.46 112.73 294.44C114.11 293.42 114.48 293.5 115.53 293.86C116.287 294.141 117.067 294.359 117.86 294.51C118.48 294.62 119.31 296.22 119.57 296.15C119.83 296.08 119.86 295.61 119.97 294.92C120.035 294.617 120.192 294.341 120.42 294.13C124.524 300.71 126.57 308.365 126.296 316.115C126.021 323.865 123.439 331.357 118.88 337.63C122.59 332 123.31 324.48 123.42 323.32Z" fill="#37474F"/>
<path d="M131.93 314.8C132.051 318.805 131.627 322.809 130.67 326.7L130.33 328.17L129.86 329.6L128.86 332.46L127.62 335.22C127.41 335.68 127.22 336.15 126.98 336.6L126.23 337.91C124.241 341.452 121.782 344.708 118.92 347.59L116.7 349.68C115.97 350.4 115.11 350.95 114.32 351.59C112.7 352.829 111.003 353.965 109.24 354.99C108.36 355.5 107.42 355.92 106.52 356.39L105.14 357.07C104.68 357.28 104.14 357.44 103.72 357.63L100.85 358.71L97.85 359.51L96.37 359.9L94.85 360.15L91.85 360.63L88.78 360.82L87.24 360.91C86.73 360.91 86.24 360.91 85.71 360.85L82.63 360.72C81.63 360.62 80.63 360.43 79.63 360.29C77.6043 359.968 75.6004 359.52 73.63 358.95C72.63 358.63 71.7 358.26 70.73 357.95L69.28 357.43C68.81 357.22 68.35 356.99 67.89 356.77L65.11 355.44L62.47 353.85C61.5835 353.327 60.7347 352.742 59.93 352.1C59.12 351.47 58.27 350.9 57.5 350.22C55.9379 348.888 54.4648 347.455 53.09 345.93C50.2994 342.904 47.9435 339.505 46.09 335.83L44.78 333C44.39 332.05 44.08 331.07 43.72 330.11L43.21 328.66C43.05 328.18 42.95 327.66 42.82 327.18L42.08 324.18C41.3261 320.167 41.0808 316.074 41.35 312C41.9252 303.882 44.7132 296.078 49.4115 289.433C54.1098 282.789 60.5386 277.558 68 274.31C60.9315 277.968 54.9432 283.411 50.63 290.1C46.3827 296.686 43.9411 304.273 43.55 312.1C43.4315 315.982 43.7671 319.865 44.55 323.67L45.3 326.48C45.43 326.94 45.53 327.42 45.69 327.87L46.2 329.23C46.55 330.13 46.85 331.05 47.2 331.94L48.48 334.54C48.9074 335.406 49.3883 336.244 49.92 337.05C50.44 337.86 50.92 338.73 51.47 339.49C52.5799 341.071 53.7961 342.574 55.11 343.99C56.4159 345.408 57.8086 346.744 59.28 347.99C60.01 348.61 60.81 349.15 61.58 349.74L62.74 350.6C63.13 350.88 63.56 351.11 63.97 351.37C76.97 359.89 94.5 360.37 108.21 353.02C111.629 351.143 114.806 348.856 117.67 346.21C120.529 343.537 123.018 340.493 125.07 337.16L125.87 335.92C126.12 335.5 126.33 335.05 126.56 334.62L127.91 332L129 329.3L129.54 327.92L129.95 326.5C130.22 325.55 130.5 324.6 130.75 323.64L131.28 320.72C131.37 320.23 131.48 319.72 131.55 319.26L131.68 317.77L131.93 314.8Z" fill="#263238"/>
<path d="M71.74 279.56L66.47 282.06L62.76 270.95L65.47 269.66L71.74 279.56Z" fill="#263238"/>
<path d="M90.81 359.59H85.15V383.44H90.81V359.59Z" fill="#263238"/>
<path d="M108.72 378.29H67.25V383.43H108.72V378.29Z" fill="#263238"/>
</svg>
