<svg width="421" height="330" viewBox="0 0 421 330" fill="none" xmlns="http://www.w3.org/2000/svg">
<g clip-path="url(#clip0_601_4831)">
<path d="M349.262 251.688H371.558V242.266H349.262V251.688Z" fill="#EBEBEB"/>
<path d="M361.698 263.568H383.994V254.146H361.698V263.568Z" fill="#EBEBEB"/>
<path d="M336.817 263.568H359.113V254.146H336.817V263.568Z" fill="#EBEBEB"/>
<path d="M49.4422 263.568H71.7384V254.146H49.4422V263.568Z" fill="#EBEBEB"/>
<path d="M49.4422 9.3179L71.7384 9.3179V-0.104076L49.4422 -0.104076V9.3179Z" fill="#EBEBEB"/>
<path d="M37.0059 21.1985L59.3021 21.1985V11.7766L37.0059 11.7766V21.1985Z" fill="#EBEBEB"/>
<path d="M361.698 9.32632L383.994 9.32632V-0.0956535L361.698 -0.0956535V9.32632Z" fill="#EBEBEB"/>
<path d="M322.553 112.017H300.257V121.439H322.553V112.017Z" fill="#EBEBEB"/>
<path d="M310.117 100.136H287.821V109.558H310.117V100.136Z" fill="#EBEBEB"/>
<path d="M57.7023 24.3813H205.659V231.008H57.7023V24.3813ZM201.238 28.7681H62.0891V226.638H201.238V28.7681Z" fill="#EBEBEB"/>
<path d="M133.87 29.9217H129.483V228.81H133.87V29.9217Z" fill="#EBEBEB"/>
<path d="M53.7197 39.3689L209.641 39.3689V33.256L53.7197 33.256V39.3689Z" fill="#EBEBEB"/>
<path d="M53.7197 46.248L209.641 46.248V40.1351L53.7197 40.1351V46.248Z" fill="#EBEBEB"/>
<path d="M53.7197 53.1272L209.641 53.1272V47.0142L53.7197 47.0142V53.1272Z" fill="#EBEBEB"/>
<path d="M53.7197 59.9979L209.641 59.9979V53.885L53.7197 53.885V59.9979Z" fill="#EBEBEB"/>
<path d="M53.7197 66.8854L209.641 66.8854V60.7725L53.7197 60.7725V66.8854Z" fill="#EBEBEB"/>
<path d="M53.7197 73.7646L209.641 73.7646V67.6517L53.7197 67.6517V73.7646Z" fill="#EBEBEB"/>
<path d="M53.7197 80.6353L209.641 80.6353V74.5224L53.7197 74.5224V80.6353Z" fill="#EBEBEB"/>
<path d="M53.7197 87.5145L209.641 87.5145V81.4015L53.7197 81.4015V87.5145Z" fill="#EBEBEB"/>
<path d="M53.7197 94.3936L209.641 94.3936V88.2807L53.7197 88.2807V94.3936Z" fill="#EBEBEB"/>
<path d="M67.8484 32.0182H66.7538V150.984H67.8484V32.0182Z" fill="#263238"/>
<path d="M65.3561 156.095H69.2545L68.2778 150.496H66.3328L65.3561 156.095Z" fill="#263238"/>
<path d="M63.8994 32.0182H62.8048V180.993H63.8994V32.0182Z" fill="#263238"/>
<path d="M61.3987 185.111H65.2971L64.3204 179.511H62.3754L61.3987 185.111Z" fill="#263238"/>
<path d="M46.8994 36.3124L216.453 36.3124V23.5225L46.8994 23.5225V36.3124Z" fill="#DBDBDB"/>
<path d="M358.871 82.2129C373.813 73.1318 378.564 53.6574 369.483 38.7157C360.401 23.774 340.927 19.0231 325.985 28.1042C311.044 37.1853 306.293 56.6597 315.374 71.6014C324.455 86.5431 343.929 91.294 358.871 82.2129Z" fill="#EBEBEB"/>
<path d="M361.427 80.5006C375.015 70.8187 378.182 51.9542 368.5 38.3655C358.819 24.7769 339.954 21.6099 326.365 31.2919C312.777 40.9738 309.61 59.8383 319.292 73.427C328.974 87.0156 347.838 90.1826 361.427 80.5006Z" fill="#DBDBDB"/>
<path d="M360.326 78.9388C373.051 69.8649 376.012 52.1928 366.938 39.4671C357.864 26.7413 340.192 23.7809 327.466 32.8547C314.741 41.9285 311.78 59.6006 320.854 72.3264C329.928 85.0522 347.6 88.0126 360.326 78.9388Z" fill="white"/>
<path opacity="0.5" d="M371.549 49.8855C358.658 57.6908 337.482 70.4976 325.644 77.5199C322.296 74.6977 319.647 71.1385 317.906 67.1212L357.059 30.831C360.717 32.7589 363.909 35.4634 366.412 38.7548C368.916 42.0463 370.669 45.8452 371.549 49.8855V49.8855Z" fill="#EBEBEB"/>
<path opacity="0.5" d="M372.164 56.8741C372.067 60.0228 371.435 63.132 370.295 66.0687L334.998 82.774C333.46 82.2663 331.969 81.6239 330.544 80.8543C341.204 74.6908 360.688 63.4754 372.164 56.8741Z" fill="#EBEBEB"/>
<path d="M344.159 29.6438H343.612V33.9296H344.159V29.6438Z" fill="#C7C7C7"/>
<path d="M330.991 33.0046L330.517 33.2782L332.66 36.9898L333.134 36.7161L330.991 33.0046Z" fill="#C7C7C7"/>
<path d="M321.28 42.5218L321.006 42.9958L324.718 45.1387L324.991 44.6647L321.28 42.5218Z" fill="#C7C7C7"/>
<path d="M321.93 55.6111H317.645V56.1584H321.93V55.6111Z" fill="#C7C7C7"/>
<path d="M324.73 66.6034L321.019 68.7476L321.293 69.2214L325.003 67.0772L324.73 66.6034Z" fill="#C7C7C7"/>
<path d="M332.679 74.7789L330.538 78.4912L331.012 78.7647L333.153 75.0524L332.679 74.7789Z" fill="#C7C7C7"/>
<path d="M344.159 77.8483H343.612V82.1341H344.159V77.8483Z" fill="#C7C7C7"/>
<path d="M355.094 74.7573L354.62 75.0309L356.763 78.7425L357.237 78.4689L355.094 74.7573Z" fill="#C7C7C7"/>
<path d="M363.051 66.6447L362.778 67.1186L366.489 69.2621L366.763 68.7882L363.051 66.6447Z" fill="#C7C7C7"/>
<path d="M370.126 55.6111H365.841V56.1584H370.126V55.6111Z" fill="#C7C7C7"/>
<path d="M366.48 42.5354L362.77 44.6796L363.043 45.1534L366.754 43.0093L366.48 42.5354Z" fill="#C7C7C7"/>
<path d="M356.776 33.0356L354.635 36.7484L355.109 37.0218L357.25 33.309L356.776 33.0356Z" fill="#C7C7C7"/>
<path d="M344.294 31.5804L345.228 57.8003L342.542 57.7666L343.57 31.572L344.294 31.5804Z" fill="#C7C7C7"/>
<path d="M360.629 46.7448L342.989 58.0024L341.709 55.6448L360.275 46.1049L360.629 46.7448Z" fill="#A6A6A6"/>
<path d="M344.799 55.8889C344.799 56.0708 344.745 56.2486 344.644 56.3997C344.543 56.5508 344.399 56.6684 344.23 56.7376C344.062 56.8069 343.877 56.8245 343.699 56.7884C343.521 56.7523 343.357 56.6641 343.229 56.5349C343.101 56.4057 343.015 56.2414 342.98 56.0628C342.946 55.8842 342.965 55.6994 343.036 55.5319C343.107 55.3643 343.225 55.2216 343.378 55.1217C343.53 55.0219 343.708 54.9695 343.89 54.9712C344.01 54.9712 344.129 54.995 344.24 55.0412C344.351 55.0874 344.451 55.1551 344.536 55.2405C344.62 55.3258 344.687 55.4271 344.732 55.5384C344.777 55.6497 344.8 55.7688 344.799 55.8889Z" fill="#C7C7C7"/>
<path d="M374.799 223.784C371.154 220.222 366.455 215.911 360.89 217.444C355.652 218.892 353.648 224.609 352.705 229.375C351.501 235.513 350.558 241.71 349.582 247.899C348.605 254.087 347.679 260.394 346.778 266.642C346.273 270.167 345.773 273.697 345.279 277.234C345.026 278.991 344.779 280.756 344.538 282.53C344.302 284.214 344.008 285.991 343.915 287.734C343.915 288.289 344.757 288.374 344.883 287.843C345.557 284.896 345.835 281.84 346.264 278.851C346.693 275.861 347.106 272.839 347.578 269.833C348.42 263.863 349.354 257.902 350.247 251.932C351.139 245.962 352.082 240.001 353.034 234.039C353.876 228.987 354.221 222.706 358.7 219.372C361.159 217.545 364.3 217.528 367.078 218.589C370.034 219.717 372.383 221.822 374.656 223.91C374.673 223.929 374.697 223.941 374.722 223.942C374.747 223.944 374.772 223.935 374.791 223.918C374.81 223.902 374.822 223.878 374.823 223.853C374.825 223.828 374.816 223.803 374.799 223.784V223.784Z" fill="#263238"/>
<path d="M369.815 220.138C369.815 220.138 362.371 217.46 358.7 222.891C355.029 228.322 359.416 242.139 393.298 249.928C392.305 239.338 389.55 228.987 385.148 219.304C377.881 203.466 364.94 209.461 369.815 220.138Z" fill="#4A26AB"/>
<path d="M391.353 247.671C390.847 246.724 390.285 245.807 389.669 244.926L387.985 242.316L386.655 240.371C386.655 240.22 386.697 240.051 386.722 239.891C386.722 239.597 386.798 239.302 386.832 239.007C386.916 238.376 387.009 237.744 387.101 237.104C387.194 236.464 387.303 235.85 387.421 235.218C387.501 234.539 387.65 233.871 387.867 233.223C387.909 233.122 387.733 233.071 387.716 233.223C387.644 233.603 387.543 233.978 387.413 234.343L387.185 235.185C387.025 235.824 386.865 236.473 386.722 237.121C386.579 237.769 386.478 238.317 386.377 238.915C386.326 239.209 386.284 239.496 386.242 239.757C385.636 238.915 385.021 238.073 384.39 237.231C382.588 234.856 380.685 232.574 378.715 230.351C378.715 230.351 378.715 230.351 378.715 230.293C378.892 226.731 378.807 223.203 379.557 219.7C379.557 219.608 379.439 219.557 379.414 219.65C378.673 222.942 377.94 226.386 378.151 229.754C377.443 228.962 376.728 228.179 376.004 227.404C374.32 225.636 372.678 223.885 370.952 222.176C370.884 222.108 370.775 222.176 370.842 222.277C373.696 225.35 376.408 228.558 379.043 231.817C376.978 231.783 374.912 231.859 372.854 232.044C370.556 232.212 368.274 232.507 365.992 232.819C365.972 232.819 365.953 232.826 365.939 232.841C365.924 232.855 365.916 232.874 365.916 232.894C365.916 232.914 365.924 232.934 365.939 232.948C365.953 232.962 365.972 232.97 365.992 232.97C368.265 232.648 370.552 232.442 372.846 232.355C375.061 232.263 377.258 232.355 379.464 232.355C380.887 234.132 382.302 235.909 383.674 237.711H383.363C382.841 237.711 382.327 237.711 381.805 237.711C380.778 237.711 379.742 237.803 378.715 237.887C376.611 238.056 374.52 238.368 372.459 238.822C372.439 238.822 372.419 238.83 372.405 238.844C372.391 238.858 372.383 238.878 372.383 238.898C372.383 238.918 372.391 238.937 372.405 238.951C372.419 238.966 372.439 238.974 372.459 238.974C374.538 238.738 376.627 238.544 378.723 238.468C379.717 238.468 380.719 238.468 381.721 238.468H383.278C383.561 238.507 383.849 238.481 384.12 238.393C385.03 239.58 385.948 240.759 386.849 241.946C387.564 242.897 388.28 243.849 388.97 244.817C389.661 245.785 390.326 246.871 391.117 247.789C391.133 247.821 391.161 247.844 391.194 247.855C391.227 247.866 391.263 247.864 391.294 247.848C391.326 247.833 391.349 247.805 391.36 247.772C391.371 247.739 391.369 247.703 391.353 247.671V247.671Z" fill="#263238"/>
<path d="M373.057 227.834C371.856 227.681 370.645 227.625 369.436 227.665C368.223 227.665 367.011 227.665 365.807 227.741C365.787 227.741 365.767 227.749 365.753 227.763C365.739 227.778 365.731 227.797 365.731 227.817C365.731 227.837 365.739 227.856 365.753 227.871C365.767 227.885 365.787 227.893 365.807 227.893C367.028 227.8 368.257 227.783 369.486 227.8C370.716 227.817 371.861 227.926 373.04 227.901L373.057 227.834Z" fill="#263238"/>
<path d="M383.691 230.57C383.826 229.408 383.977 228.246 384.221 227.11C384.221 227.09 384.213 227.07 384.199 227.056C384.185 227.042 384.166 227.034 384.146 227.034C384.126 227.034 384.106 227.042 384.092 227.056C384.078 227.07 384.07 227.09 384.07 227.11C383.902 228.255 383.674 229.383 383.506 230.52C383.422 231.081 383.346 231.642 383.278 232.204C383.176 232.736 383.128 233.278 383.135 233.82C383.135 233.921 383.312 233.93 383.337 233.82C383.439 233.29 383.498 232.752 383.514 232.212C383.565 231.665 383.624 231.118 383.691 230.57Z" fill="#263238"/>
<path d="M381.426 217.747C381.131 218.875 380.837 220.012 380.584 221.157C380.483 221.738 380.39 222.327 380.315 222.908C380.211 223.463 380.171 224.028 380.197 224.592C380.197 224.592 380.273 224.592 380.289 224.592C380.421 224.058 380.511 223.515 380.559 222.967C380.632 222.406 380.716 221.844 380.811 221.283C381.022 220.104 381.232 218.934 381.527 217.772C381.628 217.704 381.485 217.654 381.426 217.747Z" fill="#263238"/>
<path d="M337.339 286.471C337.154 284.332 336.943 282.202 336.724 280.071C336.275 275.856 335.764 271.646 335.192 267.441C334.628 263.231 334.089 259.021 333.415 254.87C333.169 252.931 332.738 251.019 332.127 249.162C331.907 248.364 331.507 247.628 330.958 247.009C330.41 246.39 329.726 245.905 328.961 245.592C324.978 244.211 322.284 248.345 320.676 251.275C320.625 251.359 320.76 251.427 320.81 251.342C321.779 249.962 324.439 246.071 327.462 246.248C329.5 246.375 331.125 247.814 332.102 252.892C334.535 265.522 336.733 291.186 336.985 292.861C337.12 293.754 337.751 293.703 337.751 292.76C337.768 290.655 337.524 288.559 337.339 286.471Z" fill="#263238"/>
<path d="M321.753 249.692C321.753 249.692 325.239 237.39 317.543 243.537C304.72 253.776 304.265 276.055 304.265 276.055C304.265 276.055 327.058 262.819 329.896 254.087C334.106 241.07 321.753 249.692 321.753 249.692Z" fill="#4A26AB"/>
<path d="M326.064 255.729C324.279 256.091 322.461 256.327 320.659 256.571L318.091 256.933C317.518 257.009 316.929 257.068 316.348 257.135C318.032 254.803 319.758 252.471 321.4 250.088C321.467 249.995 321.324 249.894 321.248 249.97C319.904 251.368 318.634 252.835 317.442 254.365L316.432 251.511C316.045 250.408 315.59 249.313 315.346 248.143C315.346 248.05 315.177 248.092 315.203 248.193C315.514 249.322 315.733 250.467 316.045 251.561C316.356 252.656 316.668 253.734 317.055 254.795C316.213 255.881 315.413 256.992 314.638 258.112C314.243 257.001 313.797 255.923 313.418 254.795C313.411 254.775 313.397 254.758 313.378 254.748C313.359 254.739 313.337 254.737 313.317 254.744C313.296 254.751 313.28 254.765 313.27 254.784C313.261 254.803 313.259 254.825 313.266 254.845C313.679 256.091 313.898 257.371 314.285 258.643C313.754 259.409 313.232 260.175 312.736 260.941C311.818 262.364 310.951 263.812 310.1 265.278C310.034 265.303 309.978 265.35 309.941 265.411C309.905 265.472 309.889 265.544 309.898 265.614C308.458 268.14 307.086 270.666 305.739 273.192C305.728 273.21 305.726 273.231 305.732 273.251C305.737 273.271 305.75 273.288 305.768 273.298C305.786 273.308 305.807 273.31 305.827 273.305C305.846 273.299 305.863 273.286 305.873 273.268C307.229 270.742 308.728 268.3 310.294 265.892C310.538 265.82 310.789 265.772 311.043 265.749L311.826 265.581C312.416 265.454 312.997 265.303 313.586 265.151C314.74 264.865 315.885 264.596 317.063 264.393C317.156 264.393 317.114 264.225 317.013 264.242C315.632 264.511 314.251 264.663 312.853 264.823C312.197 264.899 311.54 264.983 310.892 265.092H310.791C311.633 263.846 312.475 262.608 313.317 261.388C314.159 260.167 315.001 258.996 315.843 257.817C316.634 257.7 317.417 257.497 318.2 257.346L320.852 256.832C322.612 256.479 324.372 256.083 326.14 255.788C326.208 255.864 326.165 255.712 326.064 255.729Z" fill="#263238"/>
<path d="M312.382 256.942L312.079 255.965C311.863 255.289 311.689 254.6 311.557 253.902C311.557 253.801 311.388 253.852 311.405 253.944C311.557 254.643 311.717 255.334 311.877 256.024C312.021 256.721 312.221 257.405 312.475 258.07C312.542 258.23 312.786 258.163 312.736 257.994C312.618 257.641 312.483 257.295 312.382 256.942Z" fill="#263238"/>
<path d="M328.38 252.858C327.344 253.01 326.292 253.085 325.248 253.178C324.204 253.271 323.16 253.414 322.115 253.574C322.057 253.574 322.057 253.666 322.115 253.666C323.168 253.591 324.204 253.506 325.248 253.372C326.292 253.237 327.336 253.077 328.388 253.01C328.498 253.026 328.489 252.858 328.38 252.858Z" fill="#263238"/>
<path d="M354.112 270.894C353.707 261.834 353.135 252.791 352.225 243.764C351.771 239.268 351.266 234.78 350.634 230.292C350.067 225.896 349.197 221.544 348.032 217.267C347.106 214.008 345.877 210.733 343.696 208.089C342.682 206.759 341.346 205.71 339.814 205.041C338.281 204.373 336.603 204.106 334.939 204.266C330.973 204.755 327.782 207.255 325.02 209.967C321.922 213.015 319.126 216.332 316.222 219.591C315.497 220.433 314.773 221.275 314.058 222.074C313.999 222.15 314.108 222.26 314.167 222.184C316.979 218.959 319.893 215.827 322.941 212.838C325.761 210.068 328.658 207.045 332.565 205.9C334.378 205.324 336.318 205.28 338.156 205.773C339.617 206.235 340.935 207.067 341.978 208.19C344.176 210.48 345.405 213.57 346.289 216.568C348.723 224.895 349.598 233.627 350.499 242.224C351.417 250.964 352.04 259.72 352.478 268.494C352.916 277.268 353.261 286.176 354.112 294.933C354.221 296.019 354.356 297.105 354.499 298.183C354.591 298.915 355.72 298.915 355.661 298.183C354.937 289.064 354.524 279.996 354.112 270.894Z" fill="#263238"/>
<path d="M324.524 210.96C324.524 210.96 329.702 201.387 323.589 198.33C317.476 195.274 297.015 218.092 291.037 251.486C291.037 251.486 324.077 236.868 335.301 222.302C346.525 207.735 333.803 204.519 324.524 210.96Z" fill="#4A26AB"/>
<path d="M329.382 218.749C325.669 218.749 321.964 218.471 318.251 218.496C318.95 217.696 319.64 216.896 320.347 216.105C321.386 215.047 322.354 213.922 323.244 212.737C323.303 212.661 323.185 212.552 323.109 212.61C322.106 213.48 321.169 214.423 320.305 215.431C319.368 216.413 318.442 217.407 317.527 218.412C316.104 219.944 314.714 221.502 313.317 223.068V220.668C313.317 219.405 313.317 218.142 313.359 216.888C313.359 214.362 313.359 211.768 313.552 209.226C313.552 209.125 313.409 209.133 313.401 209.226C313.224 211.752 312.955 214.337 312.828 216.905C312.769 218.159 312.736 219.431 312.727 220.685C312.727 221.334 312.727 221.982 312.727 222.63C312.727 222.984 312.727 223.363 312.727 223.725L312.07 224.457C309.107 227.825 306.286 231.345 303.549 234.907C303.549 234.713 303.549 234.511 303.499 234.317C303.499 233.921 303.415 233.534 303.364 233.138C303.272 232.296 303.154 231.454 303.027 230.612C302.901 229.77 302.783 229.021 302.648 228.23C302.514 227.438 302.278 226.436 302.211 225.527C302.211 225.507 302.203 225.487 302.188 225.473C302.174 225.459 302.155 225.451 302.135 225.451C302.115 225.451 302.095 225.459 302.081 225.473C302.067 225.487 302.059 225.507 302.059 225.527C302.217 226.426 302.321 227.334 302.371 228.246L302.598 230.697C302.674 231.539 302.75 232.339 302.834 233.155C302.834 233.543 302.909 233.938 302.952 234.334C302.952 234.528 302.994 234.721 303.019 234.923C303.037 235.088 303.092 235.246 303.179 235.387L301.764 237.231C299.895 239.714 298.051 242.224 296.216 244.724C296.157 244.8 296.266 244.91 296.325 244.825C298.068 242.56 299.861 240.329 301.68 238.089C303.036 238.148 304.425 238.047 305.781 238.03C307.136 238.014 308.644 238.03 310.083 237.988C310.176 237.988 310.176 237.837 310.083 237.837C308.652 237.837 307.221 237.887 305.789 237.887C304.358 237.887 303.145 237.828 301.84 237.887C303.44 235.939 305.051 234.006 306.673 232.086L308.45 229.989C309.008 230.063 309.572 230.08 310.134 230.04H312.087L315.75 229.989C318.276 229.947 320.802 229.863 323.328 229.863C323.345 229.858 323.36 229.847 323.37 229.832C323.38 229.818 323.386 229.801 323.386 229.783C323.386 229.765 323.38 229.748 323.37 229.734C323.36 229.719 323.345 229.709 323.328 229.703C320.802 229.703 318.276 229.568 315.75 229.501C314.529 229.501 313.308 229.434 312.087 229.417H310.134C309.763 229.417 309.376 229.417 309.006 229.417L313.165 224.483C313.198 224.463 313.225 224.434 313.241 224.398C314.596 222.799 315.952 221.199 317.316 219.616L317.889 218.968C321.737 219.085 325.576 218.833 329.433 218.909C329.483 218.909 329.483 218.749 329.382 218.749Z" fill="#263238"/>
<path d="M327.479 225.316H326.587C326.569 225.316 326.552 225.323 326.539 225.336C326.526 225.349 326.519 225.366 326.519 225.384C326.519 225.401 326.526 225.419 326.539 225.431C326.552 225.444 326.569 225.451 326.587 225.451H327.487C327.589 225.468 327.58 225.316 327.479 225.316Z" fill="#263238"/>
<path d="M325.484 225.325C324.296 225.325 323.101 225.282 321.913 225.249L320.128 225.198C319.57 225.124 319.003 225.124 318.444 225.198C318.385 225.198 318.394 225.291 318.444 225.308C318.998 225.42 319.564 225.46 320.128 225.426H321.913C323.101 225.426 324.288 225.426 325.475 225.426C325.484 225.438 325.497 225.447 325.512 225.452C325.526 225.457 325.542 225.457 325.557 225.453C325.571 225.448 325.584 225.44 325.594 225.428C325.604 225.416 325.61 225.401 325.611 225.386C325.612 225.371 325.609 225.356 325.601 225.342C325.594 225.329 325.582 225.318 325.568 225.312C325.555 225.305 325.539 225.303 325.524 225.305C325.509 225.307 325.495 225.314 325.484 225.325V225.325Z" fill="#263238"/>
<path d="M315.093 236.481C312.68 236.079 310.24 235.857 307.793 235.816C307.751 235.816 307.793 235.866 307.793 235.875C310.218 236.102 312.651 236.237 315.06 236.624C315.161 236.641 315.194 236.49 315.093 236.481Z" fill="#263238"/>
<path d="M305.166 225.847L305.09 225.207C305.023 224.735 304.947 224.255 304.871 223.775C304.737 222.874 304.577 221.965 304.4 221.064C304.4 220.98 304.24 221.005 304.248 221.064C304.366 222.002 304.467 222.936 304.551 223.868C304.593 224.331 304.627 224.786 304.669 225.249C304.658 225.691 304.721 226.132 304.855 226.554C304.872 226.583 304.898 226.606 304.929 226.621C304.96 226.636 304.994 226.641 305.028 226.637C305.062 226.632 305.094 226.618 305.12 226.596C305.146 226.574 305.165 226.545 305.174 226.512C305.215 226.292 305.212 226.066 305.166 225.847V225.847Z" fill="#263238"/>
<path d="M353.792 198.667C352.604 196.469 351.097 193.556 348.15 193.741C345.708 193.893 344.614 196.385 344.092 198.44C342.484 204.797 342.366 211.507 342.054 218.025C341.397 231.791 340.8 245.583 340.707 259.367C340.707 263.189 340.707 267.012 340.707 270.835C340.749 274.733 340.707 278.657 340.985 282.547C340.985 282.623 341.015 282.696 341.069 282.749C341.122 282.803 341.195 282.833 341.271 282.833C341.347 282.833 341.42 282.803 341.473 282.749C341.527 282.696 341.557 282.623 341.557 282.547C341.557 279.179 341.456 275.878 341.448 272.544C341.439 269.21 341.448 266.035 341.515 262.785C341.616 256.19 341.79 249.6 342.037 243.015C342.281 236.464 342.568 229.922 342.879 223.38C343.022 220.104 343.157 216.837 343.309 213.562C343.46 210.287 343.587 207.222 343.949 204.073C344.151 202.304 344.412 200.536 344.791 198.802C344.975 197.508 345.501 196.287 346.315 195.265C346.882 194.718 347.623 194.387 348.409 194.33C349.196 194.273 349.977 194.494 350.617 194.954C351.964 195.923 353.021 197.242 353.674 198.768C353.707 198.835 353.834 198.76 353.792 198.667Z" fill="#263238"/>
<path d="M352.992 197.614C352.992 197.614 350.558 189.051 355.93 193.329C364.855 200.469 365.192 215.987 365.192 215.987C365.192 215.987 349.312 206.725 347.342 200.679C344.378 191.619 352.992 197.614 352.992 197.614Z" fill="#4A26AB"/>
<path d="M361.833 209.621C361.69 209.386 361.538 209.158 361.386 208.922C361.403 208.679 361.403 208.434 361.386 208.19C361.386 207.819 361.386 207.449 361.386 207.078C361.386 206.354 361.428 205.639 361.471 204.915C361.465 204.898 361.454 204.883 361.44 204.873C361.426 204.862 361.408 204.857 361.391 204.857C361.373 204.857 361.356 204.862 361.341 204.873C361.327 204.883 361.316 204.898 361.311 204.915C361.311 205.622 361.252 206.338 361.226 207.045C361.226 207.398 361.226 207.752 361.226 208.114C361.226 208.249 361.226 208.409 361.226 208.569C360.603 207.601 359.963 206.641 359.307 205.706C359.113 205.428 358.911 205.159 358.717 204.864C358.62 203.935 358.603 203 358.667 202.069C358.667 201.075 358.667 200.073 358.726 199.079C358.726 198.987 358.574 198.987 358.574 199.079C358.574 200.115 358.49 201.151 358.439 202.186C358.382 202.923 358.362 203.662 358.38 204.401C356.848 202.313 355.223 200.3 353.573 198.305C353.522 198.237 353.404 198.305 353.455 198.397C354.474 199.694 355.45 201.016 356.41 202.355C354.541 201.917 352.646 201.664 350.744 201.395C350.651 201.395 350.609 201.53 350.744 201.538C352.747 201.85 354.726 202.38 356.705 202.784H356.747C357.505 203.854 358.263 204.931 359.004 206.009L359.904 207.331H359.82L359.206 207.247C358.768 207.196 358.322 207.163 357.884 207.129C356.966 207.053 356.048 207.003 355.13 206.952C355.038 206.952 355.038 207.104 355.13 207.112C356.031 207.112 356.932 207.196 357.825 207.297L359.248 207.466L359.871 207.542H360.048L361.572 209.79C362.473 211.112 363.256 212.535 364.232 213.814C364.242 213.83 364.258 213.841 364.276 213.845C364.295 213.849 364.314 213.846 364.329 213.836C364.345 213.825 364.356 213.81 364.36 213.791C364.364 213.773 364.36 213.754 364.35 213.739C363.592 212.318 362.751 210.943 361.833 209.621V209.621Z" fill="#263238"/>
<path d="M357.85 199.938C357.85 199.61 357.85 199.273 357.85 198.945C357.823 198.242 357.851 197.538 357.934 196.84C357.934 196.73 357.783 196.713 357.783 196.84C357.783 197.539 357.707 198.229 357.673 198.919C357.673 199.265 357.673 199.618 357.673 199.964V200.443C357.644 200.608 357.644 200.776 357.673 200.94C357.673 200.958 357.68 200.975 357.693 200.988C357.706 201.001 357.723 201.008 357.741 201.008C357.758 201.008 357.776 201.001 357.788 200.988C357.801 200.975 357.808 200.958 357.808 200.94C357.833 200.787 357.833 200.63 357.808 200.477L357.85 199.938Z" fill="#263238"/>
<path d="M355.922 203.492C355.332 203.391 354.726 203.357 354.128 203.306C353.531 203.256 352.823 203.197 352.166 203.113C352.146 203.113 352.127 203.121 352.113 203.135C352.099 203.149 352.091 203.168 352.091 203.188C352.091 203.209 352.099 203.228 352.113 203.242C352.127 203.256 352.146 203.264 352.166 203.264C353.421 203.34 354.692 203.567 355.922 203.609C355.972 203.618 355.989 203.5 355.922 203.492Z" fill="#263238"/>
<path d="M354.154 244.438C350.786 241.912 347.822 238.334 343.325 238.157C339.621 238.014 337.019 240.801 335.537 243.908C334.789 245.56 334.18 247.273 333.718 249.027C333.056 251.379 332.427 253.737 331.832 256.1C330.659 260.753 329.665 265.449 328.851 270.186C328.405 272.822 328.009 275.466 327.647 278.118C327.221 280.811 326.963 283.527 326.873 286.252C326.86 286.363 326.893 286.475 326.963 286.563C327.034 286.651 327.136 286.707 327.247 286.719C327.359 286.731 327.471 286.699 327.559 286.629C327.646 286.558 327.702 286.456 327.715 286.344C328.169 284.122 328.355 281.831 328.683 279.608C329.011 277.385 329.357 275.095 329.736 272.872C330.502 268.376 331.42 263.897 332.396 259.451C333.356 255.241 334.299 250.98 335.655 246.888C336.623 243.958 338.181 240.54 341.347 239.479C346.163 237.879 350.541 241.954 354.069 244.606C354.128 244.573 354.238 244.438 354.154 244.438Z" fill="#263238"/>
<path d="M350.701 242.005C350.701 242.005 347.628 233.214 352.074 231.488C358.751 228.903 376.214 248.572 372.796 278.707C372.796 278.707 359.324 271.281 349.337 262.92C339.351 254.559 336.8 243.596 341.212 240.809C345.624 238.022 350.701 242.005 350.701 242.005Z" fill="#4A26AB"/>
<path d="M370.775 272.224C370.31 271.171 369.767 270.155 369.15 269.184C368.585 268.157 368.004 267.13 367.407 266.111C366.253 264.124 365.1 262.137 363.912 260.217L363.323 259.266C363.323 259.148 363.373 259.03 363.399 258.912L363.601 258.07C363.744 257.422 363.862 256.756 363.98 256.1C364.224 254.811 364.451 253.498 364.822 252.235C364.822 252.142 364.695 252.109 364.67 252.235C364.392 253.523 363.988 254.761 363.609 256.049C363.424 256.672 363.222 257.295 363.054 257.918C363.003 258.137 362.944 258.348 362.885 258.567C361.454 256.218 359.997 253.877 358.423 251.612C358.526 251.3 358.577 250.972 358.574 250.644L358.726 249.33C358.844 248.336 358.961 247.343 359.105 246.358C359.361 244.416 359.715 242.488 360.165 240.582C360.165 240.489 360.039 240.464 360.014 240.582C359.534 242.476 359.012 244.379 358.65 246.299C358.473 247.242 358.305 248.193 358.178 249.145C358.119 249.616 358.069 250.096 358.018 250.576C358.018 250.711 357.976 250.862 357.959 251.006C357.479 250.324 356.991 249.642 356.486 248.976C354.945 246.947 353.345 244.968 351.737 242.998C351.678 242.922 351.552 242.998 351.611 243.082C354.368 246.612 356.899 250.313 359.189 254.163C359.635 254.87 360.031 255.586 360.502 256.293L360.073 256.243C359.509 256.167 358.936 256.133 358.389 256.083C357.266 255.976 356.129 255.875 354.979 255.78C352.705 255.603 350.423 255.46 348.159 255.224C348.057 255.224 348.032 255.359 348.159 255.367C350.457 255.637 352.739 255.999 355.029 256.327L358.397 256.782C359.251 256.958 360.119 257.048 360.991 257.051C361.889 258.499 362.784 259.95 363.677 261.404C363.475 261.387 363.272 261.387 363.07 261.404H359.82C358.355 261.404 356.898 261.404 355.433 261.404C355.332 261.404 355.349 261.556 355.433 261.556C356.915 261.556 358.389 261.648 359.871 261.724C360.578 261.724 361.277 261.8 361.984 261.851C362.329 261.851 362.683 261.909 363.037 261.926C363.342 261.989 363.657 261.989 363.963 261.926L366.236 265.623C366.932 266.745 367.642 267.868 368.367 268.991C369.039 270.194 369.805 271.342 370.657 272.426C370.69 272.392 370.808 272.35 370.775 272.224Z" fill="#263238"/>
<path d="M364.35 247.89C364.211 248.86 364.009 249.819 363.744 250.761C363.491 251.738 363.214 252.706 362.902 253.658C362.893 253.671 362.888 253.686 362.886 253.701C362.884 253.717 362.886 253.733 362.891 253.747C362.896 253.762 362.905 253.775 362.916 253.786C362.927 253.797 362.941 253.805 362.956 253.81C362.97 253.815 362.986 253.816 363.002 253.814C363.017 253.811 363.032 253.805 363.045 253.796C363.057 253.787 363.068 253.775 363.075 253.762C363.083 253.748 363.087 253.732 363.087 253.717C363.382 252.765 363.651 251.806 363.929 250.846C364.207 249.886 364.308 248.884 364.552 247.924C364.519 247.806 364.359 247.806 364.35 247.89Z" fill="#263238"/>
<path d="M354.431 253.784C354.23 253.605 353.969 253.506 353.699 253.506L352.428 253.33C351.636 253.22 350.845 253.136 350.053 253.043C348.411 252.85 346.761 252.69 345.119 252.488C345.099 252.488 345.08 252.496 345.065 252.51C345.051 252.524 345.043 252.543 345.043 252.563C345.043 252.583 345.051 252.603 345.065 252.617C345.08 252.631 345.099 252.639 345.119 252.639C346.668 252.824 348.209 253.06 349.758 253.262C350.516 253.363 351.274 253.473 352.04 253.557L353.135 253.683C353.562 253.685 353.985 253.756 354.389 253.894C354.401 253.892 354.412 253.887 354.422 253.88C354.431 253.872 354.438 253.862 354.442 253.851C354.447 253.84 354.448 253.828 354.446 253.816C354.444 253.804 354.439 253.793 354.431 253.784V253.784Z" fill="#263238"/>
<path d="M364.325 267.029C363.55 266.97 362.767 266.945 361.984 266.919H360.805H360.241C359.996 266.935 359.75 266.921 359.509 266.877C359.399 266.877 359.391 267.054 359.509 267.029C359.738 267.004 359.97 267.004 360.199 267.029H360.814L361.993 267.105C362.767 267.147 363.55 267.197 364.325 267.197C364.409 267.172 364.418 267.037 364.325 267.029Z" fill="#263238"/>
<path d="M369.082 263.661L369.335 262.339L369.815 259.729C369.815 259.636 369.68 259.611 369.663 259.729C369.47 260.571 369.276 261.413 369.091 262.255C368.99 262.676 368.897 263.097 368.813 263.518L368.687 264.107C368.623 264.308 368.6 264.52 368.619 264.73C368.619 264.806 368.737 264.857 368.788 264.781C368.952 264.428 369.052 264.049 369.082 263.661Z" fill="#263238"/>
<path d="M323.395 282.833L324.338 293.518L327.53 329.589H355.779L359.761 293.518L360.94 282.833H323.395Z" fill="#455A64"/>
<path d="M323.395 282.833L324.338 293.518H359.761L360.94 282.833H323.395Z" fill="#263238"/>
<path d="M320.6 288.593H363.744V279.928H320.6V288.593Z" fill="#455A64"/>
<path d="M25.8242 329.48L71.991 329.278L118.166 329.202L210.5 329.059L302.834 329.202L349.009 329.269L395.176 329.48L349.009 329.682L302.834 329.758L210.5 329.901L118.166 329.758L71.991 329.682L25.8242 329.48Z" fill="#263238"/>
<path d="M169.368 262.12V262.238C169.368 262.238 169.368 262.288 169.368 262.322C169.368 262.356 169.368 262.457 169.41 262.549V262.701C169.437 262.809 169.457 262.919 169.469 263.029C169.469 263.105 169.469 263.181 169.511 263.265C169.554 263.349 169.57 263.619 169.612 263.821C169.655 264.023 169.739 264.503 169.806 264.907L170.185 266.961C170.227 267.18 170.269 267.416 170.311 267.66C170.353 267.904 170.429 268.317 170.497 268.662C170.564 269.008 170.631 269.437 170.707 269.85C170.758 270.136 170.817 270.431 170.867 270.734C171.027 271.635 171.195 272.594 171.389 273.622C171.393 273.647 171.393 273.672 171.389 273.697C171.591 274.843 171.81 276.072 172.046 277.36C172.105 277.697 172.172 278.034 172.24 278.371C172.307 278.707 172.374 279.078 172.433 279.431C172.433 279.65 172.509 279.878 172.559 280.105C172.879 281.896 173.225 283.793 173.595 285.797C173.721 286.471 173.839 287.153 173.966 287.843C174.21 289.19 174.462 290.571 174.723 291.994C174.791 292.323 174.85 292.651 174.9 292.988C175.276 295.048 175.666 297.192 176.071 299.421C176.121 299.648 176.155 299.875 176.197 300.103C176.391 301.147 176.584 302.199 176.769 303.277C176.794 303.359 176.811 303.444 176.82 303.53L177.098 305.062C177.468 307.116 177.85 309.219 178.243 311.369C178.344 311.899 178.445 312.438 178.538 312.985C178.731 314.071 178.933 315.166 179.135 316.269C179.388 317.641 179.641 319.022 179.893 320.429C180.146 321.835 180.398 323.241 180.66 324.639C180.794 325.354 180.921 326.07 181.055 326.786C181.207 327.628 181.367 328.47 181.518 329.371H254.284C245.308 292.078 237.739 262.01 237.739 262.01L169.368 262.12Z" fill="#455A64"/>
<path d="M180.365 270.54C184.008 290.187 187.69 309.833 191.412 329.48H192.422C188.557 309.786 184.575 290.125 180.634 270.456C180.575 270.271 180.34 270.346 180.365 270.54Z" fill="#37474F"/>
<path d="M169.377 262.12C169.377 262.12 169.377 262.162 169.377 262.238C169.377 262.314 169.377 262.288 169.377 262.322C169.377 262.356 169.377 262.457 169.419 262.549V262.701C169.445 262.809 169.465 262.919 169.478 263.029C169.478 263.105 169.478 263.181 169.52 263.265C169.562 263.349 169.587 263.619 169.621 263.821C169.655 264.023 169.747 264.503 169.815 264.907C169.932 265.505 170.05 266.187 170.193 266.961C170.236 267.18 170.278 267.416 170.32 267.66C170.362 267.905 170.438 268.317 170.505 268.662C170.572 269.008 170.64 269.437 170.715 269.85C170.766 270.136 170.825 270.431 170.875 270.734C171.044 271.635 171.212 272.594 171.398 273.622C171.401 273.647 171.401 273.672 171.398 273.697C171.608 274.843 171.827 276.055 172.063 277.343C172.13 277.68 172.189 278.025 172.248 278.371C172.307 278.716 172.383 279.078 172.442 279.432C172.492 279.65 172.526 279.878 172.568 280.105C172.896 281.89 173.241 283.793 173.604 285.797C173.73 286.471 173.848 287.153 173.974 287.843C174.227 289.19 174.479 290.571 174.732 291.994C174.799 292.323 174.858 292.651 174.909 292.988C175.296 295.059 175.686 297.203 176.079 299.421C176.13 299.648 176.163 299.875 176.205 300.103C176.399 301.147 176.593 302.199 176.778 303.277C176.803 303.359 176.82 303.444 176.828 303.53L177.106 305.062C177.482 307.116 177.864 309.219 178.251 311.369C178.352 311.899 178.453 312.438 178.546 312.985C178.748 314.071 178.942 315.166 179.144 316.269C179.396 317.641 179.649 319.022 179.902 320.428C180.154 321.835 180.415 323.241 180.668 324.638C180.803 325.354 180.929 326.07 181.064 326.786C181.215 327.628 181.375 328.47 181.535 329.371H218.078L221 299.463L221.101 298.402L221.219 297.257L221.791 291.405L222.288 286.353L224.637 262.12H169.377Z" fill="#263238"/>
<path d="M128.026 329.48H206.509C206.644 322.256 206.787 315.267 206.964 308.674C206.964 308.514 206.964 308.354 206.964 308.194C206.964 308.194 216.125 302.772 221.059 298.52C221.897 297.83 222.67 297.063 223.366 296.229C226.523 292.205 229.689 276.729 236.24 262.171H140.252C124.658 292.432 125.753 316.749 128.026 329.48Z" fill="#455A64"/>
<path d="M225.656 295.16C220.983 297.071 216.781 300.01 212.639 302.848C208.336 305.786 204.387 309.188 200.244 312.345C200.084 312.472 200.244 312.733 200.413 312.615C204.774 309.828 209.346 307.378 213.666 304.506C217.985 301.635 222.221 299.008 225.867 295.497C226.01 295.362 225.85 295.076 225.656 295.16Z" fill="#263238"/>
<path d="M226.245 268.157C225.69 271.146 224.957 274.11 224.317 277.082C223.711 279.869 223.265 282.707 222.532 285.502C221.931 288.17 220.574 290.607 218.625 292.525C217.531 293.543 216.327 294.444 215.156 295.371C214.533 295.876 213.851 296.356 213.194 296.869C213.279 296.474 213.354 296.027 213.422 295.665C213.624 294.529 213.809 293.4 214.003 292.297C214.424 289.771 214.845 287.245 215.215 284.719C215.973 279.76 216.672 274.75 217.741 269.841C217.752 269.8 217.747 269.756 217.725 269.719C217.704 269.682 217.669 269.654 217.628 269.643C217.586 269.632 217.542 269.638 217.505 269.659C217.468 269.68 217.441 269.716 217.43 269.757C216.192 274.624 214.828 279.44 213.759 284.349C213.228 286.749 211.342 298.663 211.233 299.505C211.123 300.347 211.073 301.248 211.047 302.115C210.934 303.001 210.934 303.898 211.047 304.784C211.065 304.824 211.095 304.857 211.131 304.88C211.168 304.904 211.21 304.916 211.254 304.916C211.297 304.916 211.339 304.904 211.376 304.88C211.413 304.857 211.442 304.824 211.46 304.784V304.784C211.819 303.96 212.073 303.095 212.218 302.208C212.437 301.36 212.622 300.501 212.773 299.631C212.832 299.328 212.874 299.008 212.917 298.688C214.087 297.972 215.181 297.004 216.285 296.246C217.388 295.488 218.659 294.562 219.779 293.619C221.838 291.874 223.325 289.551 224.048 286.951C224.766 284.152 225.234 281.295 225.445 278.413C225.824 275.045 226.094 271.677 226.565 268.309C226.582 268.014 226.279 267.955 226.245 268.157Z" fill="#263238"/>
<path d="M146.382 288.971C147.628 288.323 152.486 289.477 161.319 287.969C163.048 287.746 164.69 287.079 166.084 286.033C168.392 284.155 170.135 281.132 171.524 278.547C173.191 275.639 174.47 272.526 175.33 269.285C175.372 269.083 175.658 269.184 175.624 269.37C175.296 271.197 175.111 273.024 174.631 274.834C174.153 276.533 173.542 278.191 172.804 279.794C171.465 282.791 169.907 286.008 167.221 288.037C164.4 290.159 160.485 290.563 157.05 290.799C155.071 290.933 147.316 290.723 146.281 289.62C146.241 289.572 146.212 289.516 146.196 289.457C146.179 289.397 146.175 289.334 146.185 289.273C146.195 289.212 146.217 289.153 146.251 289.101C146.285 289.049 146.329 289.005 146.382 288.971V288.971Z" fill="#263238"/>
<path d="M207.351 148.096C226.498 158.722 297.327 185.902 313.224 176.236C325.071 169.028 323.379 153.561 313.3 143.583C304.535 134.902 238.859 132.46 220.478 131.955C203.006 131.442 188.608 137.656 207.351 148.096Z" fill="#AD6359"/>
<path d="M254.444 172.068L282.988 132.907C282.988 132.907 233.596 128.099 212.74 129.901C190.999 131.778 186.545 140.283 212.79 152.382C238.64 164.296 254.444 172.068 254.444 172.068Z" fill="#4A26AB"/>
<path d="M249.628 164.515C250.2 163.505 250.916 162.57 251.573 161.619C252.229 160.667 252.928 159.665 253.602 158.68C254.974 156.693 256.381 154.731 257.812 152.786C260.641 148.879 263.453 144.964 266.35 141.108C267.141 140.047 267.941 138.986 268.766 137.95C269.592 136.915 270.577 135.82 271.436 134.734C271.486 134.658 271.579 134.734 271.537 134.818C270.863 135.803 270.274 136.847 269.608 137.841C268.943 138.834 268.228 139.87 267.52 140.864C266.123 142.834 264.719 144.799 263.31 146.758C260.498 150.58 257.702 154.42 254.806 158.184L252.373 161.333C251.531 162.427 250.731 163.598 249.788 164.616C249.687 164.633 249.586 164.583 249.628 164.515Z" fill="#263238"/>
<path d="M230.54 136.047C230.007 137.177 229.636 138.376 229.437 139.609C230.247 138.658 230.917 137.594 231.424 136.452C231.957 135.322 232.328 134.123 232.527 132.89C231.719 133.843 231.05 134.906 230.54 136.047ZM241.292 154.639C240.164 154.102 238.964 153.73 237.73 153.536C239.669 155.132 241.991 156.195 244.466 156.617C243.509 155.808 242.44 155.141 241.292 154.639V154.639ZM211.662 141.301C210.534 140.764 209.334 140.393 208.1 140.198C210.039 141.795 212.361 142.858 214.836 143.28C213.877 142.474 212.808 141.807 211.662 141.301V141.301ZM254.739 139.331C254.32 138.154 253.736 137.043 253.004 136.031C253.232 138.523 254.102 140.913 255.53 142.969C255.445 141.724 255.178 140.499 254.739 139.331V139.331ZM263.394 153.645C262.219 154.068 261.108 154.651 260.094 155.38C262.586 155.152 264.977 154.282 267.032 152.854C265.788 152.943 264.563 153.209 263.394 153.645V153.645Z" fill="white"/>
<path d="M212.79 152.374C238.64 164.288 254.444 172.068 254.444 172.068L263.546 159.539L195.125 136.132C193.163 140.106 198.299 145.697 212.79 152.374Z" fill="#263238"/>
<path d="M273.145 61.7914C267.84 54.407 254.326 44.1094 240.829 36.1525C234.278 32.2708 214.297 23.1351 210.938 27.9261C207.578 32.7171 213.178 35.9167 213.178 35.9167C213.178 35.9167 204.16 33.3149 201.213 38.4427C198.266 43.5705 207.132 48.252 207.132 48.252C207.132 48.252 197.668 46.2565 195.1 51.62C192.532 56.9835 202.248 60.1579 202.248 60.1579C202.248 60.1579 193.685 57.935 193.416 63.2143C193.096 69.5799 209.346 71.8954 216.369 76.5516C217.969 77.6041 247.186 100.262 247.186 100.262L273.145 61.7914Z" fill="#AD6359"/>
<path d="M202.366 60.2926C214.314 62.0355 219.206 64.8562 228.275 72.5774C228.451 72.7289 228.712 72.5016 228.544 72.3248C220.385 63.9637 214.718 59.5264 202.442 59.6948C201.819 59.72 201.802 60.2168 202.366 60.2926Z" fill="#263238"/>
<path d="M206.703 48.0415C218.954 50.9296 224.317 53.9355 234.379 61.3367C234.514 61.4461 234.708 61.2104 234.573 61.0925C225.311 53.0177 219.56 48.7235 206.938 47.4521C206.374 47.41 206.138 47.9152 206.703 48.0415Z" fill="#263238"/>
<path d="M214.18 36.203C225.833 39.8573 231.862 42.939 240.703 51.359C240.745 51.3962 240.8 51.4161 240.857 51.4149C240.913 51.4137 240.967 51.3915 241.008 51.3526C241.049 51.3136 241.074 51.2608 241.079 51.2043C241.083 51.1479 241.066 51.092 241.031 51.0474C232.855 41.5749 225.361 37.7102 214.323 35.8914C213.573 35.7399 213.439 35.9757 214.18 36.203Z" fill="#263238"/>
<path d="M251.8 107.537C251.8 107.537 237.023 104.279 230.851 101.424C224.679 98.5699 205.591 79.4313 209.49 75.0697C214.542 69.4452 227.719 78.3198 233.613 83.4897C233.613 83.4897 245.241 70.464 256.086 74.7834C266.931 79.1029 251.8 107.537 251.8 107.537Z" fill="#AD6359"/>
<path d="M211.384 73.9835C219.678 72.1648 226.97 79.4733 233.066 84.0875C233.151 84.1609 233.254 84.2122 233.364 84.2368C233.474 84.2615 233.589 84.2587 233.698 84.2288C233.806 84.1989 233.906 84.1427 233.988 84.0652C234.071 83.9878 234.132 83.8913 234.169 83.7844C239.406 78.6566 248.297 72.9394 255.901 74.3792C255.943 74.3839 255.985 74.3735 256.02 74.3499C256.054 74.3263 256.08 74.291 256.091 74.2504C256.102 74.2098 256.098 74.1666 256.08 74.1284C256.063 74.0903 256.032 74.0598 255.993 74.0425C248.045 71.3817 238.859 76.2906 233.478 82.2772C227.306 77.4525 219.669 70.4387 211.359 73.9077C211.352 73.913 211.347 73.9204 211.344 73.9289C211.341 73.9373 211.341 73.9463 211.344 73.9547C211.347 73.9631 211.352 73.9704 211.36 73.9756C211.367 73.9807 211.375 73.9835 211.384 73.9835V73.9835Z" fill="#263238"/>
<path d="M321.509 162.495C320.979 178.855 301.579 177.726 293.201 169.946C273.524 151.7 244.517 114.467 236.653 91.514C234.127 84.1296 263.832 51.679 269.608 57.7077C279.872 68.4011 322.587 129.295 321.509 162.495Z" fill="#AD6359"/>
<path d="M271.68 146.766C273.128 148.239 274.517 149.747 275.89 151.271C277.262 152.795 278.643 154.319 280.007 155.851L284.057 160.491C284.722 161.265 285.404 162.031 286.095 162.798C286.785 163.564 287.467 164.322 288.158 165.088C286.541 163.806 285.014 162.417 283.586 160.928C282.129 159.472 280.74 157.948 279.376 156.407C278.012 154.866 276.681 153.3 275.401 151.683C274.121 150.067 272.867 148.45 271.68 146.766Z" fill="#263238"/>
<path d="M279.931 156.382C280.622 157.375 281.22 158.344 281.817 159.337C282.104 159.834 282.398 160.331 282.659 160.844C282.943 161.367 283.193 161.907 283.409 162.461C282.466 161.719 281.677 160.801 281.085 159.758C280.78 159.246 280.521 158.708 280.31 158.15C280.091 157.584 279.963 156.987 279.931 156.382V156.382Z" fill="#263238"/>
<path d="M244.971 278.253H131.352C131.352 278.253 148.706 169.87 190.57 132.806C195.74 128.225 207.41 129.269 214.988 133.05C217.708 134.405 227.466 148.054 230.253 160.971C233.04 173.887 245.275 277.865 244.971 278.253Z" fill="#4A26AB"/>
<path d="M177.485 164.069C176.308 164.486 175.196 165.07 174.185 165.804C176.681 165.563 179.072 164.678 181.123 163.235C179.877 163.338 178.652 163.619 177.485 164.069V164.069ZM232.754 176.699C232.704 176.73 232.657 176.764 232.611 176.8H232.762C232.762 176.8 232.754 176.691 232.754 176.665V176.699ZM203.234 193.792C202.058 194.214 200.947 194.798 199.933 195.526C202.429 195.286 204.82 194.401 206.871 192.958C205.627 193.05 204.402 193.319 203.234 193.758V193.792ZM187.766 240.826C186.588 241.246 185.477 241.833 184.465 242.569C185.712 242.463 186.937 242.18 188.103 241.727C189.28 241.305 190.391 240.718 191.403 239.984C190.157 240.089 188.932 240.373 187.766 240.826V240.826ZM161.773 207.988C160.598 208.41 159.487 208.994 158.473 209.722C160.969 209.482 163.36 208.597 165.411 207.154C164.175 207.268 162.962 207.557 161.807 208.013L161.773 207.988ZM138.467 273.445C137.29 273.864 136.179 274.448 135.166 275.179C137.664 274.941 140.056 274.053 142.104 272.603C140.868 272.72 139.655 273.012 138.501 273.47L138.467 273.445ZM188.642 269.344C187.465 269.763 186.354 270.347 185.341 271.079C187.839 270.841 190.231 269.952 192.279 268.502C191.042 268.615 189.828 268.907 188.675 269.37L188.642 269.344ZM244.542 273.959C243.736 274.119 242.945 274.344 242.176 274.632C241 275.053 239.889 275.637 238.875 276.367C240.122 276.26 241.347 275.977 242.513 275.525C243.236 275.253 243.939 274.933 244.618 274.565C244.626 274.405 244.609 274.194 244.576 273.984L244.542 273.959ZM221.059 239.521C219.882 239.94 218.771 240.524 217.758 241.255C220.254 241.015 222.645 240.13 224.696 238.687C223.46 238.797 222.246 239.086 221.092 239.546L221.059 239.521ZM189.189 146.53C188.77 145.353 188.186 144.242 187.454 143.23C187.695 145.726 188.58 148.117 190.023 150.168C189.924 148.921 189.643 147.695 189.189 146.53V146.53ZM164.19 273.655C163.773 272.478 163.189 271.366 162.455 270.355C162.701 272.846 163.589 275.231 165.032 277.276C164.929 276.035 164.645 274.815 164.19 273.655ZM159.205 242.005C158.782 240.829 158.193 239.72 157.454 238.712C157.56 239.956 157.844 241.178 158.296 242.341C158.714 243.52 159.302 244.632 160.039 245.642C159.936 244.396 159.656 243.171 159.205 242.005V242.005ZM202.425 223.194C202.005 222.018 201.421 220.907 200.691 219.894C200.931 222.39 201.816 224.781 203.259 226.832C203.156 225.586 202.875 224.361 202.425 223.194V223.194ZM187.134 182.618C186.712 181.441 186.126 180.33 185.392 179.318C185.63 181.816 186.518 184.208 187.968 186.256C187.865 185.01 187.585 183.785 187.134 182.618V182.618ZM208.067 275.238C208.145 276.28 208.357 277.307 208.698 278.295H209.709C209.303 277.193 208.75 276.151 208.067 275.196V275.238ZM240.256 251.662C239.838 250.484 239.251 249.372 238.513 248.362C238.624 249.605 238.907 250.826 239.355 251.991C239.774 253.169 240.361 254.281 241.098 255.291C240.996 254.036 240.713 252.802 240.256 251.629V251.662ZM220.604 159.446C220.184 158.271 219.597 157.163 218.861 156.154C218.972 157.397 219.255 158.619 219.703 159.783C220.115 160.963 220.699 162.076 221.438 163.084C221.335 161.838 221.054 160.613 220.604 159.446V159.446ZM211.679 141.301C210.551 140.764 209.351 140.393 208.117 140.198C210.055 141.795 212.378 142.858 214.853 143.28C213.889 142.472 212.814 141.806 211.662 141.301H211.679ZM174.488 226.394C173.36 225.853 172.161 225.479 170.926 225.282C171.88 226.093 172.947 226.763 174.092 227.27C175.221 227.803 176.42 228.174 177.654 228.373C176.699 227.564 175.633 226.898 174.488 226.394V226.394ZM145.11 255.99C143.982 255.453 142.783 255.082 141.549 254.887C143.487 256.484 145.809 257.546 148.285 257.969C147.328 257.159 146.258 256.493 145.11 255.99V255.99ZM221.918 263.366C220.789 262.829 219.59 262.458 218.356 262.263C220.294 263.86 222.616 264.922 225.092 265.345C224.133 264.538 223.064 263.872 221.918 263.366V263.366ZM219.476 216.425C218.347 215.889 217.148 215.517 215.914 215.322C216.864 216.133 217.928 216.799 219.072 217.3C220.201 217.836 221.4 218.21 222.633 218.412C221.682 217.601 220.618 216.932 219.476 216.425V216.425ZM211.662 176.581C210.534 176.044 209.334 175.673 208.1 175.478C210.039 177.075 212.361 178.137 214.836 178.56C213.879 177.75 212.81 177.084 211.662 176.581V176.581ZM164.847 187.62C164.309 188.747 163.937 189.947 163.744 191.181C165.338 189.241 166.4 186.92 166.825 184.445C166.017 185.403 165.35 186.472 164.847 187.62V187.62ZM202.577 253.026C202.038 254.154 201.664 255.354 201.465 256.588C202.276 255.637 202.945 254.573 203.452 253.431C203.986 252.301 204.357 251.102 204.555 249.869C203.749 250.822 203.083 251.885 202.577 253.026V253.026ZM225.656 195.29C225.119 196.421 224.748 197.624 224.553 198.861C225.359 197.904 226.026 196.838 226.532 195.695C227.069 194.567 227.44 193.367 227.635 192.133C226.828 193.086 226.162 194.149 225.656 195.29ZM174.041 256.394C173.504 257.522 173.133 258.722 172.938 259.956C174.532 258.016 175.594 255.695 176.02 253.22C175.214 254.179 174.548 255.248 174.041 256.394ZM144.47 224.769C143.933 225.9 143.562 227.102 143.367 228.339C144.174 227.383 144.84 226.317 145.346 225.173C145.883 224.045 146.255 222.845 146.449 221.611C145.646 222.567 144.98 223.629 144.47 224.769V224.769ZM184.701 207.087C184.16 208.216 183.789 209.419 183.598 210.657C184.401 209.699 185.067 208.633 185.577 207.491C186.11 206.362 186.481 205.163 186.68 203.929C185.871 204.89 185.205 205.962 184.701 207.112V207.087ZM199.495 160.928C198.963 162.058 198.592 163.257 198.392 164.49C199.203 163.539 199.872 162.475 200.379 161.333C200.912 160.203 201.284 159.004 201.482 157.771C200.672 158.732 200.003 159.804 199.495 160.954V160.928Z" fill="white"/>
<path d="M171.128 282.151C171.128 275.794 172.972 237.382 171.877 224.786C171.507 220.576 186.09 173.483 189.854 157.67C193.391 142.834 185.838 136.283 174.749 150.252C165.529 161.871 141.431 207.247 136.564 219.363C131.697 231.48 126.628 272.3 126.662 280.93C126.696 287.759 171.103 288.433 171.128 282.151Z" fill="#AD6359"/>
<path d="M175.978 336.848C171.608 339.045 168.072 335.416 168.072 335.416C166.804 337.499 164.847 339.073 162.54 339.862C158.414 341.058 154.717 335.105 154.717 335.105C152.952 336.992 150.657 338.301 148.133 338.86C144.066 339.609 139.494 334.136 139.494 334.136C136.914 334.972 134.119 334.849 131.621 333.791C125.062 330.701 123.757 319.713 122.856 312.741C121.955 305.769 126.435 283.111 126.788 279.103L171.035 274.893C171.035 274.893 183.985 305.045 183.876 313.398C183.758 320.471 180.853 334.372 175.978 336.848Z" fill="#AD6359"/>
<path d="M168.232 335.248C170.118 327.779 169.705 320.167 169.713 312.514C169.706 312.485 169.689 312.459 169.666 312.441C169.642 312.422 169.613 312.412 169.583 312.412C169.553 312.412 169.524 312.422 169.5 312.441C169.477 312.459 169.46 312.485 169.452 312.514C169.528 320.092 168.097 327.594 167.87 335.163C167.858 335.211 167.867 335.262 167.893 335.304C167.919 335.346 167.96 335.375 168.008 335.387C168.056 335.398 168.107 335.389 168.149 335.363C168.191 335.337 168.22 335.296 168.232 335.248Z" fill="#263238"/>
<path d="M155.256 334.886C155.516 333.149 155.553 331.386 155.366 329.64C155.273 327.779 155.147 325.927 154.995 324.066C154.698 320.361 154.305 316.659 153.817 312.96C153.817 312.8 153.539 312.792 153.556 312.96C153.85 316.656 154.086 320.361 154.221 324.066C154.297 325.927 154.347 327.779 154.389 329.64C154.313 331.393 154.431 333.15 154.743 334.877C154.759 334.932 154.793 334.98 154.838 335.015C154.884 335.049 154.939 335.069 154.997 335.069C155.054 335.07 155.11 335.053 155.156 335.02C155.203 334.987 155.238 334.94 155.256 334.886Z" fill="#263238"/>
<path d="M139.452 333.976C139.839 332.52 139.452 330.743 139.292 329.253C139.124 327.569 138.955 325.885 138.804 324.201C138.492 320.833 138.189 317.465 138.004 314.097C138.004 313.928 137.726 313.928 137.734 314.097C137.911 317.532 138.037 320.984 138.248 324.42C138.349 326.104 138.458 327.788 138.576 329.472C138.677 330.911 138.644 332.713 139.284 334.035C139.317 334.077 139.427 334.052 139.452 333.976Z" fill="#263238"/>
<path d="M180.786 206.312L134.905 206.464C134.905 206.464 159.972 163.64 173.637 147.802C187.901 131.29 197.407 132.646 191.816 161.021C186.335 188.95 180.786 206.312 180.786 206.312Z" fill="#4A26AB"/>
<path d="M164.847 187.62C164.309 188.747 163.937 189.947 163.744 191.182C165.338 189.241 166.4 186.92 166.825 184.446C166.017 185.403 165.35 186.472 164.847 187.62V187.62ZM171.684 150.185L171.212 150.766C171.807 150.965 172.418 151.109 173.039 151.195C172.618 150.819 172.165 150.481 171.684 150.185V150.185ZM157.016 173.761C156.794 173.168 156.538 172.589 156.25 172.026L155.711 172.868C155.829 173.289 155.964 173.71 156.107 174.106C156.527 175.284 157.114 176.395 157.85 177.406C157.753 176.14 157.472 174.895 157.016 173.71V173.761ZM187.135 182.652C186.712 181.475 186.126 180.364 185.392 179.351C185.497 180.598 185.78 181.823 186.234 182.989C186.402 183.418 186.579 183.831 186.764 184.26C186.89 183.738 187.017 183.216 187.151 182.677L187.135 182.652ZM189.189 146.564C188.77 145.387 188.186 144.276 187.454 143.263C187.695 145.759 188.58 148.15 190.023 150.201C189.927 148.943 189.646 147.706 189.189 146.53V146.564ZM143.199 196.36C142.038 196.769 140.939 197.336 139.932 198.044C142.422 197.8 144.807 196.915 146.853 195.476C145.601 195.582 144.37 195.869 143.199 196.326V196.36ZM177.485 164.103C176.308 164.52 175.196 165.104 174.185 165.837C176.681 165.597 179.072 164.712 181.123 163.269C179.878 163.361 178.653 163.63 177.485 164.069V164.103Z" fill="white"/>
<path d="M142.424 199.071C143.578 198.945 144.757 198.978 145.91 198.962L149.48 198.894C151.897 198.844 154.313 198.835 156.721 198.844C161.546 198.844 166.371 198.844 171.187 198.936C172.517 198.936 173.839 198.995 175.161 199.054C176.483 199.113 177.948 199.282 179.371 199.34C179.455 199.34 179.439 199.467 179.371 199.475C178.176 199.475 176.98 199.635 175.784 199.677C174.589 199.719 173.334 199.745 172.105 199.753C169.697 199.753 167.289 199.753 164.872 199.753C160.123 199.711 155.374 199.686 150.625 199.534L146.651 199.399C145.27 199.357 143.847 199.399 142.441 199.214C142.365 199.189 142.349 199.079 142.424 199.071Z" fill="#263238"/>
<path d="M186.924 185.035C187.909 183.544 188.597 181.877 188.953 180.126C188.953 180.126 188.903 180.084 188.894 180.126C188.401 181.632 187.781 183.094 187.042 184.496L187.471 182.602C187.977 180.303 188.49 178.021 188.886 175.706C188.886 175.706 188.835 175.647 188.827 175.706C187.673 179.629 186.697 183.62 185.636 187.578C184.575 191.535 183.497 195.602 182.445 199.618C181.864 201.816 181.283 204.005 180.761 206.203C180.011 206.27 179.43 206.245 178.765 206.304C178.588 206.304 178.571 206.624 178.765 206.641C179.606 206.707 180.452 206.693 181.291 206.599C183.556 199.517 185.291 192.276 186.924 185.035Z" fill="#263238"/>
<path d="M187.69 138.893C190.907 144.845 195.613 149.861 201.347 153.451C204.088 155.262 207.236 156.362 210.508 156.651C212.21 156.825 213.923 156.463 215.409 155.615C216.787 154.616 217.88 153.275 218.583 151.725C219.436 149.97 220.024 148.097 220.326 146.168C220.704 143.986 220.926 141.78 220.991 139.567C220.991 139.483 221.118 139.5 221.109 139.567C221.05 141.663 221.16 143.777 220.941 145.848C220.786 147.69 220.396 149.504 219.779 151.245C219.187 152.894 218.251 154.398 217.034 155.658C215.754 156.895 214.071 157.63 212.293 157.729C208.808 157.898 205.349 157.037 202.349 155.253C199.313 153.564 196.558 151.414 194.182 148.879C191.437 145.956 189.185 142.606 187.513 138.961C187.503 138.948 187.495 138.934 187.491 138.918C187.487 138.902 187.487 138.885 187.491 138.87C187.495 138.854 187.503 138.839 187.514 138.827C187.524 138.815 187.538 138.805 187.553 138.799C187.568 138.794 187.585 138.792 187.601 138.793C187.617 138.795 187.633 138.801 187.646 138.81C187.66 138.82 187.671 138.832 187.678 138.846C187.686 138.861 187.69 138.877 187.69 138.893Z" fill="#263238"/>
<path d="M213.388 152.003C206.905 153.814 195.268 144.265 190.503 136.334C190.183 135.786 190.797 129.901 191.21 122.702C191.437 118.332 191.597 113.44 191.42 109.011C191.378 108.101 219.619 114.677 219.619 114.677C219.619 114.677 217.244 124.116 217.606 131.879C217.638 132.492 217.725 133.101 217.868 133.698C217.868 133.782 217.91 133.883 217.926 134.001C218.625 137.453 219.653 150.252 213.388 152.003Z" fill="#AD6359"/>
<path d="M215.064 134.262C216.021 134.255 216.975 134.167 217.918 134.001C217.908 133.899 217.891 133.798 217.868 133.698C217.721 133.102 217.634 132.493 217.606 131.879C217.253 124.125 219.61 114.677 219.61 114.677C219.61 114.677 196.691 109.339 192.178 108.943C193.247 114.054 198.577 134.565 215.064 134.262Z" fill="#263238"/>
<path d="M193.449 70.2619C188.397 79.305 187.404 108.388 192.927 116.126C200.943 127.341 217.101 131.77 227.399 121.439C237.377 111.402 237.991 73.512 231.55 66.1614C222.019 55.3417 200.935 56.9078 193.449 70.2619Z" fill="#AD6359"/>
<path d="M226.885 73.3941C225.693 74.8446 224.15 75.9664 222.402 76.6531C220.654 77.3398 218.76 77.5686 216.899 77.3178C213.211 76.7874 209.515 74.3203 208.134 70.7755C208.122 70.7577 208.105 70.7446 208.084 70.7382C208.064 70.7319 208.042 70.7328 208.022 70.7407C208.003 70.7486 207.986 70.763 207.976 70.7817C207.965 70.8003 207.962 70.8219 207.966 70.8429C209.448 74.6234 212.597 77.7052 216.764 78.2019C218.741 78.4009 220.735 78.078 222.548 77.2654C224.361 76.4528 225.929 75.1789 227.096 73.5709C227.197 73.4278 226.995 73.2594 226.885 73.3941Z" fill="#263238"/>
<path d="M215.948 49.835C211.367 48.6056 206.349 50.8117 203.638 54.5754C202.075 56.847 201.114 59.4772 200.842 62.2208C200.848 62.2396 200.86 62.2561 200.876 62.2678C200.892 62.2795 200.911 62.2858 200.931 62.2858C200.95 62.2858 200.97 62.2795 200.986 62.2678C201.001 62.2561 201.013 62.2396 201.019 62.2208C201.802 57.9013 204.505 53.5313 208.521 51.5611C210.35 50.5871 212.437 50.208 214.491 50.4766C216.545 50.7453 218.464 51.6483 219.981 53.0598C221.657 54.6378 222.745 56.741 223.063 59.0212C223.076 59.0672 223.106 59.1069 223.146 59.1331C223.186 59.1593 223.234 59.1704 223.282 59.1643C223.33 59.1582 223.374 59.1354 223.406 59.0999C223.438 59.0645 223.457 59.0186 223.458 58.9707C223.296 56.8611 222.488 54.8527 221.144 53.2183C219.8 51.5839 217.986 50.4026 215.948 49.835Z" fill="#263238"/>
<path d="M250.377 60.4021C249.341 57.4389 247.285 54.9409 244.576 53.3545C240.829 51.1316 236.653 51.5526 232.51 52.0494C232.491 52.0553 232.475 52.0671 232.463 52.083C232.451 52.0989 232.445 52.1181 232.445 52.1378C232.445 52.1576 232.451 52.1768 232.463 52.1927C232.475 52.2086 232.491 52.2204 232.51 52.2262C236.038 51.8137 239.642 51.5947 242.925 53.203C245.641 54.5117 247.822 56.7188 249.097 59.4506C250.319 62.2618 250.488 65.419 249.572 68.3444C248.657 71.2698 246.719 73.7678 244.113 75.3812C242.587 76.2711 240.895 76.8393 239.142 77.0507C237.388 77.2621 235.61 77.1123 233.916 76.6106C233.79 76.6106 233.689 76.7705 233.832 76.8126C236.123 77.5867 238.585 77.7072 240.941 77.1605C243.297 76.6138 245.454 75.4216 247.17 73.7176C248.886 72.0136 250.094 69.8651 250.657 67.5132C251.221 65.1613 251.118 62.6988 250.36 60.4021H250.377Z" fill="#263238"/>
<path d="M191.816 74.1688C191.816 74.1688 192.321 65.2857 194.62 62.566C196.919 59.8463 202.004 59.198 202.004 59.198C202.004 59.198 204.968 51.6789 212.108 51.1737C218.541 50.7191 222.903 56.3941 222.903 56.3941C222.903 56.3941 231.794 47.5447 241.974 52.5546C251.64 57.3119 250.394 72.0217 241.09 76.7369C234.522 80.0375 225.471 74.3203 225.471 74.3203C224.629 74.4466 215.847 79.9028 209.06 72.1059C209.06 72.1059 203.04 76.8211 199.562 73.5289C199.554 73.512 194.957 75.7517 191.816 74.1688Z" fill="#263238"/>
<path opacity="0.2" d="M199.091 63.8711C198.779 68.2663 197.769 80.7785 196.169 83.5234C194.569 86.2683 190.755 93.4506 189.206 93.9558C189.374 84.5001 190.89 74.8255 193.416 70.2619C194.838 67.7572 196.772 65.5798 199.091 63.8711V63.8711Z" fill="#263238"/>
<path d="M193.256 93.7958C193.256 93.7958 188.692 83.4644 184.12 84.9211C179.548 86.3778 181.737 100.481 186.225 103.235C186.778 103.622 187.402 103.895 188.062 104.038C188.722 104.18 189.404 104.189 190.067 104.063C190.73 103.937 191.362 103.68 191.924 103.307C192.486 102.933 192.967 102.45 193.34 101.887L193.256 93.7958Z" fill="#AD6359"/>
<path d="M184.853 88.9459C184.777 88.9459 184.735 89.0301 184.802 89.0722C187.918 91.1098 189.088 94.6125 189.694 98.1237C188.936 96.667 187.699 95.7071 185.779 96.5744C185.678 96.6249 185.779 96.7765 185.838 96.7765C186.468 96.7003 187.105 96.8213 187.663 97.123C188.221 97.4246 188.672 97.8919 188.953 98.4605C189.42 99.4225 189.779 100.433 190.023 101.475C190.124 101.803 190.696 101.753 190.654 101.382C190.658 101.354 190.658 101.326 190.654 101.298C191.58 97.0122 189.45 90.2931 184.853 88.9459Z" fill="#263238"/>
<path d="M213.531 93.299C213.531 93.2232 213.371 93.3832 213.371 93.4674C213.371 95.4293 213.018 97.6774 211.216 98.2584C211.165 98.2584 211.165 98.3678 211.216 98.3678C213.405 98.1405 213.868 95.1598 213.531 93.299Z" fill="#263238"/>
<path d="M211.856 91.194C208.715 90.8404 208.227 97.147 211.14 97.4753C214.053 97.8037 214.491 91.4887 211.856 91.194Z" fill="#263238"/>
<path d="M225.816 94.1326C225.816 94.0568 225.968 94.2336 225.959 94.3094C225.74 96.2628 225.824 98.5194 227.542 99.3614C227.601 99.3614 227.584 99.4793 227.542 99.4624C225.387 98.9572 225.302 95.9429 225.816 94.1326Z" fill="#263238"/>
<path d="M227.719 92.2213C230.885 92.2213 230.641 98.5531 227.719 98.5447C224.797 98.5362 225.067 92.2213 227.719 92.2213Z" fill="#263238"/>
<path d="M208.715 87.2703C209.456 86.7819 210.222 86.4283 211.005 86.041C211.748 85.4839 212.654 85.1879 213.582 85.199C213.871 85.2634 214.13 85.4212 214.321 85.648C214.511 85.8747 214.621 86.1578 214.634 86.4535C214.634 87.7165 213.674 88.5586 212.63 89.1564C211.6 89.7939 210.369 90.0251 209.178 89.8047C208.919 89.7329 208.685 89.5895 208.504 89.3911C208.323 89.1926 208.201 88.9471 208.152 88.6826C208.104 88.4181 208.131 88.1454 208.231 87.8956C208.33 87.6458 208.498 87.4291 208.715 87.2703V87.2703Z" fill="#263238"/>
<path d="M231.643 89.7794C230.992 89.2032 230.312 88.6607 229.605 88.1544C228.969 87.4866 228.132 87.0458 227.222 86.8998C226.926 86.9107 226.642 87.019 226.414 87.2077C226.185 87.3965 226.026 87.6552 225.959 87.9439C225.757 89.19 226.532 90.1836 227.449 90.9582C228.347 91.7713 229.514 92.2216 230.725 92.2212C231.001 92.2069 231.268 92.1122 231.491 91.9487C231.715 91.7852 231.886 91.56 231.983 91.3008C232.081 91.0416 232.1 90.7596 232.04 90.4893C231.979 90.2191 231.841 89.9724 231.643 89.7794V89.7794Z" fill="#263238"/>
<path d="M214.23 108.573C216.756 107.731 219.939 108.312 221.943 108.708C222.17 108.708 222.406 108.253 222.456 108.051C222.456 107.975 222.625 103.908 222.625 103.908C223.147 104.22 225.833 105.66 225.841 104.876C225.909 98.4184 225.984 91.2361 224.688 84.7948C224.688 84.7479 224.669 84.7029 224.636 84.6698C224.603 84.6366 224.558 84.618 224.511 84.618C224.464 84.618 224.419 84.6366 224.386 84.6698C224.353 84.7029 224.334 84.7479 224.334 84.7948C224.022 91.0003 224.806 97.2227 224.587 103.454C223.636 102.927 222.616 102.538 221.555 102.3C221.337 102.342 221.606 106.687 221.48 107.352C221.48 107.352 217.623 105.887 214.255 107.714C213.388 108.194 213.026 108.96 214.23 108.573Z" fill="#263238"/>
<path d="M210.071 111.183C210.508 111.671 210.913 112.32 211.628 112.429C212.35 112.464 213.071 112.343 213.742 112.076C213.756 112.069 213.773 112.067 213.788 112.071C213.804 112.075 213.817 112.085 213.826 112.098C213.836 112.111 213.84 112.127 213.838 112.143C213.836 112.159 213.829 112.174 213.817 112.185C213.511 112.539 213.114 112.804 212.67 112.952C212.225 113.101 211.749 113.126 211.291 113.027C210.903 112.9 210.561 112.659 210.309 112.337C210.057 112.015 209.907 111.625 209.877 111.217C209.86 111.149 210.012 111.116 210.071 111.183Z" fill="#263238"/>
<path d="M201.314 88.8027C198.645 88.8027 200.076 83.7507 200.64 82.0078C201.031 80.1453 201.257 78.2518 201.314 76.3495C201.37 78.2532 201.604 80.1475 202.013 82.0078C202.568 83.7591 204 88.8027 201.314 88.8027Z" fill="white"/>
<path d="M234.724 102.443C234.935 100.128 235.095 97.8205 235.196 95.505C235.297 93.1895 235.373 90.8825 235.356 88.567C235.339 86.2515 235.305 83.9528 235.196 81.6373C235.196 80.4838 235.078 79.3302 234.985 78.1767C234.893 77.0231 234.783 75.8612 234.724 74.6992C235.245 76.9687 235.619 79.2693 235.844 81.5868C236.088 83.9082 236.206 86.2412 236.198 88.5754C236.198 90.9066 236.08 93.2363 235.844 95.5555C235.718 96.7091 235.575 97.8626 235.406 99.0162C235.238 100.17 235.011 101.298 234.724 102.443Z" fill="#263238"/>
<path d="M179.961 65.934C182.266 62.5287 183.517 58.5192 183.556 54.407C183.556 39.7646 167.482 27.8924 147.662 27.8924C127.841 27.8924 111.776 39.7646 111.776 54.407C111.776 69.0494 127.841 80.9132 147.662 80.9132C157.269 80.9132 165.983 78.1346 172.416 73.5794L184.785 76.72L179.961 65.934Z" fill="white"/>
<path d="M179.961 65.934C182.063 62.6621 183.228 58.876 183.329 54.988C183.378 51.1255 182.327 47.3289 180.297 44.042C178.269 40.7843 175.596 37.9761 172.442 35.7904C169.299 33.5963 165.841 31.8928 162.186 30.7384C158.534 29.5694 154.748 28.8677 150.92 28.6502C147.1 28.4123 143.264 28.6271 139.494 29.2902C135.73 29.9327 132.072 31.0915 128.624 32.7339C125.189 34.3434 122.056 36.5307 119.362 39.2005C116.669 41.8344 114.66 45.0861 113.51 48.673C112.386 52.2482 112.336 56.0747 113.367 59.6779C114.439 63.3034 116.388 66.6089 119.042 69.302C121.712 72.0086 124.828 74.2359 128.253 75.8864C131.695 77.5397 135.342 78.7234 139.098 79.406C142.865 80.1223 146.704 80.3824 150.533 80.1806C158.248 79.8903 165.737 77.4875 172.181 73.2341L172.332 73.1247L172.501 73.1752L184.819 76.4927L184.583 76.7705L179.961 65.934ZM179.961 65.934L184.954 76.619L185.131 76.9979L184.718 76.8968L172.307 73.933L172.627 73.874C169.423 76.1599 165.888 77.9404 162.144 79.1534C158.41 80.3896 154.534 81.1451 150.609 81.4015C146.669 81.6764 142.712 81.4756 138.821 80.8037C134.927 80.1161 131.145 78.9009 127.58 77.1915C123.982 75.4878 120.706 73.1747 117.897 70.3545C115.044 67.5071 112.933 64.0029 111.75 60.1495C110.605 56.244 110.64 52.087 111.851 48.2015C113.103 44.37 115.271 40.9017 118.166 38.0975C121.03 35.3213 124.351 33.0596 127.984 31.412C131.567 29.7335 135.363 28.5549 139.267 27.9093C147.066 26.5531 155.08 27.1667 162.582 29.6943C166.323 30.9443 169.85 32.7618 173.039 35.0831C176.258 37.3853 178.955 40.3405 180.954 43.7557C182.953 47.16 183.924 51.0694 183.752 55.0131C183.581 58.9568 182.273 62.7669 179.986 65.9845L179.961 65.934Z" fill="#263238"/>
<path d="M119.101 51.5695C119.1 51.484 119.116 51.3992 119.148 51.32C119.18 51.2409 119.228 51.1689 119.288 51.1085C119.349 51.0481 119.421 51.0004 119.5 50.9682C119.579 50.936 119.664 50.92 119.749 50.9211C119.835 50.92 119.921 50.9359 120.001 50.9679C120.081 50.9999 120.154 51.0473 120.216 51.1075C120.278 51.1677 120.327 51.2395 120.361 51.3188C120.395 51.398 120.413 51.4832 120.414 51.5695V58.5581C120.414 58.645 120.397 58.7311 120.364 58.8114C120.33 58.8916 120.281 58.9644 120.219 59.0255C120.157 59.0866 120.084 59.1348 120.003 59.1673C119.922 59.1998 119.836 59.2159 119.749 59.2148C119.663 59.2148 119.578 59.1978 119.499 59.1647C119.42 59.1316 119.348 59.0831 119.288 59.022C119.227 58.9609 119.18 58.8884 119.148 58.8088C119.116 58.7291 119.1 58.6439 119.101 58.5581V51.5695Z" fill="#263238"/>
<path d="M122.368 53.6071C122.615 53.5677 122.839 53.4369 122.995 53.2405C123.151 53.0441 123.228 52.7963 123.21 52.5462C123.024 52.5083 122.856 52.4087 122.734 52.2635C122.612 52.1183 122.542 51.936 122.536 51.7463V51.62C122.533 51.5144 122.551 51.4091 122.59 51.3109C122.629 51.2127 122.688 51.1237 122.763 51.0493C122.838 50.975 122.928 50.917 123.027 50.879C123.125 50.841 123.231 50.8238 123.336 50.8285C123.858 50.8285 124.178 51.2327 124.178 51.8726V51.9905C124.215 52.6066 124.006 53.2121 123.597 53.6745C123.301 53.9745 122.906 54.1569 122.486 54.1881C122.438 54.1942 122.39 54.19 122.345 54.1757C122.3 54.1615 122.258 54.1375 122.223 54.1054C122.187 54.0734 122.159 54.0341 122.141 53.9902C122.122 53.9463 122.114 53.8989 122.115 53.8513C122.132 53.7917 122.164 53.7376 122.208 53.6947C122.253 53.6517 122.308 53.6215 122.368 53.6071V53.6071Z" fill="#263238"/>
<path d="M132.489 51.5695V58.5581C132.484 58.7324 132.413 58.8982 132.289 59.0206C132.165 59.1431 131.998 59.2127 131.824 59.2148C131.738 59.2149 131.653 59.1978 131.573 59.1647C131.494 59.1316 131.422 59.0831 131.362 59.022C131.302 58.9609 131.254 58.8884 131.222 58.8088C131.19 58.7291 131.174 58.6439 131.175 58.5581V53.5734L129.491 55.9479C129.431 56.0324 129.352 56.1011 129.259 56.148C129.167 56.1949 129.064 56.2187 128.961 56.2173V56.2173C128.855 56.218 128.75 56.194 128.655 56.1472C128.56 56.1004 128.477 56.0322 128.413 55.9479L126.729 53.5734V58.5581C126.729 58.7323 126.66 58.8993 126.537 59.0225C126.414 59.1457 126.247 59.2148 126.073 59.2148C125.898 59.2148 125.731 59.1457 125.608 59.0225C125.485 58.8993 125.416 58.7323 125.416 58.5581V51.5695C125.418 51.3982 125.487 51.2346 125.608 51.1134C125.729 50.9923 125.893 50.9233 126.064 50.9211C126.165 50.9217 126.264 50.9465 126.354 50.9934C126.443 51.0403 126.52 51.1079 126.578 51.1906L128.935 54.466L131.293 51.1906C131.355 51.1059 131.436 51.0373 131.53 50.9904C131.624 50.9435 131.727 50.9198 131.832 50.9211V50.9211C132.003 50.9253 132.167 50.9947 132.289 51.1152C132.411 51.2356 132.482 51.3981 132.489 51.5695V51.5695Z" fill="#263238"/>
<path d="M138.652 57.1519C138.755 57.0327 138.9 56.9575 139.056 56.9419C139.213 56.9262 139.37 56.9712 139.494 57.0677C140.129 57.6107 140.925 57.9302 141.759 57.9771C142.287 57.9895 142.805 57.8364 143.241 57.5392C143.388 57.451 143.512 57.3282 143.602 57.1816C143.691 57.0349 143.744 56.8687 143.755 56.6972C143.754 56.5632 143.716 56.4319 143.645 56.3183C143.554 56.1764 143.434 56.0557 143.292 55.9647C142.789 55.6799 142.238 55.4915 141.667 55.409V55.409C141.142 55.3167 140.63 55.1612 140.142 54.9459C139.693 54.7507 139.309 54.4289 139.039 54.0197C138.858 53.7293 138.762 53.3938 138.762 53.0514C138.773 52.7079 138.865 52.3718 139.03 52.0705C139.196 51.7692 139.429 51.511 139.713 51.3169C140.315 50.9035 141.029 50.6859 141.759 50.6938C142.696 50.7421 143.596 51.0706 144.344 51.6368C144.475 51.7288 144.565 51.8675 144.596 52.0242C144.628 52.1809 144.598 52.3437 144.512 52.4788C144.471 52.5478 144.415 52.6074 144.349 52.654C144.283 52.7006 144.209 52.7332 144.13 52.7497C144.051 52.7663 143.969 52.7665 143.89 52.7503C143.811 52.7341 143.737 52.7019 143.67 52.6556C143.124 52.2175 142.458 51.9536 141.759 51.8978C141.287 51.8915 140.825 52.0328 140.437 52.302C140.306 52.3808 140.197 52.4901 140.117 52.6207C140.038 52.7512 139.992 52.899 139.982 53.0514C139.976 53.1669 140.006 53.2815 140.067 53.3798C140.154 53.5019 140.262 53.6074 140.387 53.6913C140.843 53.9581 141.346 54.1353 141.869 54.2133V54.2133C142.432 54.309 142.981 54.4759 143.502 54.7101C143.983 54.9202 144.394 55.2617 144.689 55.6953C144.873 55.997 144.969 56.3439 144.967 56.6972C144.96 57.0581 144.867 57.4121 144.695 57.7298C144.524 58.0475 144.279 58.3199 143.982 58.5244C143.343 58.9766 142.576 59.2127 141.793 59.198C140.68 59.1499 139.614 58.7355 138.762 58.0192C138.635 57.9166 138.553 57.7692 138.533 57.6076C138.512 57.4459 138.555 57.2827 138.652 57.1519Z" fill="#263238"/>
<path d="M153.353 51.9484C154.12 52.7584 154.548 53.8308 154.549 54.9459C154.553 56.062 154.124 57.1362 153.353 57.9434C152.995 58.3392 152.559 58.6566 152.072 58.8754C151.585 59.0942 151.058 59.2098 150.524 59.2148C149.979 59.2131 149.44 59.0994 148.94 58.8807C148.44 58.662 147.991 58.343 147.619 57.9434C146.856 57.1332 146.437 56.0588 146.449 54.9459C146.441 53.8337 146.86 52.7609 147.619 51.9484C147.991 51.5499 148.441 51.2322 148.941 51.0149C149.44 50.7977 149.979 50.6855 150.524 50.6854C151.058 50.6888 151.584 50.8029 152.071 51.0203C152.558 51.2376 152.995 51.5537 153.353 51.9484V51.9484ZM153.193 54.9459C153.196 54.1796 152.91 53.4403 152.394 52.8746C152.158 52.6114 151.87 52.4004 151.548 52.2554C151.226 52.1104 150.877 52.0345 150.524 52.0326C150.163 52.0316 149.806 52.106 149.476 52.2509C149.145 52.3959 148.848 52.6083 148.605 52.8746C148.069 53.432 147.768 54.1732 147.763 54.9459C147.763 55.717 148.066 56.4573 148.605 57.0088C148.842 57.2776 149.133 57.4928 149.46 57.6403C149.786 57.7877 150.141 57.864 150.499 57.864C150.857 57.864 151.212 57.7877 151.538 57.6403C151.865 57.4928 152.157 57.2776 152.394 57.0088C152.904 56.4594 153.19 55.7381 153.193 54.988V54.9459Z" fill="#263238"/>
<path d="M162.371 58.2297C162.399 58.3126 162.41 58.4002 162.404 58.4874C162.398 58.5746 162.374 58.6598 162.335 58.738C162.296 58.8162 162.242 58.8859 162.176 58.9432C162.11 59.0004 162.033 59.0441 161.95 59.0717C161.863 59.0809 161.776 59.0809 161.689 59.0717V59.0717C161.525 59.0729 161.364 59.0261 161.226 58.937C161.067 58.8338 160.937 58.6918 160.847 58.5244C160.657 58.0753 160.573 57.5882 160.603 57.1014C160.601 56.9233 160.552 56.7489 160.46 56.5962C160.368 56.4569 160.248 56.3392 160.106 56.251C159.901 56.1219 159.676 56.0253 159.441 55.9647H158.043V58.4907C158.043 58.5777 158.026 58.6638 157.993 58.744C157.959 58.8242 157.91 58.897 157.848 58.9581C157.786 59.0192 157.713 59.0674 157.632 59.0999C157.551 59.1324 157.465 59.1486 157.378 59.1475C157.292 59.1475 157.207 59.1304 157.128 59.0973C157.049 59.0642 156.977 59.0157 156.917 58.9546C156.856 58.8935 156.809 58.821 156.777 58.7414C156.745 58.6618 156.729 58.5765 156.73 58.4907V51.5021C156.729 51.4166 156.745 51.3318 156.777 51.2527C156.809 51.1735 156.857 51.1016 156.917 51.0411C156.978 50.9807 157.05 50.933 157.129 50.9008C157.208 50.8686 157.293 50.8526 157.378 50.8538H159.5C160.17 50.8538 160.812 51.1199 161.286 51.5936C161.76 52.0673 162.026 52.7098 162.026 53.3798C162.025 53.7522 161.941 54.1197 161.781 54.456C161.621 54.7922 161.388 55.0889 161.1 55.3248C161.26 55.4475 161.399 55.5954 161.512 55.7626C161.77 56.1396 161.908 56.5857 161.908 57.0425C161.897 57.2763 161.911 57.5106 161.95 57.7413C162.057 57.7789 162.152 57.8438 162.226 57.9295C162.3 58.0151 162.35 58.1186 162.371 58.2297ZM160.687 53.464C160.688 53.3029 160.658 53.1433 160.597 52.9942C160.536 52.8451 160.446 52.7095 160.333 52.5952C160.219 52.4809 160.084 52.3903 159.936 52.3284C159.787 52.2665 159.627 52.2346 159.466 52.2346H158.01V54.6764H159.466C159.628 54.6798 159.789 54.651 159.939 54.5916C160.09 54.5323 160.227 54.4437 160.343 54.3309C160.459 54.218 160.551 54.0833 160.615 53.9345C160.678 53.7857 160.711 53.6257 160.713 53.464H160.687Z" fill="#263238"/>
<path d="M169.772 58.2297C169.802 58.312 169.814 58.3993 169.809 58.4865C169.804 58.5736 169.781 58.6589 169.743 58.7373C169.704 58.8157 169.651 58.8857 169.585 58.9431C169.519 59.0005 169.443 59.0442 169.36 59.0717C169.273 59.0804 169.186 59.0804 169.099 59.0717V59.0717C168.935 59.0729 168.774 59.0261 168.636 58.937C168.475 58.8362 168.344 58.6936 168.257 58.5244C168.063 58.0762 167.977 57.5889 168.004 57.1014C168.006 56.9227 167.957 56.7473 167.861 56.5962C167.774 56.4532 167.653 56.3344 167.507 56.251C167.303 56.1204 167.078 56.0237 166.842 55.9647H165.445V58.4907C165.445 58.5777 165.427 58.6638 165.394 58.744C165.36 58.8242 165.311 58.897 165.249 58.9581C165.187 59.0192 165.114 59.0674 165.033 59.0999C164.953 59.1324 164.866 59.1486 164.779 59.1475C164.694 59.1475 164.609 59.1304 164.529 59.0973C164.45 59.0642 164.378 59.0157 164.318 58.9546C164.258 58.8935 164.21 58.8211 164.178 58.7414C164.146 58.6618 164.13 58.5766 164.131 58.4907V51.5021C164.13 51.4167 164.146 51.3318 164.178 51.2527C164.21 51.1735 164.258 51.1016 164.318 51.0411C164.379 50.9807 164.451 50.933 164.53 50.9008C164.609 50.8686 164.694 50.8526 164.779 50.8538H166.901C167.425 50.8484 167.938 51.0063 168.369 51.3055C168.799 51.6047 169.126 52.0304 169.303 52.5236C169.481 53.0167 169.501 53.553 169.36 54.0579C169.219 54.5628 168.925 55.0115 168.518 55.3416C168.678 55.4643 168.817 55.6122 168.93 55.7795C169.186 56.1572 169.321 56.6034 169.318 57.0593C169.308 57.2934 169.325 57.5279 169.368 57.7582C169.47 57.796 169.561 57.8591 169.631 57.9416C169.702 58.0241 169.751 58.1233 169.772 58.2297V58.2297ZM168.088 53.464C168.09 53.3029 168.059 53.1433 167.998 52.9942C167.937 52.8451 167.847 52.7095 167.734 52.5952C167.62 52.481 167.485 52.3903 167.337 52.3284C167.188 52.2665 167.029 52.2347 166.868 52.2347H165.411V54.6765H166.868C167.029 54.6798 167.19 54.651 167.341 54.5917C167.491 54.5323 167.628 54.4437 167.744 54.3309C167.86 54.2181 167.953 54.0833 168.016 53.9345C168.079 53.7857 168.113 53.6257 168.114 53.464H168.088Z" fill="#263238"/>
<path d="M177.165 52.0326L174.74 55.4006V58.5917C174.741 58.6783 174.725 58.7642 174.693 58.8444C174.66 58.9246 174.612 58.9975 174.55 59.0587C174.489 59.1199 174.416 59.1682 174.336 59.2008C174.256 59.2334 174.17 59.2496 174.083 59.2485C173.911 59.2442 173.748 59.1733 173.627 59.0508C173.506 58.9284 173.437 58.7638 173.435 58.5917V55.4006L171.027 52.0326C170.927 51.8952 170.885 51.7236 170.911 51.5554C170.937 51.3872 171.029 51.2363 171.166 51.1358C171.303 51.0353 171.475 50.9935 171.643 51.0196C171.811 51.0456 171.962 51.1374 172.063 51.2747L174.083 54.0449L176.113 51.2747C176.162 51.2056 176.225 51.147 176.298 51.1022C176.37 51.0574 176.451 51.0273 176.535 51.0136C176.619 50.9999 176.705 51.0029 176.788 51.0225C176.87 51.042 176.949 51.0776 177.018 51.1274C177.087 51.1772 177.146 51.24 177.19 51.3125C177.235 51.3849 177.265 51.4654 177.279 51.5495C177.293 51.6335 177.29 51.7194 177.27 51.8023C177.251 51.8852 177.215 51.9634 177.165 52.0326Z" fill="#263238"/>
</g>
<defs>
<clipPath id="clip0_601_4831">
<rect width="421" height="330" fill="white"/>
</clipPath>
</defs>
</svg>
