<svg width="500" height="500" viewBox="0 0 500 500" fill="none" xmlns="http://www.w3.org/2000/svg">
<path d="M393.75 104.54C382 68.2 327.88 12.6 247.62 19.42C206.4 22.92 166.77 62.51 143.05 97.42C110.93 144.64 87.77 199.69 79.05 256.48C74.66 285.04 73.45 314.87 82.37 342.32C91.29 369.77 109.67 392.87 130.53 412.32C166.93 446.24 212.15 470.54 260.53 480.25C308.91 489.96 470 472.82 411.39 310.5C387.43 244.2 415.26 170.76 393.75 104.54Z" fill="#4A26AB"/>
<path opacity="0.7" d="M393.75 104.54C382 68.2 327.88 12.6 247.62 19.42C206.4 22.92 166.77 62.51 143.05 97.42C110.93 144.64 87.77 199.69 79.05 256.48C74.66 285.04 73.45 314.87 82.37 342.32C91.29 369.77 109.67 392.87 130.53 412.32C166.93 446.24 212.15 470.54 260.53 480.25C308.91 489.96 470 472.82 411.39 310.5C387.43 244.2 415.26 170.76 393.75 104.54Z" fill="white"/>
<path d="M392.01 73.77V254.07H391.25V73.78L391.29 73.77H392.01Z" fill="white" stroke="#263238" stroke-linecap="round" stroke-linejoin="round"/>
<path d="M391.29 73.77L391.25 73.78V254.07H109.61V73.77H391.29Z" fill="white" stroke="#263238" stroke-linecap="round" stroke-linejoin="round"/>
<path d="M392.01 73.78H391.25V254.07H392.01V73.78Z" fill="white" stroke="#263238" stroke-linecap="round" stroke-linejoin="round"/>
<path d="M474.82 53.66V274.19L467.08 272.33L391.25 254.07V73.78L391.29 73.77L467.08 55.52L474.82 53.66Z" fill="white" stroke="#263238" stroke-linecap="round" stroke-linejoin="round"/>
<path d="M474.82 53.66H467.08V274.18H474.82V53.66Z" fill="white" stroke="#263238" stroke-linecap="round" stroke-linejoin="round"/>
<path d="M25.78 274.18L109.35 254.07V73.78L25.78 53.66V274.18Z" fill="white" stroke="#263238" stroke-linecap="round" stroke-linejoin="round"/>
<path d="M25.78 274.18H33.52L33.52 53.6599H25.78L25.78 274.18Z" fill="white" stroke="#263238" stroke-linecap="round" stroke-linejoin="round"/>
<path d="M383.45 244.03L118.78 243.05V82.46L383.45 83.43V244.03Z" fill="#5C5C5C" stroke="#263238" stroke-linecap="round" stroke-linejoin="round"/>
<path d="M306.69 242.89H383.53C378.415 224.146 367.439 207.528 352.208 195.466C336.976 183.404 318.285 176.529 298.868 175.845C279.45 175.161 260.323 180.705 244.28 191.666C228.238 202.628 216.121 218.432 209.7 236.77C209.009 238.737 208.651 240.805 208.64 242.89H306.69Z" fill="#4A26AB" stroke="#263238" stroke-linecap="round" stroke-linejoin="round"/>
<path d="M283.48 182.36L272 189.24V200.24C272 200.24 280.71 199.06 283.49 194.3C283.49 194.3 281.11 193.3 287.84 189.3C294.57 185.3 293 180.35 283.48 182.36Z" fill="white"/>
<path d="M265.26 182.36H266.85L255.57 189.12L253.78 191.05L242.7 197.43L240.52 200.2L238.74 206.34L232.8 211.09L235.57 213.09L229.24 221H227.06L226.27 217.83L231.02 207.93L224.44 211.62C224.44 211.62 238.54 189.65 265.26 182.36Z" fill="white"/>
<path d="M209.41 242.14H225.41L225.98 234.89C225.98 234.89 224.98 233.5 225.14 232.89C225.3 232.28 227.14 222.6 227.14 222.6L224.08 214.29L221.23 218.04H219.5C214.93 225.513 211.528 233.64 209.41 242.14Z" fill="white"/>
<path d="M263.29 191.05H265.26V193.47L263.29 194.66H261.5V192.85L263.29 191.05Z" fill="white"/>
<path d="M251.21 195.85L248.24 199.01L247.45 201.67L244.48 204.56L243.29 202.78L241.12 204.56V202.58L242.7 200.2L251.21 195.85Z" fill="white"/>
<path d="M306.83 242.56H320.37C324 242.56 346.06 242.37 346.06 242.37C347.95 235.62 348.85 227.67 346.62 220.99C343.73 212.3 338.35 204.28 336.62 198.99L336.56 198.82C336.51 198.66 336.47 198.52 336.44 198.38C336.279 197.562 336.444 196.713 336.9 196.014C337.356 195.315 338.066 194.822 338.88 194.64C340.26 194.25 342.88 195.83 342.88 195.83H347.93L342.68 192.83L340.51 190.53L339.12 189.3L334 187.14L334.2 185.56C331.218 183.755 327.93 182.511 324.5 181.89L328.26 184.76H324.26L323.47 189.24H315.55C315.55 189.24 317.55 188.72 312.78 186.1C308.01 183.48 292.59 182.36 292.59 182.36L297.34 189.24L287 195.06L288.19 199.41L295.27 197.41V195.04L299.67 192.37L300.07 197.02L301.64 199.02L303.64 197.44L309.22 202.99L299.29 212.66L297.7 200.22L283.44 203.38L272 216.83C272 216.83 285.85 221.98 291 225.15C296.15 228.32 295.31 235.08 295.31 235.08L303.67 239.79L302.2 242.56H306.83Z" fill="white"/>
<path d="M41.5601 255.44L102.82 245.79L102.15 78.4L40.8 66.08L41.5601 255.44Z" fill="white" stroke="#263238" stroke-linecap="round" stroke-linejoin="round"/>
<path d="M66.88 85.66L80.76 122.96" stroke="#263238" stroke-linecap="round" stroke-linejoin="round"/>
<path d="M64.7 79.79L66.14 83.67" stroke="#263238" stroke-linecap="round" stroke-linejoin="round"/>
<path d="M61.39 70.9L64.05 78.04" stroke="#263238" stroke-linecap="round" stroke-linejoin="round"/>
<path d="M60.5 91.55L78.66 140.9" stroke="#263238" stroke-linecap="round" stroke-linejoin="round"/>
<path d="M53.89 73.61L59.57 89.04" stroke="#263238" stroke-linecap="round" stroke-linejoin="round"/>
<path d="M66.83 188.23L80.9 227.88" stroke="#263238" stroke-linecap="round" stroke-linejoin="round"/>
<path d="M458.5 255.44L397.24 245.79L397.92 78.4L459.26 66.08L458.5 255.44Z" fill="white" stroke="#263238" stroke-linecap="round" stroke-linejoin="round"/>
<path d="M432.83 88.45L446.71 125.74" stroke="#263238" stroke-linecap="round" stroke-linejoin="round"/>
<path d="M430.64 82.5699L432.09 86.4599" stroke="#263238" stroke-linecap="round" stroke-linejoin="round"/>
<path d="M426.44 94.34L444.61 143.69" stroke="#263238" stroke-linecap="round" stroke-linejoin="round"/>
<path d="M419.84 76.4L425.52 91.82" stroke="#263238" stroke-linecap="round" stroke-linejoin="round"/>
<path d="M432.77 191.02L446.84 230.66" stroke="#263238" stroke-linecap="round" stroke-linejoin="round"/>
<path d="M454.77 447.88H474.39" stroke="#263238" stroke-linecap="round" stroke-linejoin="round"/>
<path d="M438.5 447.88H446.61" stroke="#263238" stroke-linecap="round" stroke-linejoin="round"/>
<path d="M25.34 447.88H430.64" stroke="#263238" stroke-linecap="round" stroke-linejoin="round"/>
<path d="M394.33 314.74V435C394.33 438.397 392.98 441.656 390.578 444.058C388.176 446.46 384.917 447.81 381.52 447.81H355C359.72 447.176 364.049 444.851 367.185 441.266C370.32 437.682 372.049 433.082 372.05 428.32V321.6C372.057 316.744 370.268 312.057 367.029 308.439C363.79 304.821 359.327 302.528 354.5 302V301.89H381.5C383.187 301.889 384.858 302.22 386.416 302.866C387.975 303.511 389.39 304.458 390.582 305.652C391.774 306.846 392.719 308.263 393.362 309.822C394.005 311.382 394.334 313.053 394.33 314.74Z" fill="#263238" stroke="#263238" stroke-linecap="round" stroke-linejoin="round"/>
<path d="M354.5 302C353.802 301.928 353.101 301.891 352.4 301.89H66.32C63.7335 301.89 61.1725 302.4 58.7834 303.391C56.3943 304.382 54.2241 305.835 52.3971 307.665C50.57 309.496 49.1219 311.669 48.1358 314.06C47.1496 316.451 46.6447 319.014 46.65 321.6V428.33C46.65 433.547 48.7224 438.55 52.4112 442.239C56.1001 445.928 61.1032 448 66.32 448H352.4C353.276 448.001 354.152 447.941 355.02 447.82C359.74 447.186 364.069 444.861 367.205 441.276C370.34 437.692 372.069 433.092 372.07 428.33V321.6C372.076 316.741 370.285 312.051 367.041 308.433C363.798 304.814 359.331 302.523 354.5 302ZM153.74 317.6H346C347.895 317.595 349.772 317.963 351.524 318.684C353.277 319.406 354.87 320.465 356.212 321.803C357.554 323.14 358.619 324.73 359.346 326.479C360.074 328.229 360.449 330.105 360.45 332V372.09H153.74V317.6ZM128.61 433.77H89.28L88.77 433.6C84.14 431.93 80.77 426.35 80.77 419.72V332.18C80.77 324.18 85.69 317.77 91.77 317.77H128.66L128.61 433.77ZM346 434L153.71 433.64V379.47H360.45V419.54C360.457 421.44 360.087 423.322 359.364 425.079C358.64 426.836 357.576 428.432 356.233 429.776C354.89 431.12 353.295 432.185 351.538 432.91C349.782 433.635 347.9 434.005 346 434Z" fill="white" stroke="#263238" stroke-linecap="round" stroke-linejoin="round"/>
<path d="M225.36 440.37H185.17" stroke="#263238" stroke-linecap="round" stroke-linejoin="round"/>
<path d="M241.63 440.37H233.52" stroke="#263238" stroke-linecap="round" stroke-linejoin="round"/>
<path d="M80.73 332.18V419.72C80.73 426.35 84.14 431.93 88.73 433.6H70.59C68.9634 433.601 67.3525 433.282 65.8493 432.66C64.3462 432.039 62.9802 431.127 61.8296 429.977C60.6789 428.828 59.7661 427.463 59.1433 425.96C58.5206 424.457 58.2 422.847 58.2 421.22V330C58.1987 328.372 58.5182 326.76 59.1403 325.255C59.7623 323.751 60.6748 322.384 61.8254 321.232C62.9761 320.081 64.3424 319.167 65.8463 318.544C67.3501 317.921 68.9621 317.6 70.59 317.6H106.4C107.07 317.603 107.739 317.66 108.4 317.77H91.72C85.65 317.77 80.73 324.22 80.73 332.18Z" fill="#263238" stroke="#263238" stroke-linecap="round" stroke-linejoin="round"/>
<path d="M153.74 317.6H135.43V433.6H153.74V317.6Z" fill="#263238" stroke="#263238" stroke-linecap="round" stroke-linejoin="round"/>
<path d="M135.15 372.18L360.45 372.09V379.47H135.15V372.18Z" fill="white" stroke="#263238" stroke-linecap="round" stroke-linejoin="round"/>
<path d="M135.43 317.6H128.61V433.6H135.43V317.6Z" fill="white" stroke="#263238" stroke-linecap="round" stroke-linejoin="round"/>
<path d="M232.11 327.87H219.87V372.18H232.11V327.87Z" stroke="#263238" stroke-linecap="round" stroke-linejoin="round"/>
<path d="M219.87 327.87H209.21V372.18H219.87V327.87Z" stroke="#263238" stroke-linecap="round" stroke-linejoin="round"/>
<path d="M250.35 327.87H261.49H272.4V321.04H241.15V372.18H244.33V327.87H250.35Z" stroke="#263238" stroke-linecap="round" stroke-linejoin="round"/>
<path d="M241.15 321.04H241.14H232.11V327.87V372.18H241.14H241.15V321.04Z" stroke="#263238" stroke-linecap="round" stroke-linejoin="round"/>
<path d="M271.93 335.37H276.71V327.87H272.4H261.49H250.35V372.18H261.49H263.07V335.37H271.93Z" stroke="#263238" stroke-linecap="round" stroke-linejoin="round"/>
<path d="M250.35 327.87H244.33V372.18H250.35V327.87Z" stroke="#263238" stroke-linecap="round" stroke-linejoin="round"/>
<path d="M282.1 335.37H276.71H271.93V372.18H272.4H276.71H282.1V335.37Z" stroke="#263238" stroke-linecap="round" stroke-linejoin="round"/>
<path d="M271.92 335.37H263.07V372.18H271.92V335.37Z" stroke="#263238" stroke-linecap="round" stroke-linejoin="round"/>
<path d="M289.61 372.18H292.24V335.37H297.24V372.18H297.25V335.37H306.5H315.57V329.69H289.61V372.18Z" stroke="#263238" stroke-linecap="round" stroke-linejoin="round"/>
<path d="M289.59 372.18H289.61V329.69H289.59H282.1V335.37V372.18H289.59Z" stroke="#263238" stroke-linecap="round" stroke-linejoin="round"/>
<path d="M297.25 335.37V372.18H306.5H315.57H322.48V335.37H315.57H306.5H297.25Z" stroke="#263238" stroke-linecap="round" stroke-linejoin="round"/>
<path d="M297.24 335.37H292.24V372.18H297.24V335.37Z" stroke="#263238" stroke-linecap="round" stroke-linejoin="round"/>
<path d="M166.65 389.3H163.76V433.61H166.65V389.3Z" stroke="#263238" stroke-linecap="round" stroke-linejoin="round"/>
<path d="M163.76 389.3H153.1V433.61H163.76V389.3Z" stroke="#263238" stroke-linecap="round" stroke-linejoin="round"/>
<path d="M194.24 389.3H197.92V382.47H185.04V433.61H188.22V389.3H194.24Z" stroke="#263238" stroke-linecap="round" stroke-linejoin="round"/>
<path d="M176.01 382.47H166.66V389.3V433.61H176.01V382.47Z" stroke="#263238" stroke-linecap="round" stroke-linejoin="round"/>
<path d="M185.05 382.47H176.01V433.61H185.05V382.47Z" stroke="#263238" stroke-linecap="round" stroke-linejoin="round"/>
<path d="M299.62 389.3H287.38V433.61H299.62V389.3Z" stroke="#263238" stroke-linecap="round" stroke-linejoin="round"/>
<path d="M287.38 389.3H276.72V433.61H287.38V389.3Z" stroke="#263238" stroke-linecap="round" stroke-linejoin="round"/>
<path d="M308.66 382.47V433.61H329H339.91V382.47H308.66Z" stroke="#263238" stroke-linecap="round" stroke-linejoin="round"/>
<path d="M308.66 382.47H308.65H299.62V389.3V433.61H308.65H308.66V382.47Z" stroke="#263238" stroke-linecap="round" stroke-linejoin="round"/>
<path d="M206.97 396.8H215.82H220.6V389.3H205.38H197.92H194.24V433.61H197.44V396.8H206.97Z" stroke="#263238" stroke-linecap="round" stroke-linejoin="round"/>
<path d="M194.24 389.3H188.22V433.61H194.24V389.3Z" stroke="#263238" stroke-linecap="round" stroke-linejoin="round"/>
<path d="M220.6 396.8H215.82V433.61H220.6H225.99V396.8H220.6Z" stroke="#263238" stroke-linecap="round" stroke-linejoin="round"/>
<path d="M197.44 396.8V433.61H197.92H205.38H206.97V396.8H197.44Z" stroke="#263238" stroke-linecap="round" stroke-linejoin="round"/>
<path d="M215.82 396.8H206.97V433.61H215.82V396.8Z" stroke="#263238" stroke-linecap="round" stroke-linejoin="round"/>
<path d="M259.46 396.8V391.12H233.5V433.61H236.13V396.8H241.13V433.61H241.14V396.8H259.46Z" stroke="#263238" stroke-linecap="round" stroke-linejoin="round"/>
<path d="M233.49 391.12H225.99V396.8V433.61H232.02H233.49H233.5V391.12H233.49Z" stroke="#263238" stroke-linecap="round" stroke-linejoin="round"/>
<path d="M241.14 396.8V433.61H259.46H266.37V396.8H259.46H241.14Z" stroke="#263238" stroke-linecap="round" stroke-linejoin="round"/>
<path d="M241.13 396.8H236.13V433.61H241.13V396.8Z" stroke="#263238" stroke-linecap="round" stroke-linejoin="round"/>
<path d="M66 400.47L65.06 401.4C68.9889 405.296 73.816 408.166 79.1157 409.756C84.4154 411.347 90.025 411.609 95.45 410.52C95.2011 410.246 95.0622 409.89 95.06 409.52C95.06 409.44 95.06 409.36 95.06 409.27" stroke="#263238" stroke-linecap="round" stroke-linejoin="round"/>
<path d="M97.9 408.52H91.51V426.99H97.9V408.52Z" fill="white" stroke="#263238" stroke-linecap="round" stroke-linejoin="round"/>
<g opacity="0.2">
<path opacity="0.2" d="M97.9 408.52H91.51V426.99H97.9V408.52Z" fill="white" stroke="#263238" stroke-linecap="round" stroke-linejoin="round"/>
</g>
<path d="M115.23 433.6H76.52C77.23 429.6 83.99 426.33 92.7 425.66C93.7 425.59 94.77 425.54 95.84 425.54C96.91 425.54 98.03 425.54 99.08 425.65C107.83 426.29 114.6 429.57 115.23 433.6Z" fill="white" stroke="#263238" stroke-linecap="round" stroke-linejoin="round"/>
<path d="M68.91 403.71L67.31 402.12L113.52 355.33L115.12 356.92L68.91 403.71Z" fill="white" stroke="#263238" stroke-linecap="round" stroke-linejoin="round"/>
<path d="M95.13 409.24C95.13 409.33 95.13 409.41 95.13 409.49C95.1322 409.86 95.2711 410.216 95.52 410.49C101.484 409.278 107.008 406.471 111.502 402.366C115.995 398.261 119.291 393.013 121.036 387.183C122.781 381.352 122.91 375.157 121.411 369.258C119.911 363.36 116.838 357.979 112.52 353.69L111.59 354.63" stroke="#263238" stroke-linecap="round" stroke-linejoin="round"/>
<path d="M108.35 395.82C105.061 399.226 100.836 401.58 96.2084 402.585C91.5812 403.59 86.7601 403.2 82.3546 401.464C77.9491 399.729 74.1572 396.726 71.4584 392.835C68.7595 388.945 67.275 384.341 67.1925 379.607C67.11 374.873 68.4332 370.221 70.9948 366.238C73.5564 362.256 77.2414 359.123 81.5837 357.235C85.926 355.347 90.7307 354.79 95.39 355.632C100.049 356.475 104.354 358.681 107.76 361.97C110.022 364.153 111.832 366.761 113.087 369.644C114.341 372.527 115.015 375.629 115.069 378.773C115.124 381.916 114.559 385.04 113.406 387.965C112.253 390.89 110.535 393.559 108.35 395.82Z" fill="#4A26AB" stroke="#263238" stroke-linecap="round" stroke-linejoin="round"/>
<path d="M75.78 396.67C84.98 398.51 94.98 394.14 101.22 387.67L100.48 388.43C106.15 382.56 110.75 371.83 108.58 362.68" stroke="#263238" stroke-linecap="round" stroke-linejoin="round"/>
<path d="M86.05 355.8L93.63 363.12L94.48 363.94L100.02 369.3L100.81 370.05L106.36 375.4L107.2 376.22L114.68 383.45" stroke="#263238" stroke-linecap="round" stroke-linejoin="round"/>
<path d="M74.07 362.52L108.49 395.76" stroke="#263238" stroke-linecap="round" stroke-linejoin="round"/>
<path d="M67.96 374.89L75.51 382.19L76.37 383.01L81.76 388.22L82.53 388.97L87.91 394.18H87.93L88.78 395L96.34 402.3L96.03 402.62" stroke="#263238" stroke-linecap="round" stroke-linejoin="round"/>
<g opacity="0.2">
<path opacity="0.2" d="M86.05 355.8L93.63 363.12L94.48 363.94L100.02 369.3L100.81 370.05L106.36 375.4L107.2 376.22L114.68 383.45" stroke="#263238" stroke-linecap="round" stroke-linejoin="round"/>
<path opacity="0.2" d="M74.07 362.52L108.49 395.76" stroke="#263238" stroke-linecap="round" stroke-linejoin="round"/>
</g>
<path d="M107.92 361.49C98.58 359.62 87.92 364.63 82.19 370.55L82.7 370.02C76.98 375.94 72.35 386.78 74.54 396.02" stroke="#263238" stroke-linecap="round" stroke-linejoin="round"/>
<path d="M74.74 396.55L108.11 361.98" stroke="#263238" stroke-linecap="round" stroke-linejoin="round"/>
<path d="M438.75 272.86C438.75 272.86 422.58 291.81 418.47 335.76C414.36 379.71 409.64 411.76 409.64 411.76" stroke="#263238" stroke-width="2" stroke-linecap="round" stroke-linejoin="round"/>
<path d="M464.37 238.18C464.978 238.105 465.591 238.262 466.088 238.62C466.585 238.978 466.929 239.51 467.05 240.11C469.45 252.31 479.82 310.96 455.51 303.22C435.34 296.8 436.66 282.05 438.66 274.92C438.755 274.588 438.754 274.236 438.658 273.905C438.561 273.573 438.373 273.276 438.115 273.047C437.856 272.818 437.539 272.667 437.198 272.611C436.858 272.555 436.508 272.596 436.19 272.73C428.32 275.98 411.19 281.1 409.31 265.03C407.13 246.52 453.55 239.55 464.37 238.18Z" fill="#4A26AB"/>
<path d="M455.51 248.85C450.655 254.371 446.42 260.407 442.88 266.85" stroke="#263238" stroke-linecap="round" stroke-linejoin="round"/>
<path d="M462.91 241.62C461.407 242.826 459.981 244.126 458.64 245.51" stroke="#263238" stroke-linecap="round" stroke-linejoin="round"/>
<path d="M444.73 270.92C444.73 270.92 451.51 263.8 468.14 266.92" stroke="#263238" stroke-linecap="round" stroke-linejoin="round"/>
<path d="M437.34 246.85C437.34 246.85 434.26 255.48 437.34 266.85" stroke="#263238" stroke-linecap="round" stroke-linejoin="round"/>
<path d="M465.28 285C466.35 285.92 467.309 286.96 468.14 288.1" stroke="#263238" stroke-linecap="round" stroke-linejoin="round"/>
<path d="M442.88 277C442.88 277 454.06 277.58 462.39 282.85" stroke="#263238" stroke-linecap="round" stroke-linejoin="round"/>
<path d="M433.64 270.92C433.64 270.92 421.01 267.18 417.93 256.86" stroke="#263238" stroke-linecap="round" stroke-linejoin="round"/>
<path d="M393.23 336.49C393.23 336.49 402.48 347.33 404.83 372.49C407.18 397.65 409.88 415.94 409.88 415.94" stroke="#263238" stroke-width="2" stroke-linecap="round" stroke-linejoin="round"/>
<path d="M379.45 317.77C379.103 317.725 378.752 317.814 378.468 318.018C378.184 318.222 377.988 318.527 377.92 318.87C376.54 325.87 370.61 359.39 384.51 354.97C396.05 351.3 395.3 342.85 394.15 338.78C394.098 338.59 394.101 338.389 394.157 338.2C394.214 338.01 394.322 337.841 394.47 337.71C394.617 337.579 394.798 337.492 394.993 337.458C395.187 337.425 395.387 337.446 395.57 337.52C400.07 339.39 409.86 342.31 410.94 333.12C412.19 322.53 385.64 318.55 379.45 317.77Z" fill="#4A26AB"/>
<path d="M384.52 323.87C387.291 327.036 389.712 330.493 391.74 334.18" stroke="#263238" stroke-linecap="round" stroke-linejoin="round"/>
<path d="M380.29 319.73C381.147 320.424 381.962 321.168 382.73 321.96" stroke="#263238" stroke-linecap="round" stroke-linejoin="round"/>
<path d="M390.68 336.49C390.68 336.49 386.8 332.42 377.29 334.18" stroke="#263238" stroke-linecap="round" stroke-linejoin="round"/>
<path d="M394.91 322.73C395.982 326.471 395.982 330.439 394.91 334.18" stroke="#263238" stroke-linecap="round" stroke-linejoin="round"/>
<path d="M378.93 344.56C378.32 345.088 377.77 345.682 377.29 346.33" stroke="#263238" stroke-linecap="round" stroke-linejoin="round"/>
<path d="M391.74 340C391.74 340 385.34 340.33 380.58 343.35" stroke="#263238" stroke-linecap="round" stroke-linejoin="round"/>
<path d="M397 336.49C397 336.49 404.23 334.35 406 328.49" stroke="#263238" stroke-linecap="round" stroke-linejoin="round"/>
<path d="M436.88 326.39C436.88 326.39 422 343.88 418.17 384.44C416.97 397.27 415.71 409 414.56 419.04" stroke="#263238" stroke-width="2" stroke-linecap="round" stroke-linejoin="round"/>
<path d="M465.26 313.62C465.712 313.772 466.088 314.09 466.313 314.51C466.538 314.93 466.594 315.42 466.47 315.88C463.99 325.21 451.23 369.63 436.91 355.95C425.03 344.6 430.99 334.76 434.81 330.47C434.987 330.268 435.103 330.021 435.146 329.756C435.189 329.491 435.156 329.219 435.052 328.972C434.947 328.725 434.776 328.512 434.556 328.358C434.336 328.204 434.078 328.114 433.81 328.1C427.21 327.69 413.53 325.42 417.69 313.57C422.51 299.92 457.25 310.89 465.26 313.62Z" fill="#4A26AB"/>
<path opacity="0.2" d="M465.26 313.62C465.712 313.772 466.088 314.09 466.313 314.51C466.538 314.93 466.594 315.42 466.47 315.88C463.99 325.21 451.23 369.63 436.91 355.95C425.03 344.6 430.99 334.76 434.81 330.47C434.987 330.268 435.103 330.021 435.146 329.756C435.189 329.491 435.156 329.219 435.052 328.972C434.947 328.725 434.776 328.512 434.556 328.358C434.336 328.204 434.078 328.114 433.81 328.1C427.21 327.69 413.53 325.42 417.69 313.57C422.51 299.92 457.25 310.89 465.26 313.62Z" fill="black"/>
<path d="M455.45 318C450.18 320.203 445.167 322.976 440.5 326.27" stroke="#263238" stroke-linecap="round" stroke-linejoin="round"/>
<path d="M463.07 315.52C461.612 315.852 460.176 316.273 458.77 316.78" stroke="#263238" stroke-linecap="round" stroke-linejoin="round"/>
<path d="M440.41 329.76C440.41 329.76 447.56 327.1 458.11 334.92" stroke="#263238" stroke-linecap="round" stroke-linejoin="round"/>
<path d="M443.46 310.45C439.915 314.384 437.549 319.235 436.63 324.45" stroke="#263238" stroke-linecap="round" stroke-linejoin="round"/>
<path d="M449.93 346.6C450.359 347.609 450.674 348.662 450.87 349.74" stroke="#263238" stroke-linecap="round" stroke-linejoin="round"/>
<path d="M437 333.39C437 333.39 444.6 337.61 448.61 344.12" stroke="#263238" stroke-linecap="round" stroke-linejoin="round"/>
<path d="M432.68 326C432.68 326 425.14 319.09 426.51 310.84" stroke="#263238" stroke-linecap="round" stroke-linejoin="round"/>
<path d="M405.3 447.84H420.3C423.121 447.844 425.836 446.763 427.883 444.822C429.931 442.881 431.154 440.227 431.3 437.41L432.14 421.13C432.23 419.407 431.967 417.684 431.37 416.066C430.772 414.447 429.851 412.967 428.662 411.717C427.474 410.466 426.044 409.47 424.458 408.79C422.873 408.109 421.165 407.759 419.44 407.76H406.14C404.416 407.76 402.709 408.112 401.125 408.792C399.541 409.473 398.111 410.469 396.924 411.72C395.737 412.971 394.817 414.45 394.22 416.068C393.622 417.686 393.36 419.408 393.45 421.13L394.29 437.41C394.436 440.229 395.661 442.884 397.71 444.826C399.76 446.767 402.477 447.846 405.3 447.84Z" fill="white" stroke="#263238" stroke-linecap="round" stroke-linejoin="round"/>
<path d="M416.95 436.99H394.3" stroke="#263238" stroke-linecap="round" stroke-linejoin="round"/>
<path d="M431.35 436.99H423.84" stroke="#263238" stroke-linecap="round" stroke-linejoin="round"/>
<path d="M136.71 246.62L136.64 259.74C138.03 259.74 138.02 262.26 136.64 262.25C132.35 262.25 128.06 262.25 123.77 262.25L123.86 244.03L136.73 244.09C138.1 244.11 138.09 246.62 136.71 246.62Z" fill="white" stroke="#263238" stroke-linecap="round" stroke-linejoin="round"/>
<path d="M126.709 246.571L126.647 259.681L136.637 259.728L136.699 246.618L126.709 246.571Z" fill="white" stroke="#263238" stroke-linecap="round" stroke-linejoin="round"/>
<path d="M128.81 245.32L73.64 245.06C71.26 245.06 69.31 248.54 69.29 252.86C69.27 257.18 71.18 260.69 73.57 260.7L128.74 260.96L128.81 245.32Z" fill="white" stroke="#263238" stroke-linecap="round" stroke-linejoin="round"/>
<path d="M128.81 245.32L73.64 245.06C71.26 245.06 69.31 248.54 69.29 252.86C69.27 257.18 71.18 260.69 73.57 260.7L128.74 260.96L128.81 245.32Z" fill="white" stroke="#263238" stroke-linecap="round" stroke-linejoin="round"/>
<path d="M128.73 262.22C117.39 262.16 85.5 262.22 74.16 261.96C66.39 261.76 66.06 244.38 73.68 243.8C79 243.4 84.46 243.86 89.78 243.88L128.78 244.07C130.17 244.07 130.16 246.59 128.78 246.58L76 246.33C73.51 246.33 71.73 246.33 70.75 249.76C69.91 252.76 70.14 258.76 73.54 259.44C73.9294 259.47 74.3206 259.47 74.71 259.44L92.3 259.52L128.72 259.69C130.1 259.69 130.09 262.21 128.72 262.21L128.73 262.22Z" fill="#4A26AB" stroke="#263238" stroke-linecap="round" stroke-linejoin="round"/>
<path d="M136.68 233.36V241.7C138.06 241.7 138.06 243.31 136.68 243.3C132.387 243.3 128.097 243.3 123.81 243.3L123.87 231.72L136.74 231.78C138.07 231.77 138.07 233.37 136.68 233.36Z" fill="white" stroke="#263238" stroke-linecap="round" stroke-linejoin="round"/>
<path d="M126.677 233.307L126.638 241.637L136.628 241.684L136.667 233.354L126.677 233.307Z" fill="white" stroke="#263238" stroke-linecap="round" stroke-linejoin="round"/>
<path d="M128.78 232.52L73.61 232.26C71.23 232.26 69.29 234.46 69.27 237.26C69.25 240.06 71.18 242.26 73.56 242.26L128.74 242.52L128.78 232.52Z" fill="white" stroke="#263238" stroke-linecap="round" stroke-linejoin="round"/>
<path d="M128.78 232.52L73.61 232.26C71.23 232.26 69.29 234.46 69.27 237.26C69.25 240.06 71.18 242.26 73.56 242.26L128.74 242.52L128.78 232.52Z" fill="#BFBFBF" stroke="#263238" stroke-linecap="round" stroke-linejoin="round"/>
<path d="M128.73 243.26C117.39 243.26 85.5 243.26 74.16 243C66.39 242.86 66.03 231.81 73.65 231.46C78.96 231.22 84.43 231.46 89.75 231.54L128.75 231.72C130.13 231.72 130.13 233.33 128.75 233.32L76 233.07C73.51 233.07 71.73 233.07 70.76 235.24C69.92 237.12 70.16 240.97 73.57 241.4C73.9596 241.425 74.3504 241.425 74.74 241.4L92.32 241.48L128.74 241.65C130.13 241.65 130.12 243.26 128.74 243.25L128.73 243.26Z" fill="#263238" stroke="#263238" stroke-linecap="round" stroke-linejoin="round"/>
<path d="M134.7 265.79L134.64 277.94C135.92 277.94 135.91 280.27 134.64 280.27C130.64 280.27 126.69 280.27 122.72 280.27L122.8 263.4L134.72 263.46C136 263.47 136 265.79 134.7 265.79Z" fill="#5C5C5C" stroke="#263238" stroke-linecap="round" stroke-linejoin="round"/>
<path d="M125.428 265.741L125.371 277.881L134.631 277.924L134.688 265.784L125.428 265.741Z" fill="#BFBFBF" stroke="#263238" stroke-linecap="round" stroke-linejoin="round"/>
<path d="M127.39 264.59L76.29 264.35C74.08 264.35 72.29 267.57 72.29 271.57C72.29 275.57 74.05 278.82 76.29 278.83L127.39 279.07V264.59Z" fill="white" stroke="#263238" stroke-linecap="round" stroke-linejoin="round"/>
<path d="M127.39 264.59L76.29 264.35C74.08 264.35 72.29 267.57 72.29 271.57C72.29 275.57 74.05 278.82 76.29 278.83L127.39 279.07V264.59Z" fill="#BFBFBF" stroke="#263238" stroke-linecap="round" stroke-linejoin="round"/>
<path d="M127.31 280.23C116.81 280.18 87.31 280.23 76.77 279.99C69.58 279.81 69.27 263.71 76.33 263.18C81.25 262.81 86.33 263.23 91.24 263.25L127.39 263.43C128.68 263.43 128.67 265.76 127.39 265.75L78.51 265.52C76.21 265.52 74.51 265.52 73.65 268.7C72.87 271.44 73.09 277.04 76.24 277.7C76.5992 277.735 76.9609 277.735 77.32 277.7L93.61 277.78L127.33 277.94C128.62 277.94 128.61 280.27 127.33 280.26L127.31 280.23Z" fill="#5C5C5C" stroke="#263238" stroke-linecap="round" stroke-linejoin="round"/>
<path d="M140.55 284.32L140.48 298.78C142 298.78 141.99 301.56 140.48 301.55C135.76 301.55 131.03 301.55 126.3 301.55L126.4 281.47L140.58 281.54C142.09 281.56 142.08 284.33 140.55 284.32Z" fill="#BFBFBF" stroke="#263238" stroke-linecap="round" stroke-linejoin="round"/>
<path d="M129.527 284.279L129.459 298.719L140.479 298.771L140.547 284.331L129.527 284.279Z" fill="white" stroke="#263238" stroke-linecap="round" stroke-linejoin="round"/>
<path d="M131.85 282.89L71 282.6C68.38 282.6 66.23 286.44 66.21 291.2C66.19 295.96 68.29 299.83 70.92 299.84L131.73 300.13L131.85 282.89Z" fill="white" stroke="#263238" stroke-linecap="round" stroke-linejoin="round"/>
<path d="M131.85 282.89L71 282.6C68.38 282.6 66.23 286.44 66.21 291.2C66.19 295.96 68.29 299.83 70.92 299.84L131.73 300.13L131.85 282.89Z" fill="white" stroke="#263238" stroke-linecap="round" stroke-linejoin="round"/>
<path d="M131.76 301.51C119.26 301.45 84.11 301.51 71.62 301.23C63.05 301 62.68 281.85 71.09 281.23C76.94 280.79 82.96 281.29 88.83 281.31L131.83 281.52C133.35 281.52 133.34 284.3 131.83 284.29L73.67 284C70.93 284 68.97 284 67.89 287.78C66.96 291.05 67.22 297.71 70.97 298.45C71.3957 298.49 71.8243 298.49 72.25 298.45L91.64 298.54L131.77 298.73C133.3 298.73 133.29 301.51 131.77 301.5L131.76 301.51Z" fill="#BFBFBF" stroke="#263238" stroke-linecap="round" stroke-linejoin="round"/>
<path d="M130.59 228.16C126.47 231.35 121.32 231.43 116.69 230.41C118.409 229.974 120.019 229.188 121.42 228.1L121.19 227.58C127.34 227.96 129.31 225.31 129.31 225.31L129.75 226.31L130.59 228.16Z" fill="white" stroke="#263238" stroke-linecap="round" stroke-linejoin="round"/>
<path d="M121.41 228.09C120.009 229.178 118.399 229.964 116.68 230.4C113.214 229.587 109.873 228.309 106.75 226.6L106.54 226.48C105.22 225.76 104.44 225.24 104.44 225.24C104.29 225.42 104.14 225.58 103.99 225.74C103.14 226.678 102.184 227.514 101.14 228.23C96.49 231.37 91.14 231.28 86.96 230.37C84.4478 229.818 82.0153 228.951 79.72 227.79C81.5957 227.906 83.478 227.731 85.3 227.27C87.6789 227.906 90.1618 228.056 92.6 227.71C94.223 227.467 95.8089 227.02 97.32 226.38C98.5212 225.875 99.6729 225.259 100.76 224.54C101.962 223.764 103.075 222.859 104.08 221.84C108.173 224.101 112.543 225.819 117.08 226.95H117.16C118.477 227.246 119.814 227.444 121.16 227.54L121.41 228.09Z" fill="white" stroke="#263238" stroke-linecap="round" stroke-linejoin="round"/>
<path d="M121.41 228.09C120.009 229.178 118.399 229.964 116.68 230.4C111.36 231.81 105.4 230.09 101.13 228.24C99.61 227.59 98.3 226.93 97.31 226.39C96.02 225.67 95.31 225.18 95.31 225.18C94.5108 226.121 93.6123 226.972 92.63 227.72C90.9543 228.983 89.0386 229.892 87 230.39C78.69 232.39 70.19 227.52 70.19 227.52L71.03 225.14C73.7064 226.665 76.6882 227.577 79.76 227.81C81.6357 227.926 83.518 227.751 85.34 227.29C88.9844 226.344 92.3115 224.446 94.98 221.79C97.09 222.9 99.04 223.79 100.83 224.55C101.64 224.89 102.41 225.19 103.15 225.46H103.26L104.03 225.72C105.03 226.05 105.94 226.34 106.8 226.57C111.8 227.9 115.17 227.57 117.22 226.94L117.61 226.8H117.73C118.669 226.504 119.511 225.962 120.17 225.23L120.44 225.84L121.21 227.57L121.41 228.09Z" fill="white" stroke="#263238" stroke-linecap="round" stroke-linejoin="round"/>
<path d="M129.3 225.3C129.3 225.3 127.3 227.95 121.18 227.57L120.41 225.84C120.29 225.84 119.12 226.35 117.89 226.74L117.7 226.8H117.58L117.11 226.92C115.54 227.31 112.11 227.84 106.56 226.45C105.75 226.26 104.9 226.01 104.01 225.71L103.23 225.46H103.12C102.37 225.19 101.58 224.9 100.77 224.56C98.7796 223.747 96.8365 222.822 94.95 221.79L104.12 221.85C109.395 223.191 114.735 224.259 120.12 225.05C123.77 225.54 127.18 225.74 129.3 225.3Z" fill="#263238" stroke="#263238" stroke-linecap="round" stroke-linejoin="round"/>
<path d="M121.42 228.1C124.398 229.063 127.6 229.084 130.59 228.16L129.3 225.3C129.3 225.3 127.64 227.23 120.4 225.84L121.42 228.1Z" fill="white" stroke="#263238" stroke-linecap="round" stroke-linejoin="round"/>
<path d="M375.88 298.22C370.88 302.07 364.72 302.17 359.14 300.93C361.208 300.41 363.145 299.467 364.83 298.16L364.54 297.53C371.96 297.99 374.33 294.8 374.33 294.8L374.85 295.97L375.88 298.22Z" fill="white" stroke="#263238" stroke-linecap="round" stroke-linejoin="round"/>
<path d="M364.83 298.14C363.145 299.449 361.208 300.396 359.14 300.92C354.951 299.943 350.915 298.402 347.14 296.34C347.05 296.34 346.97 296.24 346.89 296.2C345.3 295.33 344.36 294.71 344.36 294.71C344.17 294.93 343.99 295.12 343.81 295.31C342.793 296.445 341.641 297.453 340.38 298.31C334.79 302.1 328.38 301.99 323.3 300.9C320.268 300.238 317.334 299.189 314.57 297.78C316.832 297.926 319.103 297.716 321.3 297.16C324.161 297.928 327.148 298.108 330.08 297.69C332.042 297.395 333.96 296.857 335.79 296.09C337.229 295.476 338.611 294.736 339.92 293.88C341.366 292.943 342.707 291.853 343.92 290.63C348.849 293.35 354.109 295.421 359.57 296.79C359.599 296.78 359.631 296.78 359.66 296.79C361.239 297.153 362.844 297.394 364.46 297.51L364.83 298.14Z" fill="white" stroke="#263238" stroke-linecap="round" stroke-linejoin="round"/>
<path d="M335.81 296.1C333.98 296.867 332.062 297.405 330.1 297.7C331.295 296.809 332.382 295.782 333.34 294.64C333.34 294.64 334.25 295.24 335.81 296.1Z" fill="#263238" stroke="#263238" stroke-linecap="round" stroke-linejoin="round"/>
<path d="M364.83 298.14C363.145 299.449 361.208 300.396 359.14 300.92C352.73 302.62 345.55 300.54 340.4 298.31C338.58 297.54 337 296.74 335.81 296.09C334.25 295.23 333.34 294.63 333.34 294.63C332.382 295.772 331.295 296.799 330.1 297.69C328.084 299.213 325.776 300.306 323.32 300.9C313.32 303.33 303.07 297.44 303.07 297.44L304.07 294.57C307.288 296.416 310.88 297.513 314.58 297.78C316.842 297.926 319.113 297.716 321.31 297.16C325.699 296.018 329.706 293.73 332.92 290.53C335.47 291.87 337.81 292.96 339.97 293.86C340.97 294.27 341.87 294.63 342.76 294.95L342.9 295.01L343.82 295.32C345 295.72 346.12 296.06 347.16 296.32C353.25 297.92 357.24 297.56 359.72 296.76C359.876 296.716 360.03 296.662 360.18 296.6L360.33 296.55C361.458 296.192 362.469 295.54 363.26 294.66L363.59 295.4L364.52 297.48L364.83 298.14Z" fill="white" stroke="#263238" stroke-linecap="round" stroke-linejoin="round"/>
<path d="M375.89 298.22C372.284 299.333 368.422 299.308 364.83 298.15L363.6 295.43C363.47 295.49 362.06 296.03 360.6 296.51L360.37 296.58L360.22 296.63L359.67 296.78C357.77 297.25 353.58 297.88 346.95 296.21C345.95 295.97 344.95 295.68 343.87 295.32L342.94 295.02L342.8 294.96C341.89 294.64 340.95 294.29 339.97 293.89C337.577 292.902 335.241 291.783 332.97 290.54L344.02 290.62C350.387 292.231 356.832 293.52 363.33 294.48C367.7 295.06 371.8 295.31 374.33 294.77L375.89 298.22Z" fill="white" stroke="#263238" stroke-linecap="round" stroke-linejoin="round"/>
<path d="M364.8 293C363.114 294.307 361.177 295.254 359.11 295.78C352.7 297.48 345.52 295.4 340.37 293.17C338.55 292.39 336.97 291.6 335.78 290.95C334.23 290.08 333.32 289.49 333.32 289.49C332.357 290.627 331.27 291.653 330.08 292.55C328.06 294.073 325.749 295.166 323.29 295.76C313.29 298.19 303.04 292.3 303.04 292.3L304.04 289.43C307.262 291.266 310.852 292.363 314.55 292.64C316.809 292.786 319.076 292.577 321.27 292.02C325.663 290.88 329.674 288.592 332.89 285.39C335.43 286.73 337.77 287.82 339.89 288.72C340.89 289.12 341.79 289.49 342.69 289.81L342.82 289.86L343.75 290.18C344.93 290.58 346.04 290.92 347.09 291.18C353.18 292.78 357.17 292.42 359.64 291.62L360.11 291.46L360.26 291.41C361.386 291.048 362.396 290.396 363.19 289.52L363.52 290.26L364.45 292.33L364.8 293Z" fill="white" stroke="#263238" stroke-linecap="round" stroke-linejoin="round"/>
<path d="M374.3 289.59C374.3 289.59 371.93 292.78 364.52 292.32L363.59 290.24C363.45 290.3 362.04 290.84 360.59 291.32C360.514 291.332 360.44 291.356 360.37 291.39L360.22 291.44L359.66 291.58C357.76 292.05 353.57 292.68 346.94 291.02C345.94 290.78 344.94 290.48 343.87 290.13L342.93 289.82L342.8 289.77C341.89 289.45 340.95 289.1 339.97 288.7C337.577 287.714 335.24 286.595 332.97 285.35L343.97 285.43C350.337 287.041 356.782 288.33 363.28 289.29C367.64 289.88 371.75 290.13 374.3 289.59Z" fill="#263238" stroke="#263238" stroke-linecap="round" stroke-linejoin="round"/>
<path d="M364.8 293C368.389 294.157 372.247 294.181 375.85 293.07L374.3 289.62C374.3 289.62 372.3 291.95 363.58 290.28L364.8 293Z" fill="white" stroke="#263238" stroke-linecap="round" stroke-linejoin="round"/>
<path d="M249.43 403.1C245.56 400.66 237.81 392.23 236.43 389.26C235.05 386.29 233.6 386.07 230.76 384.51C222.76 380.13 218.53 377.7 221.85 372.4C222.488 371.418 223.282 370.547 224.2 369.82C225.421 368.828 226.429 367.598 227.163 366.206C227.896 364.814 228.341 363.288 228.47 361.72C228.741 358.828 228.778 355.918 228.58 353.02C231.12 355.02 234.2 357.13 241.81 357.53L240.75 368.47C240.01 377.77 247.36 388.38 249.65 395.34C249.94 396.21 250.08 397.4 250.65 397.88C251.444 398.467 252.122 399.196 252.65 400.03C252.887 400.475 252.971 400.985 252.891 401.483C252.81 401.981 252.569 402.438 252.204 402.786C251.839 403.134 251.371 403.353 250.87 403.41C250.369 403.466 249.863 403.358 249.43 403.1Z" fill="white" stroke="#263238" stroke-linecap="round" stroke-linejoin="round"/>
<path d="M232.83 366.77C232.148 367.471 231.597 368.287 231.2 369.18C231.006 369.605 230.933 370.076 230.99 370.54C231.046 371.004 231.23 371.444 231.52 371.81" stroke="#263238" stroke-linecap="round" stroke-linejoin="round"/>
<path d="M234.46 384.5C234.63 387.5 239.09 393.15 241.14 395.37" stroke="#263238" stroke-linecap="round" stroke-linejoin="round"/>
<path d="M247.91 395.47C248.613 396.37 249.457 397.15 250.41 397.78" stroke="#263238" stroke-linecap="round" stroke-linejoin="round"/>
<path d="M230.16 382.25C227.804 382.156 225.538 381.315 223.69 379.85" stroke="#263238" stroke-linecap="round" stroke-linejoin="round"/>
<path d="M245.82 397.92C246.092 399.001 246.581 400.016 247.257 400.902C247.932 401.789 248.78 402.53 249.75 403.08" fill="white"/>
<path d="M245.82 397.92C246.092 399.001 246.581 400.016 247.257 400.902C247.932 401.789 248.78 402.53 249.75 403.08" stroke="#263238" stroke-linecap="round" stroke-linejoin="round"/>
<path d="M253.63 300L243.23 357.6C242.75 357.6 242.3 357.55 241.84 357.51C235.06 356.93 230.98 354.86 228.61 352.99C227.46 340.13 227.98 323.99 227.91 319.99C227.69 305.78 232.91 298.83 232.91 298.83C232.91 298.83 210.7 301.27 187.91 301.77C181.3 301.91 174.63 301.89 168.44 301.61C172.66 299.93 180.5 290.95 182.64 288.44C164.93 303.54 149.89 299.49 146.79 298.33L147.22 298.55L147.94 298.9C146.129 298.422 144.381 297.734 142.73 296.85C126.83 287.85 128.42 271.7 129.73 263.47C129.87 262.55 130.01 261.73 130.12 261.04C130.12 261.04 140.65 261.66 155.49 262.96C160.68 263.42 166.39 263.96 172.36 264.57C180.51 265.43 189.14 266.43 197.6 267.62C199.76 267.9 201.9 268.23 204.02 268.54C205.83 268.81 207.63 269.1 209.39 269.39C210.77 269.61 212.11 269.84 213.45 270.07L216.54 270.63C216.87 270.7 217.21 270.76 217.54 270.81C233.86 273.88 246.94 277.72 250.41 282.37C256.25 290.31 253.63 300 253.63 300Z" fill="#BFBFBF" stroke="#263238" stroke-linecap="round" stroke-linejoin="round"/>
<path d="M216.43 286.64C218.583 285.307 220.673 283.87 222.7 282.33" stroke="#263238" stroke-linecap="round" stroke-linejoin="round"/>
<path d="M166.7 300.8C181.704 300.875 196.503 297.313 209.83 290.42" stroke="#263238" stroke-linecap="round" stroke-linejoin="round"/>
<path d="M254.15 293.12C253.688 300.1 250.682 306.669 245.7 311.58" stroke="#263238" stroke-linecap="round" stroke-linejoin="round"/>
<path d="M236.5 295.3L231.83 301.24" stroke="#263238" stroke-linecap="round" stroke-linejoin="round"/>
<path d="M182.56 288.45C180.42 290.96 172.56 299.94 168.36 301.62C160.36 301.24 153.15 300.42 147.86 298.91L147.14 298.56L146.71 298.34C149.81 299.5 164.85 303.55 182.56 288.45Z" fill="#263238" stroke="#263238" stroke-linecap="round" stroke-linejoin="round"/>
<path d="M146 298.06C146.218 298.126 146.429 298.213 146.63 298.32C146.414 298.249 146.203 298.162 146 298.06Z" fill="#263238" stroke="#263238" stroke-linecap="round" stroke-linejoin="round"/>
<path d="M185 286.25C184.18 287.03 183.36 287.76 182.55 288.45L183.09 287.8L185 286.25Z" fill="#263238" stroke="#263238" stroke-linecap="round" stroke-linejoin="round"/>
<path d="M317 303.08C312.46 303.97 300.92 303.13 297.88 301.87C294.84 300.61 293.59 301.48 290.42 302.29C281.53 304.58 276.7 305.75 275.47 299.55C275.279 298.384 275.279 297.196 275.47 296.03C275.681 294.454 275.572 292.852 275.149 291.319C274.726 289.787 273.999 288.355 273.01 287.11C271.205 284.796 269.219 282.629 267.07 280.63C270.32 280.35 274.07 279.77 279.93 274.8L286.7 283.58C292.6 290.94 305.35 293.66 311.85 297.2C312.66 297.64 313.59 298.42 314.37 298.35C315.358 298.237 316.358 298.309 317.32 298.56C317.812 298.725 318.235 299.048 318.523 299.48C318.811 299.912 318.947 300.426 318.91 300.944C318.874 301.461 318.666 301.952 318.32 302.339C317.975 302.725 317.51 302.986 317 303.08Z" fill="white" stroke="#263238" stroke-linecap="round" stroke-linejoin="round"/>
<path d="M279.61 287.83C279.602 288.816 279.761 289.797 280.08 290.73C280.229 291.179 280.501 291.578 280.865 291.88C281.229 292.182 281.671 292.376 282.14 292.44" stroke="#263238" stroke-linecap="round" stroke-linejoin="round"/>
<path d="M293.07 299.75C295.28 301.85 302.47 302.91 305.51 303.13" stroke="#263238" stroke-linecap="round" stroke-linejoin="round"/>
<path d="M288.36 301.07C286.558 302.626 284.312 303.574 281.94 303.78" stroke="#263238" stroke-linecap="round" stroke-linejoin="round"/>
<path d="M311.44 301.89C312.261 302.475 313.205 302.865 314.2 303.029C315.195 303.194 316.214 303.129 317.18 302.84" fill="white"/>
<path d="M311.44 301.89C312.261 302.475 313.205 302.865 314.2 303.029C315.195 303.194 316.214 303.129 317.18 302.84" stroke="#263238" stroke-linecap="round" stroke-linejoin="round"/>
<path d="M281 273.91C276.596 277.689 271.178 280.092 265.42 280.82C255.67 272.15 245.99 260.5 243.04 257.72C236.39 251.46 232.69 237.82 232.69 237.82C232.69 237.82 218 255 201.54 271.14C188.25 284.19 173.78 296.59 164.89 298.77C146.97 303.16 136.89 293.42 132.12 286.48C131.59 285.71 129.61 279.83 129.21 279.24C136.829 275.161 144.059 270.394 150.81 265C154.94 261.75 159.51 258.19 164.33 254.52C170.92 249.52 177.97 244.28 185.01 239.3C187.01 238.87 189.4 238.3 191.11 237.86C191.873 237.627 192.542 237.158 193.02 236.52L193.33 236.63L199.8 229.73C200.362 229.44 200.861 229.042 201.27 228.56L201.91 227.84C216.05 218.84 228.32 212.59 234.1 213.61C243.94 215.34 248.73 224.3 248.73 224.3L281 273.91Z" fill="#BFBFBF" stroke="#263238" stroke-linecap="round" stroke-linejoin="round"/>
<path d="M201.91 227.87L201.27 228.59C200.861 229.072 200.362 229.47 199.8 229.76L193.33 236.66L193.02 236.55C192.542 237.188 191.873 237.657 191.11 237.89C189.4 238.35 186.96 238.89 185.01 239.33C186.8 238.05 188.6 236.8 190.38 235.57C191.9 234.51 193.413 233.477 194.92 232.47L198.37 230.17L201.03 228.44C201.32 228.26 201.62 228.07 201.91 227.87Z" fill="white" stroke="#263238" stroke-linecap="round" stroke-linejoin="round"/>
<path d="M308 298C310 298.56 310.91 299.39 312.89 300C313.44 300.15 315.05 300 315.53 300.34C315.782 300.477 316.002 300.667 316.175 300.896C316.347 301.126 316.469 301.39 316.53 301.67C316.58 301.948 316.533 302.236 316.397 302.483C316.26 302.731 316.042 302.924 315.78 303.03" stroke="#263238" stroke-linecap="round" stroke-linejoin="round"/>
<path d="M310.82 297.72C312.354 298.707 314.158 299.193 315.98 299.11C316.422 299.09 316.859 299.218 317.221 299.473C317.583 299.729 317.85 300.097 317.98 300.52C318.144 300.881 318.179 301.286 318.081 301.67C317.983 302.054 317.757 302.392 317.44 302.63" stroke="#263238" stroke-linecap="round" stroke-linejoin="round"/>
<path d="M171.05 232.34L156.29 237.67L153 229.06L181.36 220.31C181.36 220.31 179.67 223.13 175.11 230.03C172.19 234.42 171.05 232.34 171.05 232.34Z" fill="#4A26AB"/>
<path d="M171.05 232.34L156.29 237.67L153 229.06L181.36 220.31C181.36 220.31 179.67 223.13 175.11 230.03C172.19 234.42 171.05 232.34 171.05 232.34Z" fill="#4A26AB" stroke="#263238" stroke-linecap="round" stroke-linejoin="round"/>
<path opacity="0.2" d="M157.07 235C157.341 235.368 157.697 235.664 158.108 235.863C158.52 236.062 158.973 236.157 159.43 236.14C160.338 236.094 161.233 235.902 162.08 235.57L170.4 232.83C171.594 232.506 172.728 231.992 173.76 231.31C176.02 229.64 182.92 225.03 177.84 225.87C173.35 226.58 156.38 233.9 157.07 235Z" fill="#263238"/>
<path d="M171.05 232.34L156.29 237.67L153 229.06L181.36 220.31C181.36 220.31 179.67 223.13 175.11 230.03C172.19 234.42 171.05 232.34 171.05 232.34Z" stroke="#263238" stroke-linecap="round" stroke-linejoin="round"/>
<path d="M134.47 182.61C134.81 184.07 132.66 186.35 131.16 186.2C129.685 185.875 128.349 185.095 127.34 183.97L118.42 175.86C117.804 175.407 117.337 174.78 117.08 174.06C117.004 173.772 117.016 173.468 117.114 173.186C117.212 172.905 117.392 172.659 117.63 172.48C117.761 172.431 117.894 172.391 118.03 172.36H118.25C119.522 171.084 120.515 169.557 121.166 167.877C121.816 166.197 122.111 164.4 122.03 162.6C125.03 162.08 128.08 163.67 130.12 165.94C132.16 168.21 135.98 167.94 137.12 170.79C136.05 171.52 133.12 176.11 132.67 177.35C132.505 177.79 132.404 178.251 132.37 178.72C132.297 179.607 132.42 180.499 132.729 181.334C133.038 182.168 133.527 182.925 134.16 183.55L134.47 182.61Z" fill="white" stroke="#263238" stroke-linecap="round" stroke-linejoin="round"/>
<path d="M164.33 259.24C160.098 264.074 156.167 269.163 152.56 274.48C147.71 277.73 140.99 280.48 131.73 281.89L131 282C126.16 282.64 123.28 261.75 121.93 248.51C121.32 242.41 121.03 237.94 121.03 237.94C121.03 237.94 107.13 218.36 105.53 199.89C105.377 198.285 105.334 196.671 105.4 195.06C105.69 187.77 107.52 182.75 109.69 179.34C111.533 176.238 114.344 173.828 117.69 172.48C117.452 172.659 117.272 172.905 117.174 173.186C117.076 173.468 117.064 173.772 117.14 174.06C117.258 174.47 117.47 174.847 117.76 175.16L117.97 175.38C118.13 175.55 118.31 175.71 118.48 175.86L122.05 179.11L127.4 183.97C128.409 185.095 129.745 185.875 131.22 186.2C132.72 186.36 134.87 184.07 134.53 182.61L134.29 183.49C133.658 182.866 133.17 182.111 132.86 181.279C132.551 180.446 132.428 179.555 132.5 178.67C132.533 178.198 132.634 177.733 132.8 177.29C134.148 178.564 135.319 180.014 136.28 181.6C140.75 188.89 148.85 198.93 153.79 204.84C155.444 206.795 156.511 209.179 156.865 211.715C157.219 214.252 156.846 216.837 155.79 219.17L155.73 219.3C153.94 223.05 155.36 227.4 155.67 228.25L155.73 228.4L158.53 236.89L163 250.69L163.83 253.21C164.488 255.149 164.66 257.219 164.33 259.24Z" fill="#4A26AB"/>
<path opacity="0.2" d="M140.91 210.88C142.841 213.24 144.409 215.876 145.56 218.7C146.56 221.57 146.62 224.93 144.99 227.5C148.556 225.808 151.975 223.821 155.21 221.56C153.963 225.765 151.664 229.582 148.53 232.65C146.23 234.9 142.68 236.76 139.91 235.11C137.55 233.69 136.28 231.2 135.63 228.51C131.86 213.09 131.86 209.71 130.33 196.7C134.2 201 137.44 206.2 140.91 210.88Z" fill="#263238"/>
<path opacity="0.2" d="M121.79 250.39C121.63 253.685 121.926 256.986 122.67 260.2C123.049 261.807 123.753 263.319 124.738 264.643C125.724 265.967 126.97 267.076 128.4 267.9C131.79 269.62 135.9 269.02 139.53 267.9C143.16 266.78 146.7 265.11 150.53 264.83C148.096 267.558 145.106 269.735 141.762 271.213C138.418 272.691 134.796 273.437 131.14 273.4C132.305 274.363 133.683 275.034 135.159 275.359C136.636 275.685 138.168 275.654 139.63 275.27C136.255 277.845 132.226 279.421 128 279.82C130.09 282.39 134.06 282.19 137.25 281.33C143.467 279.621 149.173 276.421 153.873 272.007C158.573 267.592 162.125 262.098 164.22 256C164.7 254.55 164.84 252.48 163.41 251.93C162.692 251.742 161.931 251.813 161.26 252.13L134.51 261.21C132.58 261.86 130.28 262.46 128.65 261.21C127.916 260.565 127.344 259.757 126.98 258.85C125.387 255.67 123.8 252.483 122.22 249.29L121.67 250.55C121.58 249.37 121.48 248.18 121.38 246.99" fill="#263238"/>
<path d="M164.33 259.24C160.098 264.074 156.167 269.163 152.56 274.48C147.71 277.73 140.99 280.48 131.73 281.89L131 282C126.16 282.64 123.28 261.75 121.93 248.51C121.32 242.41 121.03 237.94 121.03 237.94C121.03 237.94 107.13 218.36 105.53 199.89C105.377 198.285 105.334 196.671 105.4 195.06C105.69 187.77 107.52 182.75 109.69 179.34C111.533 176.238 114.344 173.828 117.69 172.48C117.452 172.659 117.272 172.905 117.174 173.186C117.076 173.468 117.064 173.772 117.14 174.06C117.258 174.47 117.47 174.847 117.76 175.16L117.97 175.38C118.13 175.55 118.31 175.71 118.48 175.86L122.05 179.11L127.4 183.97C128.409 185.095 129.745 185.875 131.22 186.2C132.72 186.36 134.87 184.07 134.53 182.61L134.29 183.49C133.658 182.866 133.17 182.111 132.86 181.279C132.551 180.446 132.428 179.555 132.5 178.67C132.533 178.198 132.634 177.733 132.8 177.29C134.148 178.564 135.319 180.014 136.28 181.6C140.75 188.89 148.85 198.93 153.79 204.84C155.444 206.795 156.511 209.179 156.865 211.715C157.219 214.252 156.846 216.837 155.79 219.17L155.73 219.3C153.94 223.05 155.36 227.4 155.67 228.25L155.73 228.4L158.53 236.89L163 250.69L163.83 253.21C164.488 255.149 164.66 257.219 164.33 259.24V259.24Z" stroke="#263238" stroke-linecap="round" stroke-linejoin="round"/>
<path d="M118 172.34C117.859 172.349 117.722 172.39 117.6 172.46" stroke="#263238" stroke-linecap="round" stroke-linejoin="round"/>
<path d="M122 162.56L122.1 162.4V162.54L122 162.56Z" stroke="#263238" stroke-linecap="round" stroke-linejoin="round"/>
<path d="M118.29 172.3C118.116 172.489 117.929 172.666 117.73 172.83" stroke="#263238" stroke-linecap="round" stroke-linejoin="round"/>
<path d="M225.22 200.8L222.56 203.64L221.88 204.37L221.13 205.17L220.73 205.59C215.15 211.59 205.81 221.59 201.46 226.52L200.82 227.24C200.411 227.722 199.912 228.12 199.35 228.41C198.909 228.649 198.421 228.789 197.92 228.82C197.261 228.871 196.6 228.779 195.98 228.55C195.115 228.221 194.303 227.766 193.57 227.2C192.349 226.244 191.233 225.161 190.24 223.97C189.84 223.51 189.46 223.03 189.1 222.57C188.48 221.76 187.92 220.97 187.44 220.27C186.44 218.8 185.85 217.74 185.85 217.74L187.28 216.24L187.47 216.05L194.91 208.27L220.18 181.87C223.15 179.86 225.22 200.8 225.22 200.8Z" fill="white" stroke="#263238" stroke-linecap="round" stroke-linejoin="round"/>
<path d="M219.63 184.82L191.38 214.52C191.38 214.52 189.91 216.52 191.38 217.52C192.85 218.52 216.76 191.33 216.76 191.33C216.76 191.33 221.23 192.99 222.59 195.33C223.95 197.67 219.16 190.1 219.59 184.88" fill="#BFBFBF"/>
<path d="M219.63 184.82L191.38 214.52C191.38 214.52 189.91 216.52 191.38 217.52C192.85 218.52 216.76 191.33 216.76 191.33C216.76 191.33 221.23 192.99 222.59 195.33C223.95 197.67 219.16 190.1 219.59 184.88" stroke="#263238" stroke-linecap="round" stroke-linejoin="round"/>
<path d="M224.61 198.86C224.61 198.86 220.89 192.66 220.14 189.69C219.701 188.106 219.529 186.46 219.63 184.82L222.21 185.17C223.626 189.604 224.433 194.209 224.61 198.86Z" fill="#BFBFBF"/>
<path d="M224.61 198.86C224.61 198.86 220.89 192.66 220.14 189.69C219.701 188.106 219.529 186.46 219.63 184.82L222.21 185.17C223.626 189.604 224.433 194.209 224.61 198.86" stroke="#263238" stroke-linecap="round" stroke-linejoin="round"/>
<path d="M225.07 200.19L215.86 195.45L193.35 219L191.35 216.49L215.19 190.86C217.535 191.396 219.676 192.593 221.36 194.31C223.114 195.891 224.398 197.926 225.07 200.19Z" fill="#BFBFBF" stroke="#263238" stroke-linecap="round" stroke-linejoin="round"/>
<path d="M225.22 200.8L222.56 203.64L221.88 204.37L221.13 205.17L220.73 205.59L200.56 227.1L199.33 228.42L192.86 235.32L192.55 235.21L189.91 234.23L181.34 231.05L189.08 222.58L192.16 219.21L192.2 219.17L192.85 218.46L194.12 217.07L214.49 194.78L225.22 200.8Z" fill="white" stroke="#263238" stroke-linecap="round" stroke-linejoin="round"/>
<path d="M171.05 232.1C171.05 232.1 148.93 241.4 139.39 241.83C139.39 241.83 133.45 225.38 129.93 196.07C128.26 182.19 114.78 186.2 114.78 186.2C114.54 186.34 101.28 192.08 106.66 210.52C112.04 228.96 128.24 261.88 128.24 261.88C140.247 260.415 151.875 256.725 162.53 251L175.09 244.24C175.09 244.24 173 237 171.05 232.1Z" fill="#4A26AB"/>
<path opacity="0.2" d="M111 210.68C114.33 215.13 118.6 218.78 122.45 222.79C123.426 223.623 124.101 224.755 124.37 226.01C124.5 227.27 123.84 228.46 123.52 229.69C122.52 233.31 124.62 237.01 126.91 239.97C129.2 242.93 131.91 245.86 132.54 249.54C132.77 250.84 132.75 252.25 133.46 253.36C134.81 255.45 137.87 255.36 140.29 254.76C151.96 252.05 162.43 244.76 174.36 243.59C161.688 251.373 148.016 257.395 133.72 261.49C131.72 262.07 129.42 262.58 127.61 261.49C126.1 260.62 125.34 258.9 124.67 257.3L111.21 225C109.152 220.37 107.451 215.589 106.12 210.7C105.27 207.3 103.23 199.23 105.58 196.31C106.51 198.15 106.26 201.31 107.05 203.54C108.011 206.1 109.342 208.506 111 210.68Z" fill="#263238"/>
<path d="M171.05 232.1C171.05 232.1 148.93 241.4 139.39 241.83C139.39 241.83 133.45 225.38 129.93 196.07C128.26 182.19 114.78 186.2 114.78 186.2C114.54 186.34 101.28 192.08 106.66 210.52C112.04 228.96 128.24 261.88 128.24 261.88C140.247 260.415 151.875 256.725 162.53 251L175.09 244.24C175.09 244.24 173 237 171.05 232.1Z" stroke="#263238" stroke-linecap="round" stroke-linejoin="round"/>
<path d="M199.18 222.2L197.06 223.03C197.06 223.03 197.64 226.96 196.69 227.69C196.45 227.99 196.21 228.28 195.96 228.56C195.599 228.981 195.212 229.378 194.8 229.75C194.72 230.11 194.61 230.59 194.45 231.13C194.085 232.6 193.44 233.985 192.55 235.21C192.072 235.848 191.403 236.317 190.64 236.55C188.93 237.01 186.49 237.55 184.54 237.99L181.33 238.67L174.69 242.42L173.59 239.42L171.06 232.42H171.14C172.134 232.033 173.091 231.558 174 231C174.391 230.706 174.75 230.371 175.07 230C177.047 227.463 178.8 224.759 180.31 221.92L180.52 221.53L181.18 220.32C181.51 219.73 181.74 219.32 181.85 219.13C183.59 218.21 185.5 217.13 187.24 216.22C188.96 215.33 189.93 216.22 193.12 215.68C194.02 215.68 194.24 216.32 194.12 217.05C193.87 217.633 193.425 218.111 192.86 218.4C191.866 218.911 190.811 219.294 189.72 219.54L192.17 219.15L193.43 218.95H193.61L195.31 218.68H195.37L196.95 218.43H197.07H197.17L200.23 218.64H200.32L201.88 218.75C201.882 218.787 201.882 218.823 201.88 218.86C202.11 219.46 202.83 222.06 199.18 222.2Z" fill="white" stroke="#263238" stroke-linecap="round" stroke-linejoin="round"/>
<path d="M188.31 224.66C193.11 222.82 196.41 222.66 199.18 222.2C199.619 222.318 200.083 222.308 200.517 222.172C200.951 222.036 201.337 221.778 201.63 221.43C201.909 221.053 202.079 220.606 202.121 220.139C202.164 219.671 202.077 219.201 201.87 218.78C199.87 218.78 197.82 218.17 195.87 218.6C192.72 219.3 190.18 219.02 186.41 220.69" stroke="#263238" stroke-linecap="round" stroke-linejoin="round"/>
<path d="M190.64 232.34C192.165 231.715 193.574 230.84 194.81 229.75" stroke="#263238" stroke-linecap="round" stroke-linejoin="round"/>
<path d="M189.69 228.33C192.208 227.736 194.663 226.898 197.02 225.83" stroke="#263238" stroke-linecap="round" stroke-linejoin="round"/>
<path d="M183 218.29C183.51 218.29 187.41 209.75 187.41 209.75C187.41 209.75 193.35 209.9 194.93 208.25C194.93 208.25 196.44 211.25 193.36 212.18C190.28 213.11 187.26 216.25 187.26 216.25L183 218.29Z" fill="white" stroke="#263238" stroke-linecap="round" stroke-linejoin="round"/>
<path d="M130 169.49C130.899 170.897 132.203 171.998 133.74 172.65C135.32 173.14 137.42 172.28 137.59 170.65C137.73 169.22 136.47 168.08 135.33 167.21C133.94 166.14 126.84 159.46 125.38 160.34C123.45 161.48 129.17 168.36 130 169.49Z" fill="#263238" stroke="#263238" stroke-linecap="round" stroke-linejoin="round"/>
<path d="M150.55 136.22C151.288 138.484 151.883 140.791 152.33 143.13C152.73 145.88 151.74 150.66 151.88 151.5C152.02 152.34 155.06 157.66 154.88 158.6C154.7 159.54 150.88 160.77 150.88 160.77C150.88 160.77 148.88 167.03 147.68 169.62C146.48 172.21 146.39 173.76 142.84 173.08C139.29 172.4 134.69 170.08 129.2 165.95C123.71 161.82 118.54 158.88 118.46 152.46C118.38 146.04 138.16 134.32 140.82 133.12C143.48 131.92 150.55 136.22 150.55 136.22Z" fill="white" stroke="#263238" stroke-linecap="round" stroke-linejoin="round"/>
<path d="M149.52 151.23C149.25 152.45 148.63 153.34 148.16 153.23C147.69 153.12 147.47 152.03 147.74 150.82C148.01 149.61 148.65 148.7 149.11 148.82C149.57 148.94 149.8 150 149.52 151.23Z" fill="#263238"/>
<path d="M145.8 147.5C145.8 147.5 148.35 143.29 150.8 145.33" stroke="#263238" stroke-linecap="round" stroke-linejoin="round"/>
<path d="M149.57 162.92C149.57 162.92 146 163.71 144.71 160.66" stroke="#263238" stroke-linecap="round" stroke-linejoin="round"/>
<path d="M132.35 121.07C124.07 121.62 116.47 122.62 110.55 128.07C99.55 138.25 105.06 151.27 106.79 155.2C108.06 158.1 110.36 160.56 111.3 163.57C112.24 166.58 111 170.57 107.74 171.13C108.416 171.881 109.357 172.339 110.365 172.408C111.373 172.477 112.368 172.152 113.14 171.5C112.342 174.584 110.655 177.366 108.29 179.5C110.175 179.428 112.024 178.963 113.718 178.134C115.413 177.306 116.915 176.133 118.13 174.69L115.91 182C119.91 180.29 124.04 178.48 126.82 175.29C129.6 172.1 130.56 167.09 127.82 163.85C126.27 162.03 123.89 161.09 121.82 159.77C119.75 158.45 117.91 156.34 118.34 154.06C118.569 153.194 119.083 152.43 119.798 151.891C120.513 151.351 121.388 151.068 122.284 151.085C123.179 151.102 124.043 151.42 124.737 151.986C125.431 152.553 125.914 153.336 126.11 154.21C129.623 149.18 134.141 144.933 139.38 141.74C138.821 145.762 137.372 149.608 135.14 153C135.53 152.41 140.7 151.36 141.65 150.9C143.831 149.835 145.851 148.469 147.65 146.84C151.107 143.767 153.58 139.742 154.76 135.27C157 126.25 140.08 120.56 132.35 121.07Z" fill="#263238" stroke="#263238" stroke-linecap="round" stroke-linejoin="round"/>
<path d="M142.47 154.65H142.64" stroke="#263238" stroke-linecap="round" stroke-linejoin="round"/>
<path d="M144.07 156.43V156.25" stroke="#263238" stroke-linecap="round" stroke-linejoin="round"/>
<path d="M145.21 154.83V154.65" stroke="#263238" stroke-linecap="round" stroke-linejoin="round"/>
<path d="M231.43 230.64C231.832 234.712 232.999 238.671 234.87 242.31" stroke="#263238" stroke-linecap="round" stroke-linejoin="round"/>
<path d="M180.83 242.31C174.83 248.31 169.17 254.13 164.33 259.25L164.6 258.33C164.978 257.08 164.882 255.734 164.33 254.55L180.83 242.31Z" fill="#263238" stroke="#263238" stroke-linecap="round" stroke-linejoin="round"/>
<path d="M242.91 218.44C247.388 222.472 250.311 227.946 251.17 233.91" stroke="#263238" stroke-linecap="round" stroke-linejoin="round"/>
<path d="M132.65 249.2C134.489 245.91 137.216 243.204 140.52 241.39" stroke="#263238" stroke-linecap="round" stroke-linejoin="round"/>
<path d="M142.28 228.51C147.078 227.094 151.399 224.397 154.78 220.71" stroke="#263238" stroke-linecap="round" stroke-linejoin="round"/>
<path d="M135.55 201C135.55 202.09 135.55 203.19 135.49 204.28" stroke="#263238" stroke-linecap="round" stroke-linejoin="round"/>
<path d="M132.65 212.86C134.11 208.25 133.55 201.75 133.6 197.44C133.57 197.157 133.645 196.872 133.81 196.64C133.892 196.573 133.986 196.524 134.088 196.495C134.189 196.465 134.295 196.457 134.4 196.47C134.505 196.483 134.606 196.518 134.697 196.571C134.788 196.624 134.867 196.695 134.93 196.78C135.179 197.128 135.318 197.542 135.33 197.97C135.368 198.185 135.392 198.402 135.4 198.62" stroke="#263238" stroke-linecap="round" stroke-linejoin="round"/>
<path d="M144.59 266.88C149.905 264.472 154.47 260.671 157.8 255.88C157.373 258.786 156.369 261.578 154.846 264.09C153.323 266.602 151.313 268.783 148.933 270.505C146.554 272.228 143.853 273.456 140.992 274.118C138.13 274.78 135.164 274.862 132.27 274.36" stroke="#263238" stroke-linecap="round" stroke-linejoin="round"/>
<path d="M137.39 269.24C138.46 269.01 139.51 268.74 140.55 268.42" stroke="#263238" stroke-linecap="round" stroke-linejoin="round"/>
<path d="M112.74 220.71C113.577 221.873 114.5 222.973 115.5 224" stroke="#263238" stroke-linecap="round" stroke-linejoin="round"/>
<path d="M105.43 202.63C106.1 208.267 108.046 213.678 111.12 218.45" stroke="#263238" stroke-linecap="round" stroke-linejoin="round"/>
<path d="M167.59 255.63C166.48 256.81 165.4 258.02 164.33 259.24C160.098 264.074 156.167 269.163 152.56 274.48C150.72 277.147 148.973 279.9 147.32 282.74" stroke="#263238" stroke-linecap="round" stroke-linejoin="round"/>
<path d="M128 159.05C127.67 161.62 128.79 166.27 136.19 170.48" stroke="#263238" stroke-linecap="round" stroke-linejoin="round"/>
</svg>
